G75*
%MOIN*%
%OFA0B0*%
%FSLAX25Y25*%
%IPPOS*%
%LPD*%
%AMOC8*
5,1,8,0,0,1.08239X$1,22.5*
%
%ADD10R,0.05000X0.02200*%
%ADD11R,0.02200X0.05000*%
%ADD12R,0.02600X0.08000*%
%ADD13R,0.05118X0.06299*%
%ADD14OC8,0.05600*%
%ADD15R,0.06400X0.06400*%
%ADD16OC8,0.06400*%
%ADD17R,0.05906X0.05118*%
%ADD18R,0.06299X0.05118*%
%ADD19R,0.05118X0.05906*%
%ADD20OC8,0.10000*%
%ADD21R,0.14961X0.05512*%
%ADD22R,0.14961X0.04724*%
%ADD23C,0.06000*%
%ADD24R,0.03937X0.05512*%
%ADD25C,0.03975*%
%ADD26C,0.03819*%
%ADD27C,0.01600*%
%ADD28C,0.02400*%
%ADD29C,0.01200*%
%ADD30C,0.03200*%
%ADD31R,0.03562X0.03562*%
%ADD32C,0.03562*%
D10*
X0125848Y0060959D03*
X0125848Y0064108D03*
X0125848Y0067258D03*
X0125848Y0070407D03*
X0125848Y0073557D03*
X0125848Y0076707D03*
X0125848Y0079856D03*
X0125848Y0083006D03*
X0159648Y0083006D03*
X0159648Y0079856D03*
X0159648Y0076707D03*
X0159648Y0073557D03*
X0159648Y0070407D03*
X0159648Y0067258D03*
X0159648Y0064108D03*
X0159648Y0060959D03*
D11*
X0153772Y0055082D03*
X0150622Y0055082D03*
X0147472Y0055082D03*
X0144323Y0055082D03*
X0141173Y0055082D03*
X0138024Y0055082D03*
X0134874Y0055082D03*
X0131724Y0055082D03*
X0131724Y0088882D03*
X0134874Y0088882D03*
X0138024Y0088882D03*
X0141173Y0088882D03*
X0144323Y0088882D03*
X0147472Y0088882D03*
X0150622Y0088882D03*
X0153772Y0088882D03*
D12*
X0134480Y0040850D03*
X0129480Y0040850D03*
X0124480Y0040850D03*
X0119480Y0040850D03*
X0119480Y0016650D03*
X0124480Y0016650D03*
X0129480Y0016650D03*
X0134480Y0016650D03*
D13*
X0062720Y0028750D03*
X0055240Y0028750D03*
X0055240Y0048750D03*
X0062720Y0048750D03*
X0062470Y0070500D03*
X0054990Y0070500D03*
D14*
X0080876Y0138108D03*
X0090876Y0138108D03*
X0090876Y0161730D03*
X0080876Y0161730D03*
X0104498Y0161730D03*
X0114498Y0161730D03*
X0128120Y0161730D03*
X0138120Y0161730D03*
X0138120Y0138108D03*
X0128120Y0138108D03*
X0162230Y0144000D03*
X0172230Y0144000D03*
X0193120Y0154093D03*
X0203120Y0154093D03*
X0190482Y0175037D03*
X0180482Y0175037D03*
X0172490Y0192045D03*
X0162490Y0192045D03*
X0150837Y0203974D03*
X0140837Y0203974D03*
X0126900Y0210156D03*
X0116900Y0210156D03*
X0102096Y0210156D03*
X0092096Y0210156D03*
X0078159Y0203974D03*
X0068159Y0203974D03*
X0056467Y0192006D03*
X0046467Y0192006D03*
X0038474Y0175037D03*
X0028474Y0175037D03*
X0025285Y0153856D03*
X0015285Y0153856D03*
X0047526Y0144730D03*
X0057526Y0144730D03*
X0080876Y0185352D03*
X0090876Y0185352D03*
X0128120Y0185352D03*
X0138120Y0185352D03*
D15*
X0208230Y0012750D03*
D16*
X0198230Y0012750D03*
X0198230Y0022750D03*
X0198230Y0032750D03*
X0208230Y0032750D03*
X0208230Y0022750D03*
D17*
X0173730Y0068010D03*
X0173730Y0075490D03*
D18*
X0194980Y0068240D03*
X0194980Y0060760D03*
X0204230Y0113260D03*
X0204230Y0120740D03*
X0185730Y0121740D03*
X0185730Y0114260D03*
X0164980Y0114260D03*
X0164980Y0121740D03*
X0133230Y0120740D03*
X0133230Y0113260D03*
D19*
X0110470Y0060750D03*
X0102990Y0060750D03*
X0102990Y0046000D03*
X0110470Y0046000D03*
X0198240Y0047250D03*
X0205720Y0047250D03*
D20*
X0172730Y0018750D03*
X0152480Y0018750D03*
D21*
X0107230Y0082750D03*
D22*
X0107230Y0092750D03*
X0107230Y0072750D03*
D23*
X0163480Y0052750D02*
X0163480Y0046750D01*
X0173480Y0046750D02*
X0173480Y0052750D01*
X0183480Y0052750D02*
X0183480Y0046750D01*
D24*
X0036970Y0060081D03*
X0029490Y0060081D03*
X0033230Y0051419D03*
X0016970Y0059831D03*
X0009490Y0059831D03*
X0013230Y0051169D03*
D25*
X0019421Y0020071D03*
X0016862Y0016134D03*
X0021980Y0016134D03*
X0024539Y0020071D03*
X0027098Y0016134D03*
D26*
X0007906Y0015091D02*
X0007906Y0018909D01*
X0036055Y0018909D02*
X0036055Y0015091D01*
D27*
X0024539Y0020071D02*
X0024480Y0044250D01*
X0033230Y0051419D01*
X0055240Y0048750D01*
X0054990Y0070500D01*
X0055240Y0029000D02*
X0040230Y0029000D01*
X0055240Y0029000D02*
X0055240Y0028750D01*
X0013230Y0038250D02*
X0013230Y0051169D01*
X0107230Y0072750D02*
X0112980Y0072750D01*
X0120230Y0080000D01*
X0125730Y0080000D01*
X0125874Y0079856D01*
X0125848Y0079856D01*
X0125874Y0079856D02*
X0125980Y0079750D01*
X0126230Y0076750D02*
X0143230Y0076750D01*
X0143230Y0079856D01*
X0159648Y0079856D01*
X0159480Y0083000D02*
X0213480Y0083000D01*
X0213480Y0022750D01*
X0208230Y0022750D01*
X0203230Y0027000D02*
X0203230Y0007250D01*
X0134480Y0007250D01*
X0129480Y0016650D02*
X0129480Y0024750D01*
X0152480Y0024750D01*
X0152480Y0018750D01*
X0144230Y0030750D02*
X0144230Y0055082D01*
X0144323Y0055082D01*
X0141173Y0055082D02*
X0141173Y0053557D01*
X0141230Y0053500D01*
X0140980Y0052250D01*
X0140980Y0038250D01*
X0134730Y0040850D02*
X0134730Y0055082D01*
X0134874Y0055082D01*
X0137980Y0055250D02*
X0138024Y0055207D01*
X0138024Y0055082D01*
X0150622Y0055082D02*
X0150622Y0050500D01*
X0163480Y0050500D01*
X0163480Y0049750D01*
X0157230Y0055500D02*
X0153980Y0055500D01*
X0153980Y0055291D01*
X0153772Y0055082D01*
X0157230Y0055500D02*
X0159480Y0057750D01*
X0170480Y0057750D01*
X0173356Y0054875D01*
X0173356Y0054875D01*
X0173480Y0055000D01*
X0173480Y0049750D01*
X0173480Y0054750D02*
X0173356Y0054875D01*
X0173480Y0054750D02*
X0180980Y0062250D01*
X0189980Y0068250D01*
X0190980Y0068240D01*
X0194980Y0068240D01*
X0194980Y0060760D02*
X0189730Y0061000D01*
X0183480Y0055750D01*
X0183480Y0049750D01*
X0198240Y0047250D02*
X0198240Y0032750D01*
X0198230Y0032750D01*
X0203230Y0027000D01*
X0198230Y0022750D02*
X0192230Y0022500D01*
X0164980Y0038750D01*
X0150730Y0046250D01*
X0144230Y0030750D02*
X0129480Y0030750D01*
X0129480Y0040850D01*
X0134480Y0040850D02*
X0134730Y0040850D01*
X0124480Y0028000D02*
X0124480Y0016650D01*
X0119480Y0016650D02*
X0119480Y0014750D01*
X0118980Y0014250D01*
X0116230Y0014250D01*
X0109980Y0020500D01*
X0109980Y0020750D01*
X0108230Y0019000D01*
X0107980Y0019000D01*
X0107980Y0013000D01*
X0109980Y0020750D02*
X0109980Y0046000D01*
X0110470Y0046000D01*
X0110470Y0060490D01*
X0110480Y0060500D01*
X0110470Y0060510D01*
X0110470Y0060750D01*
X0110470Y0062740D01*
X0113980Y0066250D01*
X0120230Y0072500D01*
X0120230Y0076000D01*
X0120730Y0076500D01*
X0125480Y0076500D01*
X0125687Y0076707D01*
X0125848Y0076707D01*
X0126230Y0076707D01*
X0126230Y0076750D01*
X0126480Y0073750D02*
X0126480Y0073557D01*
X0126480Y0073500D01*
X0134980Y0073000D01*
X0134980Y0070500D01*
X0135230Y0070500D01*
X0135230Y0070407D01*
X0159648Y0070407D01*
X0170573Y0070407D01*
X0173480Y0067500D01*
X0173730Y0067750D01*
X0173730Y0068010D01*
X0173730Y0067500D01*
X0173980Y0067500D01*
X0171537Y0073557D02*
X0173730Y0075750D01*
X0173730Y0075490D01*
X0171537Y0073557D02*
X0159648Y0073557D01*
X0159480Y0083000D02*
X0159480Y0083006D01*
X0159648Y0083006D01*
X0159480Y0088250D02*
X0154230Y0088250D01*
X0153730Y0088750D01*
X0153772Y0088791D01*
X0153772Y0088882D01*
X0150730Y0089250D02*
X0150480Y0089000D01*
X0150598Y0088882D01*
X0150622Y0088882D01*
X0150730Y0089250D02*
X0150980Y0097000D01*
X0125848Y0083006D02*
X0119480Y0083000D01*
X0113480Y0092750D01*
X0107230Y0092750D01*
X0125848Y0073557D02*
X0126480Y0073557D01*
X0125848Y0070407D02*
X0120638Y0070407D01*
X0120230Y0070000D01*
X0120230Y0072500D01*
X0123988Y0067258D02*
X0125848Y0067258D01*
X0134480Y0067758D01*
X0134480Y0067750D01*
X0134980Y0067750D01*
X0134980Y0070500D01*
X0123988Y0067258D02*
X0123980Y0067250D01*
X0124480Y0028000D02*
X0172730Y0028000D01*
X0172730Y0018750D01*
X0172709Y0015022D02*
X0172730Y0015000D01*
X0205720Y0038000D02*
X0205720Y0047250D01*
X0205720Y0038000D02*
X0207730Y0038000D01*
X0207730Y0032750D01*
X0208230Y0032750D01*
X0129480Y0016650D02*
X0129230Y0016650D01*
X0119480Y0016650D02*
X0119230Y0016650D01*
X0091480Y0161730D02*
X0090876Y0161730D01*
X0091480Y0161730D02*
X0091480Y0175250D01*
X0097980Y0175250D01*
X0097980Y0175750D01*
X0101730Y0175750D01*
X0101730Y0183750D01*
D28*
X0096980Y0082750D02*
X0107230Y0082750D01*
X0096980Y0082750D02*
X0096480Y0082750D01*
X0096480Y0060750D01*
X0102990Y0060750D01*
X0102990Y0046000D01*
X0102990Y0007250D01*
X0102990Y0007000D01*
X0102990Y0007250D02*
X0134480Y0007250D01*
X0134480Y0016650D01*
X0119480Y0016650D02*
X0119480Y0018000D01*
X0124480Y0040850D02*
X0129480Y0040850D01*
X0129730Y0040850D01*
X0129730Y0041000D01*
X0113980Y0066250D02*
X0112980Y0067250D01*
X0173980Y0067500D02*
X0180730Y0067500D01*
X0180730Y0079000D01*
X0203480Y0079000D01*
X0203480Y0066000D01*
X0199230Y0061750D01*
X0194980Y0061750D01*
X0194980Y0060760D01*
X0198240Y0060760D01*
X0198240Y0047250D01*
X0194980Y0060760D02*
X0194980Y0061250D01*
X0198230Y0032750D02*
X0198480Y0032750D01*
D29*
X0173980Y0067500D02*
X0172730Y0068750D01*
X0172480Y0068750D01*
X0170980Y0070250D01*
X0135230Y0070250D01*
X0134730Y0070750D01*
X0134730Y0072750D01*
X0133923Y0073557D01*
X0125848Y0073557D01*
X0125230Y0064250D02*
X0124980Y0064000D01*
X0121980Y0064000D01*
X0119980Y0062000D01*
X0119980Y0058250D01*
X0115230Y0053500D01*
X0114730Y0053500D01*
X0119480Y0048750D02*
X0132230Y0061250D01*
X0137980Y0061250D01*
X0137980Y0055250D01*
X0131724Y0055082D02*
X0131724Y0054494D01*
X0127730Y0049750D01*
X0119480Y0048750D02*
X0119480Y0040850D01*
X0125848Y0060959D02*
X0128689Y0060959D01*
X0131480Y0063750D01*
X0140230Y0063750D01*
X0140230Y0066250D01*
X0146480Y0064000D02*
X0159540Y0064000D01*
X0159648Y0064108D01*
X0159689Y0061000D02*
X0164730Y0061000D01*
X0159689Y0061000D02*
X0159648Y0060959D01*
X0147480Y0088882D02*
X0147480Y0103250D01*
X0204230Y0103250D01*
X0204230Y0113260D01*
X0204230Y0120740D02*
X0204230Y0133500D01*
X0185730Y0121740D02*
X0185730Y0170000D01*
X0190482Y0174752D01*
X0190482Y0175037D01*
X0177230Y0161500D02*
X0177230Y0126500D01*
X0172470Y0121740D01*
X0164980Y0121740D01*
X0164980Y0114260D02*
X0164730Y0114260D01*
X0164730Y0109750D01*
X0141230Y0109750D01*
X0141230Y0088882D01*
X0141173Y0088882D01*
X0144323Y0088882D02*
X0144480Y0088882D01*
X0144480Y0106500D01*
X0185730Y0106500D01*
X0185730Y0114260D01*
X0147480Y0088882D02*
X0147472Y0088882D01*
X0138024Y0088882D02*
X0137980Y0088882D01*
X0137980Y0113260D01*
X0133230Y0113260D01*
X0133230Y0120740D02*
X0133230Y0129250D01*
X0122730Y0121250D02*
X0082730Y0121250D01*
X0078480Y0127500D01*
X0011480Y0127500D01*
X0007730Y0130750D01*
X0007730Y0156250D01*
X0016230Y0167000D01*
X0016980Y0167000D01*
X0023230Y0160750D01*
X0023230Y0156250D01*
X0025480Y0154000D01*
X0025337Y0153856D01*
X0025285Y0153856D01*
X0028480Y0175000D02*
X0028474Y0175006D01*
X0027980Y0175500D01*
X0004730Y0175500D01*
X0003980Y0174750D01*
X0003980Y0129500D01*
X0011730Y0121750D01*
X0076980Y0121750D01*
X0091980Y0106750D01*
X0107980Y0106750D01*
X0122730Y0092000D01*
X0122730Y0091750D01*
X0125598Y0088882D01*
X0131724Y0088882D01*
X0134874Y0088882D02*
X0134874Y0096356D01*
X0131980Y0099250D01*
X0120730Y0099250D01*
X0107230Y0112750D01*
X0137980Y0088882D02*
X0137980Y0088750D01*
X0125848Y0064108D02*
X0125372Y0064108D01*
X0125230Y0064250D01*
X0083480Y0041250D02*
X0062470Y0062260D01*
X0062470Y0070500D01*
X0062720Y0028750D02*
X0082980Y0028750D01*
X0028474Y0175006D02*
X0028474Y0175037D01*
D30*
X0028474Y0174756D01*
X0029480Y0173750D01*
X0038474Y0175037D02*
X0056480Y0175037D01*
X0056480Y0192006D01*
X0056467Y0192006D01*
X0078230Y0192006D01*
X0078230Y0198750D01*
X0102480Y0198750D01*
X0102480Y0210156D01*
X0102096Y0210156D01*
X0097230Y0217000D02*
X0202730Y0217000D01*
X0211230Y0212000D01*
X0211730Y0144750D01*
X0198730Y0144250D01*
X0192980Y0154000D01*
X0193073Y0154093D01*
X0193120Y0154093D01*
X0203120Y0154093D02*
X0203480Y0154093D01*
X0203480Y0175000D01*
X0203480Y0192045D01*
X0172490Y0192045D01*
X0172730Y0192045D01*
X0172730Y0203974D01*
X0150837Y0203974D01*
X0150980Y0203974D01*
X0150980Y0212750D01*
X0127230Y0212750D01*
X0127230Y0210156D01*
X0126900Y0210156D01*
X0116900Y0210156D02*
X0109730Y0210156D01*
X0109730Y0172750D01*
X0104230Y0172750D01*
X0104230Y0161730D01*
X0104498Y0161730D01*
X0099230Y0161730D01*
X0099230Y0149500D01*
X0080980Y0149500D01*
X0080980Y0138108D01*
X0080876Y0138108D01*
X0081230Y0138108D01*
X0081230Y0132000D01*
X0015230Y0132000D01*
X0015230Y0153856D01*
X0015285Y0153856D01*
X0025285Y0153856D02*
X0038480Y0153856D01*
X0038480Y0175037D01*
X0038474Y0175037D01*
X0078230Y0198750D02*
X0078230Y0203974D01*
X0078159Y0203974D01*
X0092096Y0210156D02*
X0092096Y0211866D01*
X0097230Y0217000D01*
X0123230Y0195250D02*
X0117230Y0189250D01*
X0117230Y0165000D01*
X0114230Y0162000D01*
X0114498Y0161732D01*
X0114498Y0161730D01*
X0114498Y0161232D01*
X0125980Y0149750D01*
X0137480Y0149750D01*
X0138230Y0150500D01*
X0137980Y0150500D01*
X0137980Y0161730D01*
X0138120Y0161730D01*
X0137980Y0150500D02*
X0137980Y0138108D01*
X0138120Y0138108D01*
X0137980Y0138108D02*
X0137980Y0137500D01*
X0133230Y0129250D02*
X0171480Y0129250D01*
X0171480Y0144000D01*
X0172230Y0144000D01*
X0162480Y0144000D02*
X0162480Y0175037D01*
X0127980Y0175037D01*
X0127980Y0185352D01*
X0128120Y0185352D01*
X0138120Y0185352D02*
X0138120Y0192110D01*
X0134980Y0195250D01*
X0123230Y0195250D01*
X0162480Y0175037D02*
X0180482Y0175037D01*
X0190230Y0175037D02*
X0190230Y0175000D01*
X0203480Y0175000D01*
X0190482Y0175037D02*
X0190230Y0175037D01*
X0190230Y0175250D01*
X0172730Y0192000D02*
X0172730Y0192045D01*
X0162480Y0144000D02*
X0162230Y0144000D01*
X0162480Y0144000D02*
X0162480Y0143250D01*
X0133230Y0129250D02*
X0090730Y0129250D01*
X0090730Y0133000D01*
X0091230Y0133000D01*
X0091230Y0138108D01*
X0090876Y0138108D01*
X0080980Y0138108D02*
X0080980Y0137750D01*
X0096980Y0082750D02*
X0029490Y0082750D01*
X0029490Y0060081D01*
X0009490Y0059831D02*
X0009490Y0082750D01*
X0029490Y0082750D01*
X0062720Y0048750D02*
X0073980Y0038750D01*
X0102990Y0007250D02*
X0016862Y0007500D01*
X0016862Y0016134D01*
D31*
X0107980Y0013000D03*
X0140980Y0038250D03*
X0150730Y0046250D03*
X0140230Y0066250D03*
X0127730Y0049750D03*
X0114730Y0053500D03*
X0150980Y0097000D03*
X0159480Y0088250D03*
X0122730Y0121250D03*
X0107230Y0112750D03*
X0177230Y0161500D03*
X0204230Y0133500D03*
X0101730Y0183750D03*
D32*
X0146480Y0064000D03*
X0164730Y0061000D03*
X0083480Y0041250D03*
X0073980Y0038750D03*
X0082980Y0028750D03*
X0040230Y0029000D03*
X0013230Y0038250D03*
M02*
