G75*
%MOIN*%
%OFA0B0*%
%FSLAX25Y25*%
%IPPOS*%
%LPD*%
%AMOC8*
5,1,8,0,0,1.08239X$1,22.5*
%
%ADD10C,0.00500*%
D10*
X0007236Y0011862D02*
X0007236Y0015839D01*
X0007238Y0015890D01*
X0007244Y0015942D01*
X0007253Y0015992D01*
X0007267Y0016042D01*
X0007284Y0016091D01*
X0007304Y0016138D01*
X0007328Y0016184D01*
X0007356Y0016227D01*
X0007386Y0016269D01*
X0007420Y0016308D01*
X0007456Y0016344D01*
X0007495Y0016378D01*
X0007537Y0016408D01*
X0007581Y0016436D01*
X0007626Y0016460D01*
X0007673Y0016480D01*
X0007722Y0016497D01*
X0007772Y0016511D01*
X0007822Y0016520D01*
X0007874Y0016526D01*
X0007925Y0016528D01*
X0007976Y0016526D01*
X0008028Y0016520D01*
X0008078Y0016511D01*
X0008128Y0016497D01*
X0008177Y0016480D01*
X0008224Y0016460D01*
X0008270Y0016436D01*
X0008313Y0016408D01*
X0008355Y0016378D01*
X0008394Y0016344D01*
X0008430Y0016308D01*
X0008464Y0016269D01*
X0008494Y0016227D01*
X0008522Y0016184D01*
X0008546Y0016138D01*
X0008566Y0016091D01*
X0008583Y0016042D01*
X0008597Y0015992D01*
X0008606Y0015942D01*
X0008612Y0015890D01*
X0008614Y0015839D01*
X0008594Y0016114D02*
X0008594Y0011587D01*
X0008614Y0011862D02*
X0008612Y0011811D01*
X0008606Y0011759D01*
X0008597Y0011709D01*
X0008583Y0011659D01*
X0008566Y0011610D01*
X0008546Y0011563D01*
X0008522Y0011518D01*
X0008494Y0011474D01*
X0008464Y0011432D01*
X0008430Y0011393D01*
X0008394Y0011357D01*
X0008355Y0011323D01*
X0008313Y0011293D01*
X0008270Y0011265D01*
X0008224Y0011241D01*
X0008177Y0011221D01*
X0008128Y0011204D01*
X0008078Y0011190D01*
X0008028Y0011181D01*
X0007976Y0011175D01*
X0007925Y0011173D01*
X0007874Y0011175D01*
X0007822Y0011181D01*
X0007772Y0011190D01*
X0007722Y0011204D01*
X0007673Y0011221D01*
X0007626Y0011241D01*
X0007580Y0011265D01*
X0007537Y0011293D01*
X0007495Y0011323D01*
X0007456Y0011357D01*
X0007420Y0011393D01*
X0007386Y0011432D01*
X0007356Y0011474D01*
X0007328Y0011518D01*
X0007304Y0011563D01*
X0007284Y0011610D01*
X0007267Y0011659D01*
X0007253Y0011709D01*
X0007244Y0011759D01*
X0007238Y0011811D01*
X0007236Y0011862D01*
X0035386Y0011862D02*
X0035386Y0015839D01*
X0035388Y0015890D01*
X0035394Y0015942D01*
X0035403Y0015992D01*
X0035417Y0016042D01*
X0035434Y0016091D01*
X0035454Y0016138D01*
X0035478Y0016184D01*
X0035506Y0016227D01*
X0035536Y0016269D01*
X0035570Y0016308D01*
X0035606Y0016344D01*
X0035645Y0016378D01*
X0035687Y0016408D01*
X0035731Y0016436D01*
X0035776Y0016460D01*
X0035823Y0016480D01*
X0035872Y0016497D01*
X0035922Y0016511D01*
X0035972Y0016520D01*
X0036024Y0016526D01*
X0036075Y0016528D01*
X0036126Y0016526D01*
X0036178Y0016520D01*
X0036228Y0016511D01*
X0036278Y0016497D01*
X0036327Y0016480D01*
X0036374Y0016460D01*
X0036420Y0016436D01*
X0036463Y0016408D01*
X0036505Y0016378D01*
X0036544Y0016344D01*
X0036580Y0016308D01*
X0036614Y0016269D01*
X0036644Y0016227D01*
X0036672Y0016184D01*
X0036696Y0016138D01*
X0036716Y0016091D01*
X0036733Y0016042D01*
X0036747Y0015992D01*
X0036756Y0015942D01*
X0036762Y0015890D01*
X0036764Y0015839D01*
X0036764Y0011862D01*
X0036762Y0011811D01*
X0036756Y0011759D01*
X0036747Y0011709D01*
X0036733Y0011659D01*
X0036716Y0011610D01*
X0036696Y0011563D01*
X0036672Y0011518D01*
X0036644Y0011474D01*
X0036614Y0011432D01*
X0036580Y0011393D01*
X0036544Y0011357D01*
X0036505Y0011323D01*
X0036463Y0011293D01*
X0036420Y0011265D01*
X0036374Y0011241D01*
X0036327Y0011221D01*
X0036278Y0011204D01*
X0036228Y0011190D01*
X0036178Y0011181D01*
X0036126Y0011175D01*
X0036075Y0011173D01*
X0036024Y0011175D01*
X0035972Y0011181D01*
X0035922Y0011190D01*
X0035872Y0011204D01*
X0035823Y0011221D01*
X0035776Y0011241D01*
X0035731Y0011265D01*
X0035687Y0011293D01*
X0035645Y0011323D01*
X0035606Y0011357D01*
X0035570Y0011393D01*
X0035536Y0011432D01*
X0035506Y0011474D01*
X0035478Y0011518D01*
X0035454Y0011563D01*
X0035434Y0011610D01*
X0035417Y0011659D01*
X0035403Y0011709D01*
X0035394Y0011759D01*
X0035388Y0011811D01*
X0035386Y0011862D01*
M02*
