G75*
%MOIN*%
%OFA0B0*%
%FSLAX25Y25*%
%IPPOS*%
%LPD*%
%AMOC8*
5,1,8,0,0,1.08239X$1,22.5*
%
%ADD10OC8,0.05600*%
%ADD11R,0.06400X0.06400*%
%ADD12OC8,0.06400*%
%ADD13OC8,0.10000*%
%ADD14C,0.06000*%
%ADD15C,0.03975*%
%ADD16C,0.03819*%
%ADD17C,0.02400*%
%ADD18C,0.03200*%
%ADD19C,0.01600*%
%ADD20R,0.03562X0.03562*%
%ADD21C,0.03562*%
%ADD22C,0.01200*%
D10*
X0080876Y0136025D03*
X0090876Y0136025D03*
X0090876Y0159647D03*
X0080876Y0159647D03*
X0104498Y0159647D03*
X0114498Y0159647D03*
X0128120Y0159647D03*
X0138120Y0159647D03*
X0162230Y0141917D03*
X0172230Y0141917D03*
X0193120Y0152009D03*
X0203120Y0152009D03*
X0190482Y0172954D03*
X0180482Y0172954D03*
X0172490Y0189962D03*
X0162490Y0189962D03*
X0150837Y0201891D03*
X0140837Y0201891D03*
X0126900Y0208072D03*
X0116900Y0208072D03*
X0102096Y0208072D03*
X0092096Y0208072D03*
X0078159Y0201891D03*
X0068159Y0201891D03*
X0056467Y0189923D03*
X0046467Y0189923D03*
X0038474Y0172954D03*
X0028474Y0172954D03*
X0025285Y0151773D03*
X0015285Y0151773D03*
X0047526Y0142647D03*
X0057526Y0142647D03*
X0080876Y0183269D03*
X0090876Y0183269D03*
X0128120Y0183269D03*
X0138120Y0183269D03*
X0138120Y0136025D03*
X0128120Y0136025D03*
D11*
X0208230Y0010667D03*
D12*
X0198230Y0010667D03*
X0198230Y0020667D03*
X0198230Y0030667D03*
X0208230Y0030667D03*
X0208230Y0020667D03*
D13*
X0172730Y0016667D03*
X0152480Y0016667D03*
D14*
X0163480Y0044667D02*
X0163480Y0050667D01*
X0173480Y0050667D02*
X0173480Y0044667D01*
X0183480Y0044667D02*
X0183480Y0050667D01*
D15*
X0027098Y0014051D03*
X0024539Y0017988D03*
X0021980Y0014051D03*
X0019421Y0017988D03*
X0016862Y0014051D03*
D16*
X0007906Y0013007D02*
X0007906Y0016826D01*
X0036055Y0016826D02*
X0036055Y0013007D01*
D17*
X0036055Y0014917D02*
X0035980Y0015167D01*
X0016862Y0014051D02*
X0007906Y0014301D01*
X0007906Y0014917D01*
D18*
X0007730Y0023417D01*
X0035980Y0023417D01*
X0035980Y0015167D01*
X0027098Y0014051D02*
X0027230Y0005417D01*
X0073980Y0005417D01*
X0073994Y0011656D01*
X0107980Y0011417D01*
X0073994Y0011656D02*
X0073980Y0011917D01*
X0073980Y0036667D01*
X0090480Y0135917D02*
X0090589Y0136025D01*
X0090980Y0136417D01*
X0090980Y0146667D01*
X0090230Y0147417D01*
X0089980Y0147417D01*
X0095730Y0147417D01*
X0096980Y0148667D01*
X0096980Y0176417D01*
X0093730Y0179667D01*
X0093730Y0180667D01*
X0091128Y0183269D01*
X0090876Y0183269D01*
X0086480Y0188667D02*
X0118480Y0188667D01*
X0123230Y0193417D01*
X0123230Y0193667D01*
X0131480Y0201917D01*
X0140980Y0201917D01*
X0141006Y0201891D01*
X0140837Y0201891D01*
X0141006Y0201891D02*
X0141230Y0201667D01*
X0159026Y0189962D02*
X0128230Y0159167D01*
X0128120Y0159277D01*
X0128120Y0159647D01*
X0144073Y0152009D02*
X0128089Y0136025D01*
X0128120Y0136025D01*
X0128089Y0136025D02*
X0127980Y0135917D01*
X0144073Y0152009D02*
X0193120Y0152009D01*
X0180482Y0172669D02*
X0180480Y0172667D01*
X0180482Y0172669D02*
X0181230Y0173417D01*
X0181230Y0208667D01*
X0176230Y0213667D01*
X0113230Y0213667D01*
X0109980Y0210417D01*
X0109980Y0196667D01*
X0087230Y0196667D01*
X0084230Y0209667D01*
X0080730Y0213167D01*
X0068230Y0213167D01*
X0068159Y0213096D01*
X0068159Y0201891D01*
X0059333Y0183269D02*
X0056230Y0179917D01*
X0041480Y0179917D01*
X0038730Y0182667D01*
X0031230Y0182667D01*
X0027768Y0172954D01*
X0028474Y0172954D01*
X0027768Y0172954D02*
X0027480Y0172667D01*
X0016980Y0189917D02*
X0046230Y0189917D01*
X0046467Y0189680D01*
X0046467Y0189923D01*
X0046467Y0189680D02*
X0046480Y0189667D01*
X0059333Y0183269D02*
X0080876Y0183269D01*
X0081083Y0183269D01*
X0086480Y0188667D01*
X0080876Y0183269D02*
X0080876Y0159771D01*
X0080980Y0159667D01*
X0080961Y0159647D01*
X0080876Y0159647D01*
X0089980Y0147417D02*
X0062230Y0147417D01*
X0057480Y0142667D01*
X0057500Y0142647D01*
X0057526Y0142647D01*
X0047526Y0142647D02*
X0011000Y0142647D01*
X0006730Y0146917D01*
X0006730Y0179667D01*
X0016980Y0189917D01*
X0090589Y0136025D02*
X0090876Y0136025D01*
X0159026Y0189962D02*
X0162490Y0189962D01*
X0180482Y0172954D02*
X0180482Y0172669D01*
D19*
X0021980Y0005417D02*
X0003230Y0005417D01*
X0003230Y0030167D01*
X0013230Y0030167D01*
X0013230Y0036167D01*
X0040230Y0036167D01*
X0040230Y0026917D01*
X0021980Y0014051D02*
X0021980Y0005417D01*
X0107980Y0006417D02*
X0107980Y0011417D01*
X0107980Y0006417D02*
X0191480Y0006417D01*
X0197480Y0010667D01*
X0198230Y0010667D01*
X0208230Y0010667D02*
X0213980Y0010667D01*
X0213480Y0010917D01*
X0213480Y0086167D01*
X0159480Y0086167D01*
X0150980Y0094917D02*
X0150730Y0063667D01*
X0150730Y0044167D01*
X0140980Y0036167D02*
X0192230Y0035917D01*
X0208230Y0035917D01*
X0208230Y0030667D01*
X0114480Y0159417D02*
X0114498Y0159434D01*
X0117480Y0162417D01*
X0117480Y0181917D01*
X0117230Y0181667D01*
X0101730Y0181667D01*
X0114498Y0159647D02*
X0114498Y0159434D01*
D20*
X0101730Y0181667D03*
X0122730Y0119167D03*
X0107230Y0110667D03*
X0150980Y0094917D03*
X0159480Y0086167D03*
X0140230Y0064167D03*
X0127730Y0047667D03*
X0114730Y0051417D03*
X0140980Y0036167D03*
X0150730Y0044167D03*
X0107980Y0011417D03*
X0206730Y0131417D03*
X0177230Y0159417D03*
D21*
X0146480Y0061917D03*
X0164730Y0058917D03*
X0083480Y0039167D03*
X0073980Y0036667D03*
X0082980Y0026667D03*
X0040230Y0026917D03*
X0013230Y0036167D03*
D22*
X0083480Y0039167D02*
X0134730Y0039167D01*
X0134730Y0050167D01*
X0146480Y0061917D01*
X0140230Y0064167D02*
X0141480Y0112417D01*
X0147730Y0118167D01*
X0169980Y0118167D01*
X0178230Y0126417D01*
X0210480Y0126417D01*
X0213730Y0129667D01*
X0213730Y0159167D01*
X0208980Y0163917D01*
X0182730Y0163917D01*
X0180730Y0165917D01*
X0180730Y0172917D01*
X0180482Y0173165D01*
X0180482Y0172954D01*
X0180482Y0173165D02*
X0180480Y0173167D01*
X0177230Y0159417D02*
X0137980Y0159417D01*
X0138120Y0159556D01*
X0138120Y0159647D01*
X0128230Y0159167D02*
X0127730Y0159167D01*
X0106230Y0137667D01*
X0106230Y0124667D01*
X0111730Y0119167D01*
X0111730Y0100167D01*
X0096480Y0100167D01*
X0096480Y0051417D01*
X0114730Y0051417D01*
X0116730Y0056917D02*
X0116730Y0124667D01*
X0127980Y0135917D01*
X0126230Y0126917D02*
X0125730Y0126417D01*
X0125480Y0126417D01*
X0122730Y0123667D01*
X0122730Y0119167D01*
X0126230Y0126917D02*
X0171230Y0126917D01*
X0175730Y0131417D01*
X0206730Y0131417D01*
X0164730Y0058917D02*
X0164730Y0055667D01*
X0159730Y0055917D01*
X0155730Y0052167D01*
X0155730Y0041167D01*
X0151480Y0039167D01*
X0144230Y0042167D01*
X0137730Y0040417D01*
X0130980Y0026417D01*
X0082980Y0026667D01*
X0116730Y0056917D02*
X0125980Y0047667D01*
X0127730Y0047667D01*
X0096480Y0100167D02*
X0081230Y0116917D01*
X0047526Y0131621D01*
X0047526Y0142647D01*
X0080876Y0136312D02*
X0080876Y0136025D01*
X0080876Y0136312D02*
X0080980Y0136417D01*
X0081730Y0135667D01*
X0081730Y0127667D01*
X0098730Y0110667D01*
X0107230Y0110667D01*
M02*
