G75*
%MOIN*%
%OFA0B0*%
%FSLAX25Y25*%
%IPPOS*%
%LPD*%
%AMOC8*
5,1,8,0,0,1.08239X$1,22.5*
%
%ADD10C,0.00600*%
%ADD11C,0.00300*%
%ADD12C,0.00200*%
%ADD13C,0.00400*%
D10*
X0014780Y0053000D02*
X0015780Y0053000D01*
X0018180Y0053000D01*
X0019180Y0053000D01*
X0018180Y0053000D02*
X0018178Y0053069D01*
X0018172Y0053137D01*
X0018162Y0053205D01*
X0018149Y0053272D01*
X0018131Y0053338D01*
X0018110Y0053403D01*
X0018085Y0053467D01*
X0018057Y0053529D01*
X0018025Y0053590D01*
X0017990Y0053649D01*
X0017951Y0053705D01*
X0017909Y0053760D01*
X0017864Y0053811D01*
X0017816Y0053861D01*
X0017766Y0053907D01*
X0017713Y0053950D01*
X0017657Y0053991D01*
X0017600Y0054028D01*
X0017540Y0054061D01*
X0017478Y0054092D01*
X0017415Y0054118D01*
X0017351Y0054141D01*
X0017285Y0054161D01*
X0017218Y0054176D01*
X0017151Y0054188D01*
X0017083Y0054196D01*
X0017014Y0054200D01*
X0016946Y0054200D01*
X0016877Y0054196D01*
X0016809Y0054188D01*
X0016742Y0054176D01*
X0016675Y0054161D01*
X0016609Y0054141D01*
X0016545Y0054118D01*
X0016482Y0054092D01*
X0016420Y0054061D01*
X0016360Y0054028D01*
X0016303Y0053991D01*
X0016247Y0053950D01*
X0016194Y0053907D01*
X0016144Y0053861D01*
X0016096Y0053811D01*
X0016051Y0053760D01*
X0016009Y0053705D01*
X0015970Y0053649D01*
X0015935Y0053590D01*
X0015903Y0053529D01*
X0015875Y0053467D01*
X0015850Y0053403D01*
X0015829Y0053338D01*
X0015811Y0053272D01*
X0015798Y0053205D01*
X0015788Y0053137D01*
X0015782Y0053069D01*
X0015780Y0053000D01*
X0116980Y0031800D02*
X0116980Y0019400D01*
X0116982Y0019324D01*
X0116988Y0019248D01*
X0116997Y0019173D01*
X0117011Y0019098D01*
X0117028Y0019024D01*
X0117049Y0018951D01*
X0117073Y0018879D01*
X0117102Y0018808D01*
X0117133Y0018739D01*
X0117168Y0018672D01*
X0117207Y0018607D01*
X0117249Y0018543D01*
X0117294Y0018482D01*
X0117342Y0018423D01*
X0117393Y0018367D01*
X0117447Y0018313D01*
X0117503Y0018262D01*
X0117562Y0018214D01*
X0117623Y0018169D01*
X0117687Y0018127D01*
X0117752Y0018088D01*
X0117819Y0018053D01*
X0117888Y0018022D01*
X0117959Y0017993D01*
X0118031Y0017969D01*
X0118104Y0017948D01*
X0118178Y0017931D01*
X0118253Y0017917D01*
X0118328Y0017908D01*
X0118404Y0017902D01*
X0118480Y0017900D01*
X0135480Y0017900D01*
X0135556Y0017902D01*
X0135632Y0017908D01*
X0135707Y0017917D01*
X0135782Y0017931D01*
X0135856Y0017948D01*
X0135929Y0017969D01*
X0136001Y0017993D01*
X0136072Y0018022D01*
X0136141Y0018053D01*
X0136208Y0018088D01*
X0136273Y0018127D01*
X0136337Y0018169D01*
X0136398Y0018214D01*
X0136457Y0018262D01*
X0136513Y0018313D01*
X0136567Y0018367D01*
X0136618Y0018423D01*
X0136666Y0018482D01*
X0136711Y0018543D01*
X0136753Y0018607D01*
X0136792Y0018672D01*
X0136827Y0018739D01*
X0136858Y0018808D01*
X0136887Y0018879D01*
X0136911Y0018951D01*
X0136932Y0019024D01*
X0136949Y0019098D01*
X0136963Y0019173D01*
X0136972Y0019248D01*
X0136978Y0019324D01*
X0136980Y0019400D01*
X0136980Y0031800D01*
X0136978Y0031876D01*
X0136972Y0031952D01*
X0136963Y0032027D01*
X0136949Y0032102D01*
X0136932Y0032176D01*
X0136911Y0032249D01*
X0136887Y0032321D01*
X0136858Y0032392D01*
X0136827Y0032461D01*
X0136792Y0032528D01*
X0136753Y0032593D01*
X0136711Y0032657D01*
X0136666Y0032718D01*
X0136618Y0032777D01*
X0136567Y0032833D01*
X0136513Y0032887D01*
X0136457Y0032938D01*
X0136398Y0032986D01*
X0136337Y0033031D01*
X0136273Y0033073D01*
X0136208Y0033112D01*
X0136141Y0033147D01*
X0136072Y0033178D01*
X0136001Y0033207D01*
X0135929Y0033231D01*
X0135856Y0033252D01*
X0135782Y0033269D01*
X0135707Y0033283D01*
X0135632Y0033292D01*
X0135556Y0033298D01*
X0135480Y0033300D01*
X0118480Y0033300D01*
X0118404Y0033298D01*
X0118328Y0033292D01*
X0118253Y0033283D01*
X0118178Y0033269D01*
X0118104Y0033252D01*
X0118031Y0033231D01*
X0117959Y0033207D01*
X0117888Y0033178D01*
X0117819Y0033147D01*
X0117752Y0033112D01*
X0117687Y0033073D01*
X0117623Y0033031D01*
X0117562Y0032986D01*
X0117503Y0032938D01*
X0117447Y0032887D01*
X0117393Y0032833D01*
X0117342Y0032777D01*
X0117294Y0032718D01*
X0117249Y0032657D01*
X0117207Y0032593D01*
X0117168Y0032528D01*
X0117133Y0032461D01*
X0117102Y0032392D01*
X0117073Y0032321D01*
X0117049Y0032249D01*
X0117028Y0032176D01*
X0117011Y0032102D01*
X0116997Y0032027D01*
X0116988Y0031952D01*
X0116982Y0031876D01*
X0116980Y0031800D01*
X0116980Y0027600D02*
X0117068Y0027598D01*
X0117157Y0027592D01*
X0117245Y0027582D01*
X0117332Y0027569D01*
X0117419Y0027551D01*
X0117505Y0027530D01*
X0117590Y0027505D01*
X0117673Y0027476D01*
X0117756Y0027443D01*
X0117836Y0027407D01*
X0117915Y0027368D01*
X0117993Y0027325D01*
X0118068Y0027278D01*
X0118141Y0027228D01*
X0118212Y0027175D01*
X0118281Y0027119D01*
X0118347Y0027060D01*
X0118410Y0026998D01*
X0118470Y0026934D01*
X0118528Y0026867D01*
X0118582Y0026797D01*
X0118634Y0026725D01*
X0118682Y0026651D01*
X0118727Y0026574D01*
X0118768Y0026496D01*
X0118806Y0026416D01*
X0118840Y0026335D01*
X0118871Y0026252D01*
X0118898Y0026167D01*
X0118921Y0026082D01*
X0118940Y0025996D01*
X0118956Y0025908D01*
X0118968Y0025821D01*
X0118976Y0025733D01*
X0118980Y0025644D01*
X0118980Y0025556D01*
X0118976Y0025467D01*
X0118968Y0025379D01*
X0118956Y0025292D01*
X0118940Y0025204D01*
X0118921Y0025118D01*
X0118898Y0025033D01*
X0118871Y0024948D01*
X0118840Y0024865D01*
X0118806Y0024784D01*
X0118768Y0024704D01*
X0118727Y0024626D01*
X0118682Y0024549D01*
X0118634Y0024475D01*
X0118582Y0024403D01*
X0118528Y0024333D01*
X0118470Y0024266D01*
X0118410Y0024202D01*
X0118347Y0024140D01*
X0118281Y0024081D01*
X0118212Y0024025D01*
X0118141Y0023972D01*
X0118068Y0023922D01*
X0117993Y0023875D01*
X0117915Y0023832D01*
X0117836Y0023793D01*
X0117756Y0023757D01*
X0117673Y0023724D01*
X0117590Y0023695D01*
X0117505Y0023670D01*
X0117419Y0023649D01*
X0117332Y0023631D01*
X0117245Y0023618D01*
X0117157Y0023608D01*
X0117068Y0023602D01*
X0116980Y0023600D01*
X0130346Y0055033D02*
X0128949Y0056431D01*
X0128949Y0082632D01*
X0156547Y0082632D01*
X0156547Y0055033D01*
X0130346Y0055033D01*
X0130534Y0058033D02*
X0130536Y0058108D01*
X0130542Y0058182D01*
X0130552Y0058256D01*
X0130565Y0058329D01*
X0130583Y0058402D01*
X0130604Y0058473D01*
X0130629Y0058544D01*
X0130658Y0058613D01*
X0130691Y0058680D01*
X0130727Y0058745D01*
X0130766Y0058809D01*
X0130808Y0058870D01*
X0130854Y0058929D01*
X0130903Y0058986D01*
X0130955Y0059039D01*
X0131009Y0059090D01*
X0131066Y0059139D01*
X0131126Y0059183D01*
X0131188Y0059225D01*
X0131252Y0059264D01*
X0131318Y0059299D01*
X0131385Y0059330D01*
X0131455Y0059358D01*
X0131525Y0059382D01*
X0131597Y0059403D01*
X0131670Y0059419D01*
X0131743Y0059432D01*
X0131818Y0059441D01*
X0131892Y0059446D01*
X0131967Y0059447D01*
X0132041Y0059444D01*
X0132116Y0059437D01*
X0132189Y0059426D01*
X0132263Y0059412D01*
X0132335Y0059393D01*
X0132406Y0059371D01*
X0132476Y0059345D01*
X0132545Y0059315D01*
X0132611Y0059282D01*
X0132676Y0059245D01*
X0132739Y0059205D01*
X0132800Y0059161D01*
X0132858Y0059115D01*
X0132914Y0059065D01*
X0132967Y0059013D01*
X0133018Y0058958D01*
X0133065Y0058900D01*
X0133109Y0058840D01*
X0133150Y0058777D01*
X0133188Y0058713D01*
X0133222Y0058647D01*
X0133253Y0058578D01*
X0133280Y0058509D01*
X0133303Y0058438D01*
X0133322Y0058366D01*
X0133338Y0058293D01*
X0133350Y0058219D01*
X0133358Y0058145D01*
X0133362Y0058070D01*
X0133362Y0057996D01*
X0133358Y0057921D01*
X0133350Y0057847D01*
X0133338Y0057773D01*
X0133322Y0057700D01*
X0133303Y0057628D01*
X0133280Y0057557D01*
X0133253Y0057488D01*
X0133222Y0057419D01*
X0133188Y0057353D01*
X0133150Y0057289D01*
X0133109Y0057226D01*
X0133065Y0057166D01*
X0133018Y0057108D01*
X0132967Y0057053D01*
X0132914Y0057001D01*
X0132858Y0056951D01*
X0132800Y0056905D01*
X0132739Y0056861D01*
X0132676Y0056821D01*
X0132611Y0056784D01*
X0132545Y0056751D01*
X0132476Y0056721D01*
X0132406Y0056695D01*
X0132335Y0056673D01*
X0132263Y0056654D01*
X0132189Y0056640D01*
X0132116Y0056629D01*
X0132041Y0056622D01*
X0131967Y0056619D01*
X0131892Y0056620D01*
X0131818Y0056625D01*
X0131743Y0056634D01*
X0131670Y0056647D01*
X0131597Y0056663D01*
X0131525Y0056684D01*
X0131455Y0056708D01*
X0131385Y0056736D01*
X0131318Y0056767D01*
X0131252Y0056802D01*
X0131188Y0056841D01*
X0131126Y0056883D01*
X0131066Y0056927D01*
X0131009Y0056976D01*
X0130955Y0057027D01*
X0130903Y0057080D01*
X0130854Y0057137D01*
X0130808Y0057196D01*
X0130766Y0057257D01*
X0130727Y0057321D01*
X0130691Y0057386D01*
X0130658Y0057453D01*
X0130629Y0057522D01*
X0130604Y0057593D01*
X0130583Y0057664D01*
X0130565Y0057737D01*
X0130552Y0057810D01*
X0130542Y0057884D01*
X0130536Y0057958D01*
X0130534Y0058033D01*
D11*
X0028630Y0036942D02*
X0028630Y0034473D01*
X0028630Y0035708D02*
X0032333Y0035708D01*
X0031099Y0034473D01*
X0029248Y0038156D02*
X0029248Y0038774D01*
X0028630Y0038774D01*
X0028630Y0038156D01*
X0029248Y0038156D01*
X0029248Y0039998D02*
X0028630Y0040615D01*
X0028630Y0041850D01*
X0029248Y0042467D01*
X0030482Y0042467D01*
X0031099Y0041850D01*
X0031099Y0041232D01*
X0030482Y0039998D01*
X0032333Y0039998D01*
X0032333Y0042467D01*
X0032333Y0043681D02*
X0028630Y0043681D01*
X0029865Y0043681D02*
X0031099Y0045533D01*
X0029865Y0043681D02*
X0028630Y0045533D01*
X0044630Y0028536D02*
X0045865Y0027302D01*
X0045865Y0027919D02*
X0045865Y0026067D01*
X0045865Y0024853D02*
X0045248Y0024853D01*
X0044630Y0024236D01*
X0044630Y0023001D01*
X0045248Y0022384D01*
X0045865Y0022384D01*
X0046482Y0023001D01*
X0046482Y0024236D01*
X0045865Y0024853D01*
X0046482Y0024236D02*
X0047099Y0024853D01*
X0047716Y0024853D01*
X0048333Y0024236D01*
X0048333Y0023001D01*
X0047716Y0022384D01*
X0047099Y0022384D01*
X0046482Y0023001D01*
X0045865Y0021170D02*
X0046482Y0020553D01*
X0046482Y0018701D01*
X0045248Y0018701D01*
X0044630Y0019318D01*
X0044630Y0020553D01*
X0045248Y0021170D01*
X0045865Y0021170D01*
X0047716Y0019935D02*
X0046482Y0018701D01*
X0047716Y0019935D02*
X0048333Y0021170D01*
X0048333Y0026067D02*
X0044630Y0026067D01*
X0045865Y0027919D02*
X0046482Y0028536D01*
X0047716Y0028536D01*
X0048333Y0027919D01*
X0048333Y0026067D01*
X0050998Y0050000D02*
X0050380Y0050618D01*
X0050380Y0051852D01*
X0050998Y0052469D01*
X0051615Y0052469D01*
X0052232Y0051852D01*
X0052232Y0050000D01*
X0050998Y0050000D01*
X0052232Y0050000D02*
X0053466Y0051235D01*
X0054083Y0052469D01*
X0053466Y0053684D02*
X0052849Y0053684D01*
X0052232Y0054301D01*
X0052232Y0055535D01*
X0051615Y0056152D01*
X0050998Y0056152D01*
X0050380Y0055535D01*
X0050380Y0054301D01*
X0050998Y0053684D01*
X0051615Y0053684D01*
X0052232Y0054301D01*
X0052232Y0055535D02*
X0052849Y0056152D01*
X0053466Y0056152D01*
X0054083Y0055535D01*
X0054083Y0054301D01*
X0053466Y0053684D01*
X0054083Y0057367D02*
X0050380Y0057367D01*
X0051615Y0057367D02*
X0051615Y0059218D01*
X0052232Y0059835D01*
X0053466Y0059835D01*
X0054083Y0059218D01*
X0054083Y0057367D01*
X0051615Y0058601D02*
X0050380Y0059835D01*
X0063163Y0069393D02*
X0066065Y0069393D01*
X0066065Y0070845D01*
X0065582Y0071328D01*
X0064614Y0071328D01*
X0064130Y0070845D01*
X0064130Y0069393D01*
X0064130Y0068382D02*
X0064130Y0066447D01*
X0066065Y0068382D01*
X0066549Y0068382D01*
X0067033Y0067898D01*
X0067033Y0066931D01*
X0066549Y0066447D01*
X0066549Y0065435D02*
X0067033Y0064952D01*
X0067033Y0063984D01*
X0066549Y0063500D01*
X0066549Y0065435D02*
X0066065Y0065435D01*
X0064130Y0063500D01*
X0064130Y0065435D01*
X0064130Y0072340D02*
X0067033Y0072340D01*
X0067033Y0074275D01*
X0065582Y0073307D02*
X0065582Y0072340D01*
X0073592Y0073550D02*
X0075527Y0073550D01*
X0074559Y0073550D02*
X0074559Y0076453D01*
X0075527Y0075485D01*
X0076538Y0075969D02*
X0077022Y0076453D01*
X0077990Y0076453D01*
X0078473Y0075969D01*
X0078473Y0074034D01*
X0077990Y0073550D01*
X0077022Y0073550D01*
X0076538Y0074034D01*
X0066299Y0084000D02*
X0066783Y0084484D01*
X0066783Y0085452D01*
X0066299Y0085935D01*
X0065815Y0085935D01*
X0063880Y0084000D01*
X0063880Y0085935D01*
X0063880Y0086947D02*
X0065815Y0088882D01*
X0066299Y0088882D01*
X0066783Y0088398D01*
X0066783Y0087431D01*
X0066299Y0086947D01*
X0063880Y0086947D02*
X0063880Y0088882D01*
X0063880Y0089893D02*
X0063880Y0091345D01*
X0064364Y0091828D01*
X0065332Y0091828D01*
X0065815Y0091345D01*
X0065815Y0089893D01*
X0062913Y0089893D01*
X0063880Y0092840D02*
X0066783Y0092840D01*
X0066783Y0094775D01*
X0065332Y0093807D02*
X0065332Y0092840D01*
X0072842Y0093800D02*
X0074777Y0093800D01*
X0072842Y0095735D01*
X0072842Y0096219D01*
X0073326Y0096703D01*
X0074293Y0096703D01*
X0074777Y0096219D01*
X0075788Y0096219D02*
X0076272Y0096703D01*
X0077240Y0096703D01*
X0077723Y0096219D01*
X0077723Y0094284D01*
X0077240Y0093800D01*
X0076272Y0093800D01*
X0075788Y0094284D01*
X0114283Y0048471D02*
X0114283Y0046536D01*
X0111380Y0046536D01*
X0111380Y0045525D02*
X0112832Y0045525D01*
X0113315Y0045041D01*
X0113315Y0043590D01*
X0111380Y0043590D01*
X0111864Y0042578D02*
X0111380Y0042095D01*
X0111380Y0041127D01*
X0111864Y0040643D01*
X0113799Y0042578D01*
X0111864Y0042578D01*
X0111864Y0040643D02*
X0113799Y0040643D01*
X0114283Y0041127D01*
X0114283Y0042095D01*
X0113799Y0042578D01*
X0113799Y0039632D02*
X0111864Y0039632D01*
X0111380Y0039148D01*
X0111380Y0038181D01*
X0111864Y0037697D01*
X0113799Y0039632D01*
X0114283Y0039148D01*
X0114283Y0038181D01*
X0113799Y0037697D01*
X0111864Y0037697D01*
X0111380Y0036685D02*
X0111380Y0034750D01*
X0111380Y0035718D02*
X0114283Y0035718D01*
X0113315Y0034750D01*
X0114283Y0033471D02*
X0114283Y0031536D01*
X0111380Y0031536D01*
X0111380Y0030525D02*
X0112832Y0030525D01*
X0113315Y0030041D01*
X0113315Y0028590D01*
X0111380Y0028590D01*
X0111864Y0027578D02*
X0111380Y0027095D01*
X0111380Y0026127D01*
X0111864Y0025643D01*
X0113799Y0027578D01*
X0111864Y0027578D01*
X0111864Y0025643D02*
X0113799Y0025643D01*
X0114283Y0026127D01*
X0114283Y0027095D01*
X0113799Y0027578D01*
X0113799Y0024632D02*
X0111864Y0024632D01*
X0111380Y0024148D01*
X0111380Y0023181D01*
X0111864Y0022697D01*
X0113799Y0024632D01*
X0114283Y0024148D01*
X0114283Y0023181D01*
X0113799Y0022697D01*
X0111864Y0022697D01*
X0111380Y0021685D02*
X0111380Y0019750D01*
X0111380Y0020718D02*
X0114283Y0020718D01*
X0113315Y0019750D01*
X0112832Y0031536D02*
X0112832Y0032504D01*
X0105830Y0032484D02*
X0105347Y0032000D01*
X0104379Y0032000D01*
X0103895Y0032484D01*
X0102884Y0032484D02*
X0102400Y0032000D01*
X0101433Y0032000D01*
X0100949Y0032484D01*
X0100949Y0034419D01*
X0101433Y0034903D01*
X0102400Y0034903D01*
X0102884Y0034419D01*
X0102884Y0033935D01*
X0102400Y0033452D01*
X0100949Y0033452D01*
X0103895Y0034419D02*
X0104379Y0034903D01*
X0105347Y0034903D01*
X0105830Y0034419D01*
X0105830Y0032484D01*
X0105719Y0044300D02*
X0105235Y0044784D01*
X0105719Y0044300D02*
X0106686Y0044300D01*
X0107170Y0044784D01*
X0107170Y0046719D01*
X0106686Y0047203D01*
X0105719Y0047203D01*
X0105235Y0046719D01*
X0104223Y0046235D02*
X0103256Y0047203D01*
X0103256Y0044300D01*
X0104223Y0044300D02*
X0102288Y0044300D01*
X0101277Y0044300D02*
X0099342Y0046235D01*
X0099342Y0046719D01*
X0099826Y0047203D01*
X0100793Y0047203D01*
X0101277Y0046719D01*
X0101277Y0044300D02*
X0099342Y0044300D01*
X0112832Y0046536D02*
X0112832Y0047504D01*
X0137960Y0059783D02*
X0139895Y0059783D01*
X0138927Y0059783D02*
X0138927Y0062685D01*
X0139895Y0061718D01*
X0140906Y0062201D02*
X0141390Y0062685D01*
X0142357Y0062685D01*
X0142841Y0062201D01*
X0142841Y0060266D01*
X0142357Y0059783D01*
X0141390Y0059783D01*
X0140906Y0060266D01*
X0143838Y0059783D02*
X0144805Y0059783D01*
X0144322Y0059783D02*
X0144322Y0062685D01*
X0144805Y0062685D02*
X0143838Y0062685D01*
X0143729Y0078283D02*
X0143246Y0078766D01*
X0143246Y0079250D01*
X0143729Y0079734D01*
X0145181Y0079734D01*
X0145181Y0078766D01*
X0144697Y0078283D01*
X0143729Y0078283D01*
X0142234Y0078766D02*
X0142234Y0079250D01*
X0141750Y0079734D01*
X0140783Y0079734D01*
X0140299Y0079250D01*
X0140299Y0078766D01*
X0140783Y0078283D01*
X0141750Y0078283D01*
X0142234Y0078766D01*
X0141750Y0079734D02*
X0142234Y0080218D01*
X0142234Y0080701D01*
X0141750Y0081185D01*
X0140783Y0081185D01*
X0140299Y0080701D01*
X0140299Y0080218D01*
X0140783Y0079734D01*
X0139288Y0079734D02*
X0137353Y0079734D01*
X0136341Y0079734D02*
X0134406Y0079734D01*
X0134406Y0080218D02*
X0134406Y0078283D01*
X0133395Y0078766D02*
X0132911Y0078283D01*
X0131943Y0078283D01*
X0131460Y0078766D01*
X0131460Y0081185D01*
X0133395Y0081185D02*
X0133395Y0078766D01*
X0134406Y0080218D02*
X0135374Y0081185D01*
X0136341Y0080218D01*
X0136341Y0078283D01*
X0143246Y0081185D02*
X0144213Y0080701D01*
X0145181Y0079734D01*
X0146192Y0079734D02*
X0148127Y0079734D01*
X0148127Y0080218D02*
X0147160Y0081185D01*
X0146192Y0080218D01*
X0146192Y0078283D01*
X0148127Y0078283D02*
X0148127Y0080218D01*
X0149139Y0080701D02*
X0149622Y0081185D01*
X0150590Y0081185D01*
X0151074Y0080701D01*
X0151074Y0078766D01*
X0150590Y0078283D01*
X0149622Y0078283D01*
X0149139Y0078766D01*
X0149139Y0079734D01*
X0150106Y0079734D01*
X0152085Y0081185D02*
X0154020Y0081185D01*
X0154020Y0078283D01*
X0152085Y0078283D01*
X0153053Y0079734D02*
X0154020Y0079734D01*
X0155032Y0081185D02*
X0155032Y0078283D01*
X0156967Y0078283D02*
X0156967Y0081185D01*
X0155999Y0080218D01*
X0155032Y0081185D01*
X0166359Y0060903D02*
X0168294Y0060903D01*
X0168294Y0058000D01*
X0169306Y0058000D02*
X0169306Y0059452D01*
X0169790Y0059935D01*
X0171241Y0059935D01*
X0171241Y0058000D01*
X0172252Y0058484D02*
X0172736Y0058000D01*
X0173704Y0058000D01*
X0174187Y0058484D01*
X0172252Y0060419D01*
X0172252Y0058484D01*
X0172252Y0060419D02*
X0172736Y0060903D01*
X0173704Y0060903D01*
X0174187Y0060419D01*
X0174187Y0058484D01*
X0175199Y0058484D02*
X0175683Y0058000D01*
X0176650Y0058000D01*
X0177134Y0058484D01*
X0175199Y0060419D01*
X0175199Y0058484D01*
X0177134Y0058484D02*
X0177134Y0060419D01*
X0176650Y0060903D01*
X0175683Y0060903D01*
X0175199Y0060419D01*
X0178145Y0058000D02*
X0180080Y0058000D01*
X0179113Y0058000D02*
X0179113Y0060903D01*
X0180080Y0059935D01*
X0168294Y0059452D02*
X0167327Y0059452D01*
D12*
X0136980Y0031900D02*
X0116980Y0031900D01*
X0119356Y0022002D02*
X0118622Y0021268D01*
X0118622Y0019800D01*
X0118622Y0020901D02*
X0120090Y0020901D01*
X0120090Y0021268D02*
X0119356Y0022002D01*
X0120090Y0021268D02*
X0120090Y0019800D01*
X0120832Y0020167D02*
X0121199Y0019800D01*
X0121933Y0019800D01*
X0122300Y0020167D01*
X0123042Y0020167D02*
X0123409Y0019800D01*
X0124143Y0019800D01*
X0124510Y0020167D01*
X0124510Y0021635D01*
X0124143Y0022002D01*
X0123409Y0022002D01*
X0123042Y0021635D01*
X0122300Y0021635D02*
X0121933Y0022002D01*
X0121199Y0022002D01*
X0120832Y0021635D01*
X0121199Y0020901D02*
X0120832Y0020534D01*
X0120832Y0020167D01*
X0121199Y0020901D02*
X0121933Y0020901D01*
X0122300Y0021268D01*
X0122300Y0021635D01*
X0125252Y0019800D02*
X0126720Y0019800D01*
X0125986Y0019800D02*
X0125986Y0022002D01*
X0126720Y0021268D01*
X0127462Y0021268D02*
X0127829Y0020901D01*
X0128563Y0020901D01*
X0128930Y0021268D01*
X0128930Y0021635D01*
X0128563Y0022002D01*
X0127829Y0022002D01*
X0127462Y0021635D01*
X0127462Y0021268D01*
X0127829Y0020901D02*
X0127462Y0020534D01*
X0127462Y0020167D01*
X0127829Y0019800D01*
X0128563Y0019800D01*
X0128930Y0020167D01*
X0128930Y0020534D01*
X0128563Y0020901D01*
X0129672Y0020901D02*
X0131140Y0020901D01*
X0130039Y0022002D01*
X0130039Y0019800D01*
X0131882Y0019800D02*
X0133350Y0022002D01*
X0134092Y0021268D02*
X0134092Y0019800D01*
X0133350Y0019800D02*
X0131882Y0022002D01*
X0134092Y0021268D02*
X0134825Y0022002D01*
X0135559Y0021268D01*
X0135559Y0019800D01*
X0136301Y0019800D02*
X0136301Y0022002D01*
X0137035Y0021268D01*
X0137769Y0022002D01*
X0137769Y0019800D01*
X0135559Y0020901D02*
X0134092Y0020901D01*
X0026118Y0049828D02*
X0025384Y0050195D01*
X0024650Y0050928D01*
X0025751Y0050928D01*
X0026118Y0051295D01*
X0026118Y0051662D01*
X0025751Y0052029D01*
X0025017Y0052029D01*
X0024650Y0051662D01*
X0024650Y0050928D01*
X0023908Y0050195D02*
X0022440Y0051662D01*
X0022440Y0052029D01*
X0023908Y0052029D01*
X0023908Y0050195D02*
X0023908Y0049828D01*
X0022440Y0049828D01*
X0021698Y0050195D02*
X0021331Y0049828D01*
X0020597Y0049828D01*
X0020230Y0050195D01*
X0020230Y0051662D01*
X0020597Y0052029D01*
X0021331Y0052029D01*
X0021698Y0051662D01*
X0019488Y0051662D02*
X0019488Y0050195D01*
X0018021Y0051662D01*
X0018388Y0052029D01*
X0019122Y0052029D01*
X0019488Y0051662D01*
X0018021Y0051662D02*
X0018021Y0050195D01*
X0018388Y0049828D01*
X0019122Y0049828D01*
X0019488Y0050195D01*
X0017279Y0050195D02*
X0017279Y0050561D01*
X0015811Y0052029D01*
X0017279Y0052029D01*
X0017279Y0050195D02*
X0016912Y0049828D01*
X0016178Y0049828D01*
X0015811Y0050195D01*
X0015069Y0050195D02*
X0015069Y0050561D01*
X0013601Y0052029D01*
X0015069Y0052029D01*
X0015069Y0050195D02*
X0014702Y0049828D01*
X0013968Y0049828D01*
X0013601Y0050195D01*
X0012859Y0050928D02*
X0011391Y0050928D01*
X0012492Y0049828D01*
X0012492Y0052029D01*
X0010649Y0050928D02*
X0010649Y0050195D01*
X0010282Y0049828D01*
X0009181Y0049828D01*
X0009181Y0052029D01*
X0009181Y0051295D02*
X0010282Y0051295D01*
X0010649Y0050928D01*
X0008442Y0049828D02*
X0007708Y0049828D01*
X0008075Y0049828D02*
X0008075Y0052029D01*
X0007708Y0052029D02*
X0008442Y0052029D01*
D13*
X0012580Y0065797D02*
X0013781Y0065797D01*
X0013180Y0065797D02*
X0013180Y0069400D01*
X0012580Y0069400D02*
X0013781Y0069400D01*
X0015035Y0068799D02*
X0015635Y0069400D01*
X0016837Y0069400D01*
X0017437Y0068799D01*
X0018718Y0068799D02*
X0019319Y0069400D01*
X0020520Y0069400D01*
X0021120Y0068799D01*
X0021120Y0068199D01*
X0020520Y0067598D01*
X0019919Y0067598D01*
X0020520Y0067598D02*
X0021120Y0066998D01*
X0021120Y0066397D01*
X0020520Y0065797D01*
X0019319Y0065797D01*
X0018718Y0066397D01*
X0017437Y0066397D02*
X0016837Y0065797D01*
X0015635Y0065797D01*
X0015035Y0066397D01*
X0015035Y0068799D01*
X0037357Y0059800D02*
X0040426Y0059800D01*
X0038892Y0059800D02*
X0038892Y0064404D01*
X0040426Y0062870D01*
X0041961Y0063637D02*
X0041961Y0062102D01*
X0042728Y0061335D01*
X0045030Y0061335D01*
X0043496Y0061335D02*
X0041961Y0059800D01*
X0045030Y0059800D02*
X0045030Y0064404D01*
X0042728Y0064404D01*
X0041961Y0063637D01*
X0042728Y0050404D02*
X0041961Y0049637D01*
X0041961Y0048102D01*
X0042728Y0047335D01*
X0045030Y0047335D01*
X0043496Y0047335D02*
X0041961Y0045800D01*
X0040426Y0046568D02*
X0039659Y0045800D01*
X0038124Y0045800D01*
X0037357Y0046568D01*
X0037357Y0047335D01*
X0038124Y0048102D01*
X0038892Y0048102D01*
X0038124Y0048102D02*
X0037357Y0048870D01*
X0037357Y0049637D01*
X0038124Y0050404D01*
X0039659Y0050404D01*
X0040426Y0049637D01*
X0042728Y0050404D02*
X0045030Y0050404D01*
X0045030Y0045800D01*
X0053624Y0034154D02*
X0055159Y0034154D01*
X0055926Y0033387D01*
X0057461Y0033387D02*
X0057461Y0031852D01*
X0058228Y0031085D01*
X0060530Y0031085D01*
X0058996Y0031085D02*
X0057461Y0029550D01*
X0055926Y0029550D02*
X0052857Y0032620D01*
X0052857Y0033387D01*
X0053624Y0034154D01*
X0057461Y0033387D02*
X0058228Y0034154D01*
X0060530Y0034154D01*
X0060530Y0029550D01*
X0055926Y0029550D02*
X0052857Y0029550D01*
X0119811Y0029952D02*
X0119811Y0030553D01*
X0120412Y0031153D01*
X0121613Y0031153D01*
X0122213Y0030553D01*
X0123495Y0030553D02*
X0124095Y0031153D01*
X0125296Y0031153D01*
X0125897Y0030553D01*
X0125897Y0028151D01*
X0125296Y0027550D01*
X0124095Y0027550D01*
X0123495Y0028151D01*
X0122213Y0027550D02*
X0119811Y0029952D01*
X0119811Y0027550D02*
X0122213Y0027550D01*
X0127151Y0027550D02*
X0128352Y0027550D01*
X0127752Y0027550D02*
X0127752Y0031153D01*
X0128352Y0031153D02*
X0127151Y0031153D01*
X0172676Y0077300D02*
X0172676Y0078068D01*
X0169607Y0081137D01*
X0169607Y0081904D01*
X0172676Y0081904D01*
X0174211Y0081137D02*
X0174978Y0081904D01*
X0176513Y0081904D01*
X0177280Y0081137D01*
X0177280Y0078068D01*
X0176513Y0077300D01*
X0174978Y0077300D01*
X0174211Y0078068D01*
X0186180Y0071362D02*
X0187715Y0069060D01*
X0189250Y0071362D01*
X0190784Y0069060D02*
X0186180Y0069060D01*
X0190017Y0067526D02*
X0186948Y0064456D01*
X0186180Y0064456D01*
X0186180Y0062922D02*
X0186180Y0062154D01*
X0186948Y0062154D01*
X0186948Y0062922D01*
X0186180Y0062922D01*
X0186180Y0059852D02*
X0190784Y0059852D01*
X0188482Y0057550D01*
X0188482Y0060620D01*
X0190784Y0064456D02*
X0190784Y0067526D01*
X0190017Y0067526D01*
X0199180Y0068293D02*
X0203784Y0068293D01*
X0202250Y0066758D01*
X0203784Y0063689D02*
X0199180Y0063689D01*
X0199180Y0062154D02*
X0199180Y0065224D01*
X0199180Y0066758D02*
X0199180Y0069828D01*
X0203784Y0063689D02*
X0202250Y0062154D01*
X0203017Y0060620D02*
X0201482Y0060620D01*
X0200715Y0059852D01*
X0200715Y0057550D01*
X0199180Y0057550D02*
X0203784Y0057550D01*
X0203784Y0059852D01*
X0203017Y0060620D01*
X0200715Y0059085D02*
X0199180Y0060620D01*
X0198134Y0052904D02*
X0195065Y0052904D01*
X0196600Y0050602D02*
X0198134Y0050602D01*
X0199669Y0050602D02*
X0199669Y0048300D01*
X0198134Y0048300D02*
X0198134Y0052904D01*
X0200436Y0051370D02*
X0199669Y0050602D01*
X0200436Y0051370D02*
X0202738Y0051370D01*
X0202738Y0048300D01*
X0204273Y0049068D02*
X0204273Y0052137D01*
X0207342Y0049068D01*
X0206575Y0048300D01*
X0205040Y0048300D01*
X0204273Y0049068D01*
X0204273Y0052137D02*
X0205040Y0052904D01*
X0206575Y0052904D01*
X0207342Y0052137D01*
X0207342Y0049068D01*
X0208877Y0049068D02*
X0208877Y0052137D01*
X0211946Y0049068D01*
X0211179Y0048300D01*
X0209644Y0048300D01*
X0208877Y0049068D01*
X0208877Y0052137D02*
X0209644Y0052904D01*
X0211179Y0052904D01*
X0211946Y0052137D01*
X0211946Y0049068D01*
X0213481Y0048300D02*
X0216550Y0048300D01*
X0215015Y0048300D02*
X0215015Y0052904D01*
X0216550Y0051370D01*
X0205971Y0040154D02*
X0206738Y0039387D01*
X0206738Y0036318D01*
X0205971Y0035550D01*
X0204436Y0035550D01*
X0203669Y0036318D01*
X0202134Y0036318D02*
X0202134Y0037085D01*
X0201367Y0037852D01*
X0199832Y0037852D01*
X0199065Y0037085D01*
X0199065Y0036318D01*
X0199832Y0035550D01*
X0201367Y0035550D01*
X0202134Y0036318D01*
X0201367Y0037852D02*
X0202134Y0038620D01*
X0202134Y0039387D01*
X0201367Y0040154D01*
X0199832Y0040154D01*
X0199065Y0039387D01*
X0199065Y0038620D01*
X0199832Y0037852D01*
X0203669Y0039387D02*
X0204436Y0040154D01*
X0205971Y0040154D01*
X0208430Y0110050D02*
X0213034Y0110050D01*
X0213034Y0112352D01*
X0212267Y0113120D01*
X0210732Y0113120D01*
X0209965Y0112352D01*
X0209965Y0110050D01*
X0209965Y0111585D02*
X0208430Y0113120D01*
X0208430Y0114654D02*
X0208430Y0117724D01*
X0208430Y0116189D02*
X0213034Y0116189D01*
X0211500Y0114654D01*
X0212267Y0119258D02*
X0209198Y0119258D01*
X0212267Y0122328D01*
X0209198Y0122328D01*
X0208430Y0121560D01*
X0208430Y0120026D01*
X0209198Y0119258D01*
X0212267Y0119258D02*
X0213034Y0120026D01*
X0213034Y0121560D01*
X0212267Y0122328D01*
X0200034Y0121560D02*
X0200034Y0120026D01*
X0199267Y0119258D01*
X0196198Y0119258D01*
X0199267Y0122328D01*
X0196198Y0122328D01*
X0195430Y0121560D01*
X0195430Y0120026D01*
X0196198Y0119258D01*
X0196198Y0117724D02*
X0199267Y0117724D01*
X0200034Y0116956D01*
X0200034Y0115422D01*
X0199267Y0114654D01*
X0198500Y0114654D01*
X0197732Y0115422D01*
X0197732Y0117724D01*
X0196198Y0117724D02*
X0195430Y0116956D01*
X0195430Y0115422D01*
X0196198Y0114654D01*
X0196198Y0113120D02*
X0195430Y0112352D01*
X0195430Y0110818D01*
X0196198Y0110050D01*
X0194534Y0111050D02*
X0194534Y0113352D01*
X0193767Y0114120D01*
X0192232Y0114120D01*
X0191465Y0113352D01*
X0191465Y0111050D01*
X0189930Y0111050D02*
X0194534Y0111050D01*
X0196198Y0113120D02*
X0196965Y0113120D01*
X0197732Y0112352D01*
X0197732Y0111585D01*
X0197732Y0112352D02*
X0198500Y0113120D01*
X0199267Y0113120D01*
X0200034Y0112352D01*
X0200034Y0110818D01*
X0199267Y0110050D01*
X0193767Y0115654D02*
X0193000Y0115654D01*
X0192232Y0116422D01*
X0192232Y0118724D01*
X0190698Y0118724D02*
X0189930Y0117956D01*
X0189930Y0116422D01*
X0190698Y0115654D01*
X0189930Y0114120D02*
X0191465Y0112585D01*
X0193767Y0115654D02*
X0194534Y0116422D01*
X0194534Y0117956D01*
X0193767Y0118724D01*
X0190698Y0118724D01*
X0181534Y0117956D02*
X0181534Y0116422D01*
X0180767Y0115654D01*
X0180000Y0115654D01*
X0179232Y0116422D01*
X0179232Y0118724D01*
X0177698Y0118724D02*
X0176930Y0117956D01*
X0176930Y0116422D01*
X0177698Y0115654D01*
X0177698Y0114120D02*
X0176930Y0113352D01*
X0176930Y0111818D01*
X0177698Y0111050D01*
X0179232Y0112585D02*
X0179232Y0113352D01*
X0178465Y0114120D01*
X0177698Y0114120D01*
X0179232Y0113352D02*
X0180000Y0114120D01*
X0180767Y0114120D01*
X0181534Y0113352D01*
X0181534Y0111818D01*
X0180767Y0111050D01*
X0181534Y0117956D02*
X0180767Y0118724D01*
X0177698Y0118724D01*
X0177698Y0120258D02*
X0180767Y0123328D01*
X0177698Y0123328D01*
X0176930Y0122560D01*
X0176930Y0121026D01*
X0177698Y0120258D01*
X0180767Y0120258D01*
X0181534Y0121026D01*
X0181534Y0122560D01*
X0180767Y0123328D01*
X0173784Y0117956D02*
X0173017Y0118724D01*
X0172250Y0118724D01*
X0171482Y0117956D01*
X0171482Y0116422D01*
X0172250Y0115654D01*
X0173017Y0115654D01*
X0173784Y0116422D01*
X0173784Y0117956D01*
X0171482Y0117956D02*
X0170715Y0118724D01*
X0169948Y0118724D01*
X0169180Y0117956D01*
X0169180Y0116422D01*
X0169948Y0115654D01*
X0170715Y0115654D01*
X0171482Y0116422D01*
X0171482Y0114120D02*
X0170715Y0113352D01*
X0170715Y0111050D01*
X0169180Y0111050D02*
X0173784Y0111050D01*
X0173784Y0113352D01*
X0173017Y0114120D01*
X0171482Y0114120D01*
X0170715Y0112585D02*
X0169180Y0114120D01*
X0160784Y0113352D02*
X0160017Y0114120D01*
X0159250Y0114120D01*
X0158482Y0113352D01*
X0157715Y0114120D01*
X0156948Y0114120D01*
X0156180Y0113352D01*
X0156180Y0111818D01*
X0156948Y0111050D01*
X0158482Y0112585D02*
X0158482Y0113352D01*
X0160784Y0113352D02*
X0160784Y0111818D01*
X0160017Y0111050D01*
X0160017Y0115654D02*
X0159250Y0115654D01*
X0158482Y0116422D01*
X0158482Y0118724D01*
X0156948Y0118724D02*
X0160017Y0118724D01*
X0160784Y0117956D01*
X0160784Y0116422D01*
X0160017Y0115654D01*
X0156948Y0115654D02*
X0156180Y0116422D01*
X0156180Y0117956D01*
X0156948Y0118724D01*
X0156948Y0120258D02*
X0160017Y0123328D01*
X0156948Y0123328D01*
X0156180Y0122560D01*
X0156180Y0121026D01*
X0156948Y0120258D01*
X0160017Y0120258D01*
X0160784Y0121026D01*
X0160784Y0122560D01*
X0160017Y0123328D01*
X0142034Y0117724D02*
X0142034Y0114654D01*
X0141267Y0113120D02*
X0139732Y0113120D01*
X0138965Y0112352D01*
X0138965Y0110050D01*
X0137430Y0110050D02*
X0142034Y0110050D01*
X0142034Y0112352D01*
X0141267Y0113120D01*
X0138965Y0111585D02*
X0137430Y0113120D01*
X0137430Y0114654D02*
X0138198Y0114654D01*
X0141267Y0117724D01*
X0142034Y0117724D01*
X0129034Y0116956D02*
X0129034Y0115422D01*
X0128267Y0114654D01*
X0127500Y0114654D01*
X0126732Y0115422D01*
X0126732Y0117724D01*
X0125198Y0117724D02*
X0128267Y0117724D01*
X0129034Y0116956D01*
X0128267Y0119258D02*
X0125198Y0119258D01*
X0128267Y0122328D01*
X0125198Y0122328D01*
X0124430Y0121560D01*
X0124430Y0120026D01*
X0125198Y0119258D01*
X0125198Y0117724D02*
X0124430Y0116956D01*
X0124430Y0115422D01*
X0125198Y0114654D01*
X0125198Y0113120D02*
X0124430Y0112352D01*
X0124430Y0110818D01*
X0125198Y0110050D01*
X0126732Y0111585D02*
X0126732Y0112352D01*
X0125965Y0113120D01*
X0125198Y0113120D01*
X0126732Y0112352D02*
X0127500Y0113120D01*
X0128267Y0113120D01*
X0129034Y0112352D01*
X0129034Y0110818D01*
X0128267Y0110050D01*
X0128267Y0119258D02*
X0129034Y0120026D01*
X0129034Y0121560D01*
X0128267Y0122328D01*
X0199267Y0122328D02*
X0200034Y0121560D01*
M02*
