%
M48
M72
T01C0.0138
T02C0.0157
T03C0.0236
T04C0.0320
T05C0.0360
T06C0.0400
%
T01
X791Y1550
X3606Y1550
T02
X2710Y1463
X2454Y1857
X2198Y1463
X1942Y1857
X1686Y1463
T03
X1323Y3675
X4023Y2750
X7398Y3725
X8348Y3975
X8298Y2725
X10798Y1150
X14098Y3675
X15073Y4475
X16473Y5950
X14598Y6275
X14423Y6850
X13723Y6675
X12773Y4825
X11473Y5200
X15098Y9550
X15948Y8675
X12273Y11975
X10723Y11125
X17723Y16000
X20423Y13200
X10173Y18225
X923Y10075
T04
X4753Y14323
X5753Y14323
X8088Y13661
X9088Y13661
X9088Y16023
X8088Y16023
X10450Y16023
X11450Y16023
X12812Y16023
X13812Y16023
X13812Y13661
X12812Y13661
X16223Y14250
X17223Y14250
X19312Y15259
X20312Y15259
X19048Y17354
X18048Y17354
X17249Y19055
X16249Y19055
X15084Y20247
X14084Y20247
X12690Y20866
X11690Y20866
X10210Y20866
X9210Y20866
X7816Y20247
X6816Y20247
X5647Y19051
X4647Y19051
X3847Y17354
X2847Y17354
X2529Y15236
X1529Y15236
X8088Y18385
X9088Y18385
X12812Y18385
X13812Y18385
T05
X16348Y4825
X17348Y4825
X18348Y4825
T06
X19823Y3125
X20823Y3125
X20823Y2125
X19823Y2125
X19823Y1125
X20823Y1125
X17273Y1725
X15248Y1725
M30
