%
M48
M72
T01C0.0138
T02C0.0157
T03C0.0236
T04C0.0320
T05C0.0360
T06C0.0400
%
T01
X791Y1385
X3606Y1385
T02
X2710Y1298
X2454Y1692
X2198Y1298
X1942Y1692
X1686Y1298
T03
X1323Y3510
X4023Y2585
X5498Y4185
X8298Y2560
X8923Y1810
X10798Y985
X8348Y3810
X11473Y5035
X12773Y4660
X14048Y3510
X15073Y4285
X14598Y6110
X14423Y6685
X13723Y6510
X16723Y5785
X18073Y8485
X15123Y9610
X12273Y11810
X9648Y11260
X10173Y18060
X17723Y15835
X20423Y13035
X923Y9910
T04
X4753Y14158
X5753Y14158
X8088Y13496
X9088Y13496
X9088Y15858
X8088Y15858
X10450Y15858
X11450Y15858
X12812Y15858
X13812Y15858
X13812Y13496
X12812Y13496
X16223Y14085
X17223Y14085
X19312Y15094
X20312Y15094
X19048Y17189
X18048Y17189
X17249Y18890
X16249Y18890
X15084Y20082
X14084Y20082
X12690Y20701
X11690Y20701
X10210Y20701
X9210Y20701
X7816Y20082
X6816Y20082
X5647Y18886
X4647Y18886
X3847Y17189
X2847Y17189
X2529Y15071
X1529Y15071
X8088Y18220
X9088Y18220
X12812Y18220
X13812Y18220
X9698Y8885
X9698Y6885
T05
X16348Y4660
X17348Y4660
X18348Y4660
T06
X19823Y2960
X20823Y2960
X20823Y1960
X20823Y960
X19823Y960
X19823Y1960
X17273Y1560
X15248Y1560
M30
