G75*
%MOIN*%
%OFA0B0*%
%FSLAX25Y25*%
%IPPOS*%
%LPD*%
%AMOC8*
5,1,8,0,0,1.08239X$1,22.5*
%
%ADD10R,0.05000X0.02200*%
%ADD11R,0.02200X0.05000*%
%ADD12R,0.02600X0.08000*%
%ADD13R,0.05118X0.06299*%
%ADD14OC8,0.05600*%
%ADD15R,0.06400X0.06400*%
%ADD16OC8,0.06400*%
%ADD17R,0.05906X0.05118*%
%ADD18R,0.06299X0.05118*%
%ADD19R,0.05118X0.05906*%
%ADD20OC8,0.10000*%
%ADD21R,0.14961X0.05512*%
%ADD22R,0.14961X0.04724*%
%ADD23C,0.06000*%
%ADD24R,0.03937X0.05512*%
%ADD25C,0.03975*%
%ADD26C,0.03819*%
%ADD27C,0.01600*%
%ADD28C,0.02400*%
%ADD29C,0.01200*%
%ADD30C,0.03200*%
%ADD31R,0.03562X0.03562*%
%ADD32C,0.03562*%
D10*
X0125848Y0058875D03*
X0125848Y0062025D03*
X0125848Y0065175D03*
X0125848Y0068324D03*
X0125848Y0071474D03*
X0125848Y0074623D03*
X0125848Y0077773D03*
X0125848Y0080923D03*
X0159648Y0080923D03*
X0159648Y0077773D03*
X0159648Y0074623D03*
X0159648Y0071474D03*
X0159648Y0068324D03*
X0159648Y0065175D03*
X0159648Y0062025D03*
X0159648Y0058875D03*
D11*
X0153772Y0052999D03*
X0150622Y0052999D03*
X0147472Y0052999D03*
X0144323Y0052999D03*
X0141173Y0052999D03*
X0138024Y0052999D03*
X0134874Y0052999D03*
X0131724Y0052999D03*
X0131724Y0086799D03*
X0134874Y0086799D03*
X0138024Y0086799D03*
X0141173Y0086799D03*
X0144323Y0086799D03*
X0147472Y0086799D03*
X0150622Y0086799D03*
X0153772Y0086799D03*
D12*
X0134480Y0038767D03*
X0129480Y0038767D03*
X0124480Y0038767D03*
X0119480Y0038767D03*
X0119480Y0014567D03*
X0124480Y0014567D03*
X0129480Y0014567D03*
X0134480Y0014567D03*
D13*
X0062720Y0026667D03*
X0055240Y0026667D03*
X0055240Y0046667D03*
X0062720Y0046667D03*
X0062470Y0068417D03*
X0054990Y0068417D03*
D14*
X0080876Y0136025D03*
X0090876Y0136025D03*
X0090876Y0159647D03*
X0080876Y0159647D03*
X0104498Y0159647D03*
X0114498Y0159647D03*
X0128120Y0159647D03*
X0138120Y0159647D03*
X0162230Y0141917D03*
X0172230Y0141917D03*
X0193120Y0152009D03*
X0203120Y0152009D03*
X0190482Y0172954D03*
X0180482Y0172954D03*
X0172490Y0189962D03*
X0162490Y0189962D03*
X0150837Y0201891D03*
X0140837Y0201891D03*
X0126900Y0208072D03*
X0116900Y0208072D03*
X0102096Y0208072D03*
X0092096Y0208072D03*
X0078159Y0201891D03*
X0068159Y0201891D03*
X0056467Y0189923D03*
X0046467Y0189923D03*
X0038474Y0172954D03*
X0028474Y0172954D03*
X0025285Y0151773D03*
X0015285Y0151773D03*
X0047526Y0142647D03*
X0057526Y0142647D03*
X0080876Y0183269D03*
X0090876Y0183269D03*
X0128120Y0183269D03*
X0138120Y0183269D03*
X0138120Y0136025D03*
X0128120Y0136025D03*
D15*
X0208230Y0010667D03*
D16*
X0198230Y0010667D03*
X0198230Y0020667D03*
X0198230Y0030667D03*
X0208230Y0030667D03*
X0208230Y0020667D03*
D17*
X0173730Y0065927D03*
X0173730Y0073407D03*
D18*
X0194980Y0066157D03*
X0194980Y0058677D03*
X0206730Y0111927D03*
X0206730Y0119407D03*
X0185730Y0119657D03*
X0185730Y0112177D03*
X0164980Y0112177D03*
X0164980Y0119657D03*
X0133230Y0118657D03*
X0133230Y0111177D03*
D19*
X0110470Y0058667D03*
X0102990Y0058667D03*
X0102990Y0043917D03*
X0110470Y0043917D03*
X0198240Y0045167D03*
X0205720Y0045167D03*
D20*
X0172730Y0016667D03*
X0152480Y0016667D03*
D21*
X0107230Y0080667D03*
D22*
X0107230Y0070667D03*
X0107230Y0090667D03*
D23*
X0163480Y0050667D02*
X0163480Y0044667D01*
X0173480Y0044667D02*
X0173480Y0050667D01*
X0183480Y0050667D02*
X0183480Y0044667D01*
D24*
X0036970Y0057997D03*
X0029490Y0057997D03*
X0033230Y0049336D03*
X0016970Y0057747D03*
X0009490Y0057747D03*
X0013230Y0049086D03*
D25*
X0019421Y0017988D03*
X0016862Y0014051D03*
X0021980Y0014051D03*
X0024539Y0017988D03*
X0027098Y0014051D03*
D26*
X0007906Y0013007D02*
X0007906Y0016826D01*
X0036055Y0016826D02*
X0036055Y0013007D01*
D27*
X0024539Y0017988D02*
X0024480Y0042167D01*
X0033230Y0049336D01*
X0055240Y0046667D01*
X0054990Y0068417D01*
X0055240Y0026917D02*
X0040230Y0026917D01*
X0055240Y0026917D02*
X0055240Y0026667D01*
X0013230Y0036167D02*
X0013230Y0049086D01*
X0107230Y0070667D02*
X0112980Y0070667D01*
X0120230Y0077917D01*
X0125730Y0077917D01*
X0125874Y0077773D01*
X0125848Y0077773D01*
X0125874Y0077773D02*
X0125980Y0077667D01*
X0126230Y0074667D02*
X0143230Y0074667D01*
X0143230Y0077773D01*
X0159648Y0077773D01*
X0159480Y0080917D02*
X0213480Y0080917D01*
X0213480Y0020667D01*
X0208230Y0020667D01*
X0203230Y0024917D02*
X0203230Y0005167D01*
X0134480Y0005167D01*
X0129480Y0014567D02*
X0129480Y0022667D01*
X0152480Y0022667D01*
X0152480Y0016667D01*
X0144230Y0028667D02*
X0144230Y0052999D01*
X0144323Y0052999D01*
X0141173Y0052999D02*
X0141173Y0051474D01*
X0141230Y0051417D01*
X0140980Y0050167D01*
X0140980Y0036167D01*
X0134730Y0038767D02*
X0134730Y0052999D01*
X0134874Y0052999D01*
X0137980Y0053167D02*
X0138024Y0053123D01*
X0138024Y0052999D01*
X0134980Y0065667D02*
X0134980Y0068417D01*
X0135230Y0068417D01*
X0135230Y0068324D01*
X0159648Y0068324D01*
X0170573Y0068324D01*
X0173480Y0065417D01*
X0173730Y0065667D01*
X0173730Y0065927D01*
X0173730Y0065417D01*
X0173980Y0065417D01*
X0171537Y0071474D02*
X0173730Y0073667D01*
X0173730Y0073407D01*
X0171537Y0071474D02*
X0159648Y0071474D01*
X0159480Y0080917D02*
X0159480Y0080923D01*
X0159648Y0080923D01*
X0159480Y0086167D02*
X0154230Y0086167D01*
X0153730Y0086667D01*
X0153772Y0086708D01*
X0153772Y0086799D01*
X0150730Y0087167D02*
X0150480Y0086917D01*
X0150598Y0086799D01*
X0150622Y0086799D01*
X0150730Y0087167D02*
X0150980Y0094917D01*
X0125848Y0080923D02*
X0119480Y0080917D01*
X0113480Y0090667D01*
X0107230Y0090667D01*
X0120730Y0074417D02*
X0120230Y0073917D01*
X0120230Y0070417D01*
X0113980Y0064167D01*
X0110470Y0060657D01*
X0110470Y0058667D01*
X0110470Y0058427D01*
X0110480Y0058417D01*
X0110470Y0058407D01*
X0110470Y0043917D01*
X0109980Y0043917D01*
X0109980Y0018667D01*
X0108230Y0016917D01*
X0107980Y0016917D01*
X0107980Y0011417D01*
X0109980Y0018417D02*
X0116230Y0012167D01*
X0118980Y0012167D01*
X0119480Y0012667D01*
X0119480Y0014567D01*
X0119230Y0014567D01*
X0124480Y0014567D02*
X0124480Y0025917D01*
X0172730Y0025917D01*
X0172730Y0016667D01*
X0172709Y0012938D02*
X0172730Y0012917D01*
X0192230Y0020417D02*
X0164980Y0036667D01*
X0150730Y0044167D01*
X0150622Y0048417D02*
X0163480Y0048417D01*
X0163480Y0047667D01*
X0157230Y0053417D02*
X0153980Y0053417D01*
X0153980Y0053208D01*
X0153772Y0052999D01*
X0157230Y0053417D02*
X0159480Y0055667D01*
X0170480Y0055667D01*
X0173356Y0052791D01*
X0173356Y0052792D01*
X0173480Y0052917D01*
X0173480Y0047667D01*
X0173480Y0052667D02*
X0173356Y0052791D01*
X0173480Y0052667D02*
X0180980Y0060167D01*
X0189980Y0066167D01*
X0190980Y0066157D01*
X0194980Y0066157D01*
X0194980Y0058677D02*
X0189730Y0058917D01*
X0183480Y0053667D01*
X0183480Y0047667D01*
X0198240Y0045167D02*
X0198240Y0030667D01*
X0198230Y0030667D01*
X0203230Y0024917D01*
X0198230Y0020667D02*
X0192230Y0020417D01*
X0207730Y0030667D02*
X0207730Y0035917D01*
X0205720Y0035917D01*
X0205720Y0045167D01*
X0207730Y0030667D02*
X0208230Y0030667D01*
X0150622Y0048417D02*
X0150622Y0052999D01*
X0134980Y0065667D02*
X0134480Y0065667D01*
X0134480Y0065675D01*
X0125848Y0065175D01*
X0123988Y0065175D01*
X0123980Y0065167D01*
X0125848Y0068324D02*
X0120638Y0068324D01*
X0120230Y0067917D01*
X0120230Y0070417D01*
X0120730Y0074417D02*
X0125480Y0074417D01*
X0125687Y0074623D01*
X0125848Y0074623D01*
X0126230Y0074623D01*
X0126230Y0074667D01*
X0126480Y0071667D02*
X0126480Y0071474D01*
X0126480Y0071417D01*
X0134980Y0070917D01*
X0134980Y0068417D01*
X0126480Y0071474D02*
X0125848Y0071474D01*
X0129480Y0038767D02*
X0129480Y0028667D01*
X0144230Y0028667D01*
X0134730Y0038767D02*
X0134480Y0038767D01*
X0129480Y0014567D02*
X0129230Y0014567D01*
X0109980Y0018417D02*
X0109980Y0018667D01*
X0091480Y0159647D02*
X0090876Y0159647D01*
X0091480Y0159647D02*
X0091480Y0173167D01*
X0097980Y0173167D01*
X0097980Y0173667D01*
X0101730Y0173667D01*
X0101730Y0181667D01*
D28*
X0096980Y0080667D02*
X0107230Y0080667D01*
X0096980Y0080667D02*
X0096480Y0080667D01*
X0096480Y0058667D01*
X0102990Y0058667D01*
X0102990Y0043917D01*
X0102990Y0005167D01*
X0102990Y0004917D01*
X0102990Y0005167D02*
X0134480Y0005167D01*
X0134480Y0014567D01*
X0119480Y0014567D02*
X0119480Y0015917D01*
X0124480Y0038767D02*
X0129480Y0038767D01*
X0129730Y0038767D01*
X0129730Y0038917D01*
X0113980Y0064167D02*
X0112980Y0065167D01*
X0173980Y0065417D02*
X0180730Y0065417D01*
X0180730Y0076917D01*
X0203480Y0076917D01*
X0203480Y0063917D01*
X0199230Y0059667D01*
X0194980Y0059667D01*
X0194980Y0058677D01*
X0198240Y0058677D01*
X0198240Y0045167D01*
X0194980Y0058677D02*
X0194980Y0059167D01*
X0198230Y0030667D02*
X0198480Y0030667D01*
D29*
X0173980Y0065417D02*
X0172730Y0066667D01*
X0172480Y0066667D01*
X0170980Y0068167D01*
X0135230Y0068167D01*
X0134730Y0068667D01*
X0134730Y0070667D01*
X0133923Y0071474D01*
X0125848Y0071474D01*
X0125230Y0062167D02*
X0124980Y0061917D01*
X0121980Y0061917D01*
X0119980Y0059917D01*
X0119980Y0056167D01*
X0115230Y0051417D01*
X0114730Y0051417D01*
X0119480Y0046667D02*
X0132230Y0059167D01*
X0137980Y0059167D01*
X0137980Y0053167D01*
X0131724Y0052999D02*
X0131724Y0052411D01*
X0127730Y0047667D01*
X0119480Y0046667D02*
X0119480Y0038767D01*
X0125848Y0058875D02*
X0128689Y0058875D01*
X0131480Y0061667D01*
X0140230Y0061667D01*
X0140230Y0064167D01*
X0146480Y0061917D02*
X0159540Y0061917D01*
X0159648Y0062025D01*
X0159689Y0058917D02*
X0164730Y0058917D01*
X0159689Y0058917D02*
X0159648Y0058875D01*
X0147480Y0086799D02*
X0147480Y0101167D01*
X0155730Y0101167D01*
X0155730Y0094417D01*
X0206730Y0094417D01*
X0206730Y0111927D01*
X0206730Y0119407D02*
X0206730Y0131417D01*
X0185730Y0119657D02*
X0185730Y0167917D01*
X0190482Y0172669D01*
X0190482Y0172954D01*
X0177230Y0159417D02*
X0177230Y0124417D01*
X0172470Y0119657D01*
X0164980Y0119657D01*
X0164980Y0112177D02*
X0164730Y0112177D01*
X0164730Y0107667D01*
X0141230Y0107667D01*
X0141230Y0086799D01*
X0141173Y0086799D01*
X0144323Y0086799D02*
X0144480Y0086799D01*
X0144480Y0104417D01*
X0158980Y0104417D01*
X0158980Y0097167D01*
X0159230Y0097167D01*
X0159230Y0097667D01*
X0185730Y0097667D01*
X0185730Y0112177D01*
X0147480Y0086799D02*
X0147472Y0086799D01*
X0138024Y0086799D02*
X0137980Y0086799D01*
X0137980Y0111177D01*
X0133230Y0111177D01*
X0133230Y0118657D02*
X0133230Y0127167D01*
X0122730Y0119167D02*
X0082730Y0119167D01*
X0078480Y0125417D01*
X0011480Y0125417D01*
X0007730Y0128667D01*
X0007730Y0154167D01*
X0016230Y0164917D01*
X0016980Y0164917D01*
X0023230Y0158667D01*
X0023230Y0154167D01*
X0025480Y0151917D01*
X0025337Y0151773D01*
X0025285Y0151773D01*
X0028480Y0172917D02*
X0028474Y0172923D01*
X0027980Y0173417D01*
X0004730Y0173417D01*
X0003980Y0172667D01*
X0003980Y0127417D01*
X0011730Y0119667D01*
X0076980Y0119667D01*
X0091980Y0104667D01*
X0107980Y0104667D01*
X0122730Y0089917D01*
X0122730Y0089667D01*
X0125598Y0086799D01*
X0131724Y0086799D01*
X0134874Y0086799D02*
X0134874Y0094273D01*
X0131980Y0097167D01*
X0120730Y0097167D01*
X0107230Y0110667D01*
X0137980Y0086799D02*
X0137980Y0086667D01*
X0125848Y0062025D02*
X0125372Y0062025D01*
X0125230Y0062167D01*
X0083480Y0039167D02*
X0062470Y0060177D01*
X0062470Y0068417D01*
X0062720Y0026667D02*
X0082980Y0026667D01*
X0028474Y0172923D02*
X0028474Y0172954D01*
D30*
X0028474Y0172673D01*
X0029480Y0171667D01*
X0038474Y0172954D02*
X0056480Y0172954D01*
X0056480Y0189923D01*
X0056467Y0189923D01*
X0078230Y0189923D01*
X0078230Y0195667D01*
X0078230Y0196667D01*
X0102480Y0196667D01*
X0102480Y0208072D01*
X0102096Y0208072D01*
X0097230Y0214917D02*
X0202730Y0214917D01*
X0211230Y0209917D01*
X0211730Y0142667D01*
X0198730Y0142167D01*
X0192980Y0151917D01*
X0193073Y0152009D01*
X0193120Y0152009D01*
X0203120Y0152009D02*
X0203480Y0152009D01*
X0203480Y0172917D01*
X0203480Y0189962D01*
X0172490Y0189962D01*
X0172730Y0189962D01*
X0172730Y0201891D01*
X0150837Y0201891D01*
X0150980Y0201891D01*
X0150980Y0210667D01*
X0127230Y0210667D01*
X0127230Y0208072D01*
X0126900Y0208072D01*
X0116900Y0208072D02*
X0109730Y0208072D01*
X0109730Y0170667D01*
X0104230Y0170667D01*
X0104230Y0159647D01*
X0104498Y0159647D01*
X0099230Y0159647D01*
X0099230Y0147417D01*
X0080980Y0147417D01*
X0080980Y0136025D01*
X0080876Y0136025D01*
X0081230Y0136025D01*
X0081230Y0129917D01*
X0015230Y0129917D01*
X0015230Y0151773D01*
X0015285Y0151773D01*
X0025285Y0151773D02*
X0038480Y0151773D01*
X0038480Y0172954D01*
X0038474Y0172954D01*
X0078230Y0195667D02*
X0078230Y0201891D01*
X0078159Y0201891D01*
X0092096Y0208072D02*
X0092096Y0209783D01*
X0097230Y0214917D01*
X0123230Y0193167D02*
X0117230Y0187167D01*
X0117230Y0162917D01*
X0114230Y0159917D01*
X0114498Y0159649D01*
X0114498Y0159647D01*
X0114498Y0159149D01*
X0125980Y0147667D01*
X0137480Y0147667D01*
X0138230Y0148417D01*
X0137980Y0148417D01*
X0137980Y0159647D01*
X0138120Y0159647D01*
X0137980Y0148417D02*
X0137980Y0136025D01*
X0138120Y0136025D01*
X0137980Y0136025D02*
X0137980Y0135417D01*
X0133230Y0127167D02*
X0171480Y0127167D01*
X0171480Y0141917D01*
X0172230Y0141917D01*
X0162480Y0141917D02*
X0162480Y0172954D01*
X0127980Y0172954D01*
X0127980Y0183269D01*
X0128120Y0183269D01*
X0123230Y0193167D02*
X0134980Y0193167D01*
X0138120Y0190027D01*
X0138120Y0183269D01*
X0162480Y0172954D02*
X0180482Y0172954D01*
X0190230Y0172954D02*
X0190230Y0172917D01*
X0203480Y0172917D01*
X0190482Y0172954D02*
X0190230Y0172954D01*
X0190230Y0173167D01*
X0172730Y0189917D02*
X0172730Y0189962D01*
X0162480Y0141917D02*
X0162230Y0141917D01*
X0162480Y0141917D02*
X0162480Y0141167D01*
X0133230Y0127167D02*
X0090730Y0127167D01*
X0090730Y0130917D01*
X0091230Y0130917D01*
X0091230Y0136025D01*
X0090876Y0136025D01*
X0080980Y0136025D02*
X0080980Y0135667D01*
X0096980Y0080667D02*
X0029490Y0080667D01*
X0029490Y0057997D01*
X0009490Y0057747D02*
X0009490Y0080667D01*
X0029490Y0080667D01*
X0062720Y0046667D02*
X0073980Y0036667D01*
X0102990Y0005167D02*
X0016862Y0005417D01*
X0016862Y0014051D01*
D31*
X0107980Y0011417D03*
X0140980Y0036167D03*
X0150730Y0044167D03*
X0140230Y0064167D03*
X0127730Y0047667D03*
X0114730Y0051417D03*
X0150980Y0094917D03*
X0159480Y0086167D03*
X0122730Y0119167D03*
X0107230Y0110667D03*
X0177230Y0159417D03*
X0206730Y0131417D03*
X0101730Y0181667D03*
D32*
X0146480Y0061917D03*
X0164730Y0058917D03*
X0083480Y0039167D03*
X0073980Y0036667D03*
X0082980Y0026667D03*
X0040230Y0026917D03*
X0013230Y0036167D03*
M02*
