G75*
G70*
%OFA0B0*%
%FSLAX24Y24*%
%IPPOS*%
%LPD*%
%AMOC8*
5,1,8,0,0,1.08239X$1,22.5*
%
%ADD10OC8,0.1000*%
%ADD11OC8,0.0560*%
%ADD12R,0.0640X0.0640*%
%ADD13OC8,0.0640*%
%ADD14R,0.0436X0.0436*%
%ADD15C,0.0160*%
%ADD16C,0.0120*%
%ADD17C,0.0436*%
%ADD18C,0.0240*%
%ADD19C,0.0320*%
D10*
X002143Y003788D03*
X002968Y012038D03*
X016143Y003113D03*
X018168Y003113D03*
D11*
X014707Y015049D03*
X013707Y015049D03*
X013707Y017411D03*
X014707Y017411D03*
X017118Y015638D03*
X018118Y015638D03*
X020207Y016647D03*
X021207Y016647D03*
X019943Y018742D03*
X018943Y018742D03*
X018144Y020443D03*
X017144Y020443D03*
X015979Y021635D03*
X014979Y021635D03*
X013585Y022254D03*
X012585Y022254D03*
X011105Y022254D03*
X010105Y022254D03*
X008711Y021635D03*
X007711Y021635D03*
X006542Y020439D03*
X005542Y020439D03*
X004742Y018742D03*
X003742Y018742D03*
X003423Y016624D03*
X002423Y016624D03*
X005647Y015711D03*
X006647Y015711D03*
X008983Y015049D03*
X009983Y015049D03*
X009983Y017411D03*
X008983Y017411D03*
X011345Y017411D03*
X012345Y017411D03*
X013707Y019773D03*
X014707Y019773D03*
X009983Y019773D03*
X008983Y019773D03*
D12*
X021718Y002513D03*
D13*
X021718Y003513D03*
X021718Y004513D03*
X020718Y004513D03*
X020718Y003513D03*
X020718Y002513D03*
D14*
X018943Y006788D03*
X021543Y007188D03*
X016843Y010063D03*
X016068Y010938D03*
X013168Y013363D03*
X011618Y012513D03*
X015093Y007663D03*
X013668Y006213D03*
X012368Y006588D03*
X011193Y004938D03*
X013168Y004088D03*
X014893Y005563D03*
X006568Y007513D03*
X006443Y004213D03*
X001893Y002188D03*
X004343Y010863D03*
X018618Y017388D03*
X021568Y014588D03*
D15*
X001893Y002188D02*
X001893Y002088D01*
X012393Y002088D01*
X020668Y002088D01*
X020718Y002513D01*
X021718Y002513D02*
X022293Y002513D01*
X022243Y002538D01*
X022243Y010063D01*
X016843Y010063D01*
X016068Y010938D02*
X015943Y007813D01*
X017018Y006788D01*
X018943Y006788D01*
X020118Y007188D02*
X018493Y005563D01*
X014893Y005563D01*
X013168Y004088D02*
X011193Y004088D01*
X011193Y004938D01*
X010293Y004938D01*
X010293Y004913D01*
X008318Y004913D01*
X008318Y004188D01*
X006443Y004188D01*
X006443Y004213D01*
X006568Y007513D02*
X005668Y008238D01*
X005643Y008738D01*
X004918Y008738D01*
X020118Y007213D02*
X020118Y007188D01*
X020118Y007213D02*
X020143Y007188D01*
X021543Y007188D01*
D16*
X020743Y004513D02*
X020193Y003963D01*
X013268Y003963D01*
X013168Y004063D01*
X013168Y004088D01*
X013493Y006213D02*
X012568Y007138D01*
X012568Y013913D01*
X013693Y015038D01*
X013518Y014138D02*
X013468Y014088D01*
X013443Y014088D01*
X013168Y013813D01*
X013168Y013363D01*
X013518Y014138D02*
X018018Y014138D01*
X018468Y014588D01*
X021568Y014588D01*
X021943Y014088D02*
X022268Y014413D01*
X022268Y017363D01*
X021793Y017838D01*
X019168Y017838D01*
X018968Y018038D01*
X018968Y018738D01*
X018943Y018763D01*
X018943Y018763D01*
X018943Y018742D01*
X018618Y017388D02*
X014693Y017388D01*
X014707Y017402D01*
X014707Y017411D01*
X013718Y017363D02*
X013668Y017363D01*
X011518Y015213D01*
X011518Y013913D01*
X012068Y013363D01*
X012068Y011638D01*
X012043Y011613D01*
X008118Y011613D01*
X008093Y011638D01*
X008068Y011638D01*
X008068Y012188D01*
X005647Y014608D01*
X005647Y015711D01*
X008983Y015078D02*
X008983Y015049D01*
X008983Y015078D02*
X008993Y015088D01*
X009068Y015013D01*
X009068Y014213D01*
X010768Y012513D01*
X011618Y012513D01*
X015093Y012688D02*
X015668Y013263D01*
X017893Y013263D01*
X018718Y014088D01*
X021943Y014088D01*
X015093Y012688D02*
X015093Y007663D01*
X013668Y006213D02*
X013493Y006213D01*
X012368Y006588D02*
X010193Y006588D01*
X010193Y007388D01*
X008068Y009513D01*
X008068Y011638D01*
X020718Y004513D02*
X020743Y004513D01*
D17*
X012393Y002088D03*
D18*
X004918Y008738D02*
X004843Y008813D01*
X004843Y010688D01*
X004668Y010863D01*
X004343Y010863D01*
D19*
X005647Y015711D02*
X001995Y015711D01*
X001568Y016138D01*
X001568Y019413D01*
X002593Y020438D01*
X005518Y020438D01*
X005542Y020414D01*
X005542Y020439D01*
X005542Y020414D02*
X005543Y020413D01*
X004768Y019713D02*
X004018Y019713D01*
X003672Y018742D01*
X003742Y018742D01*
X003672Y018742D02*
X003643Y018713D01*
X004768Y019713D02*
X005043Y019438D01*
X006518Y019438D01*
X006828Y019773D01*
X008983Y019773D01*
X009003Y019773D01*
X009543Y020313D01*
X012743Y020313D01*
X013218Y020788D01*
X013218Y020813D01*
X014043Y021638D01*
X014993Y021638D01*
X014996Y021635D01*
X014979Y021635D01*
X014996Y021635D02*
X015018Y021613D01*
X016797Y020443D02*
X013718Y017363D01*
X013707Y017374D01*
X013707Y017411D01*
X015302Y016647D02*
X013704Y015049D01*
X013707Y015049D01*
X013704Y015049D02*
X013693Y015038D01*
X015302Y016647D02*
X020207Y016647D01*
X018943Y018713D02*
X018943Y018713D01*
X019018Y018788D01*
X019018Y022313D01*
X018518Y022813D01*
X012218Y022813D01*
X011893Y022488D01*
X011893Y021113D01*
X009618Y021113D01*
X009318Y022413D01*
X008968Y022763D01*
X007718Y022763D01*
X007711Y022756D01*
X007711Y021635D01*
X008983Y019773D02*
X008983Y017423D01*
X008993Y017413D01*
X008991Y017411D01*
X008983Y017411D01*
X009893Y016188D02*
X010468Y016188D01*
X010593Y016313D01*
X010593Y019088D01*
X010268Y019413D01*
X010268Y019513D01*
X010008Y019773D01*
X009983Y019773D01*
X009918Y016188D02*
X009993Y016113D01*
X009993Y015088D01*
X009954Y015049D01*
X009983Y015049D01*
X009954Y015049D02*
X009943Y015038D01*
X009918Y016188D02*
X009893Y016188D01*
X007118Y016188D01*
X006643Y015713D01*
X006645Y015711D01*
X006647Y015711D01*
X016797Y020443D02*
X017144Y020443D01*
X018943Y018742D02*
X018943Y018713D01*
M02*
