G75*
%MOIN*%
%OFA0B0*%
%FSLAX25Y25*%
%IPPOS*%
%LPD*%
%AMOC8*
5,1,8,0,0,1.08239X$1,22.5*
%
%ADD10OC8,0.05200*%
%ADD11R,0.06000X0.06000*%
%ADD12OC8,0.06000*%
%ADD13OC8,0.10000*%
%ADD14C,0.05600*%
%ADD15C,0.03575*%
%ADD16C,0.03819*%
%ADD17R,0.06299X0.07098*%
%ADD18R,0.05906X0.05512*%
%ADD19C,0.05200*%
%ADD20C,0.02400*%
%ADD21C,0.03200*%
%ADD22C,0.03562*%
%ADD23C,0.01600*%
%ADD24R,0.03562X0.03562*%
%ADD25C,0.01200*%
D10*
X0080876Y0134959D03*
X0090876Y0134959D03*
X0090876Y0158581D03*
X0080876Y0158581D03*
X0057526Y0141581D03*
X0047526Y0141581D03*
X0025285Y0150707D03*
X0015285Y0150707D03*
X0028474Y0171888D03*
X0038474Y0171888D03*
X0046467Y0188856D03*
X0056467Y0188856D03*
X0068159Y0200825D03*
X0078159Y0200825D03*
X0092096Y0207006D03*
X0102096Y0207006D03*
X0116900Y0207006D03*
X0126900Y0207006D03*
X0140837Y0200825D03*
X0150837Y0200825D03*
X0162490Y0188896D03*
X0172490Y0188896D03*
X0180482Y0171888D03*
X0190482Y0171888D03*
X0193120Y0150943D03*
X0203120Y0150943D03*
X0172230Y0140850D03*
X0162230Y0140850D03*
X0138120Y0134959D03*
X0128120Y0134959D03*
X0128120Y0158581D03*
X0138120Y0158581D03*
X0114498Y0158581D03*
X0104498Y0158581D03*
X0090876Y0182203D03*
X0080876Y0182203D03*
X0128120Y0182203D03*
X0138120Y0182203D03*
D11*
X0208230Y0009600D03*
D12*
X0198230Y0009600D03*
X0198230Y0019600D03*
X0208230Y0019600D03*
X0208230Y0029600D03*
X0198230Y0029600D03*
D13*
X0172730Y0015600D03*
X0152480Y0015600D03*
D14*
X0163480Y0043800D02*
X0163480Y0049400D01*
X0173480Y0049400D02*
X0173480Y0043800D01*
X0183480Y0043800D02*
X0183480Y0049400D01*
D15*
X0027098Y0012984D03*
X0024539Y0016921D03*
X0021980Y0012984D03*
X0019421Y0016921D03*
X0016862Y0012984D03*
D16*
X0007906Y0011941D02*
X0007906Y0015760D01*
X0036055Y0015760D02*
X0036055Y0011941D01*
D17*
X0051632Y0009850D03*
X0062829Y0009850D03*
D18*
X0058781Y0091992D03*
X0058781Y0109709D03*
X0027679Y0109709D03*
X0027679Y0091992D03*
D19*
X0096980Y0088850D03*
X0096980Y0068850D03*
D20*
X0058781Y0091992D02*
X0027679Y0091992D01*
X0027679Y0109709D02*
X0009230Y0109709D01*
X0009230Y0099100D01*
X0027679Y0109709D02*
X0058781Y0109709D01*
X0035980Y0014100D02*
X0036055Y0013850D01*
X0016862Y0012984D02*
X0007906Y0013234D01*
X0007906Y0013850D01*
D21*
X0007730Y0022350D01*
X0035980Y0022350D01*
X0035980Y0014100D01*
X0027230Y0012984D02*
X0027230Y0004600D01*
X0051632Y0004600D01*
X0051632Y0009850D01*
X0062829Y0009850D02*
X0073992Y0009850D01*
X0073992Y0009846D01*
X0073744Y0009840D01*
X0089230Y0009844D01*
X0107980Y0009850D01*
X0073980Y0010850D02*
X0073744Y0009840D01*
X0073980Y0010850D02*
X0054980Y0041850D01*
X0027230Y0012984D02*
X0027098Y0012984D01*
X0090480Y0134850D02*
X0090589Y0134959D01*
X0090980Y0135350D01*
X0090980Y0145600D01*
X0090230Y0146350D01*
X0089980Y0146350D01*
X0095730Y0146350D01*
X0096980Y0147600D01*
X0096980Y0175350D01*
X0093730Y0178600D01*
X0093730Y0179600D01*
X0091128Y0182203D01*
X0090876Y0182203D01*
X0086480Y0187600D02*
X0118480Y0187600D01*
X0123230Y0192350D01*
X0123230Y0192600D01*
X0131480Y0200850D01*
X0140980Y0200850D01*
X0141006Y0200825D01*
X0140837Y0200825D01*
X0141006Y0200825D02*
X0141230Y0200600D01*
X0159026Y0188896D02*
X0128230Y0158100D01*
X0128120Y0158211D01*
X0128120Y0158581D01*
X0144073Y0150943D02*
X0128089Y0134959D01*
X0128120Y0134959D01*
X0128089Y0134959D02*
X0127980Y0134850D01*
X0144073Y0150943D02*
X0193120Y0150943D01*
X0180480Y0171600D02*
X0180482Y0171602D01*
X0181230Y0172350D01*
X0181230Y0207600D01*
X0176230Y0212600D01*
X0113230Y0212600D01*
X0109980Y0209350D01*
X0109980Y0195600D01*
X0087230Y0195600D01*
X0084230Y0208600D01*
X0080730Y0212100D01*
X0068230Y0212100D01*
X0068159Y0212030D01*
X0068159Y0200825D01*
X0059333Y0182203D02*
X0056230Y0178850D01*
X0041480Y0178850D01*
X0038730Y0181600D01*
X0031230Y0181600D01*
X0027768Y0171888D01*
X0028474Y0171888D01*
X0027768Y0171888D02*
X0027480Y0171600D01*
X0016980Y0188850D02*
X0046230Y0188850D01*
X0046467Y0188614D01*
X0046467Y0188856D01*
X0046467Y0188614D02*
X0046480Y0188600D01*
X0059333Y0182203D02*
X0080876Y0182203D01*
X0081083Y0182203D01*
X0086480Y0187600D01*
X0080876Y0182203D02*
X0080876Y0158705D01*
X0080980Y0158600D01*
X0080961Y0158581D01*
X0080876Y0158581D01*
X0089980Y0146350D02*
X0062230Y0146350D01*
X0057480Y0141600D01*
X0057500Y0141581D01*
X0057526Y0141581D01*
X0047526Y0141581D02*
X0011000Y0141581D01*
X0006730Y0145850D01*
X0006730Y0178600D01*
X0016980Y0188850D01*
X0090589Y0134959D02*
X0090876Y0134959D01*
X0159026Y0188896D02*
X0162490Y0188896D01*
X0180482Y0171888D02*
X0180482Y0171602D01*
D22*
X0144230Y0066850D03*
X0145980Y0061100D03*
X0137230Y0065100D03*
X0167230Y0057850D03*
X0089230Y0018100D03*
X0082980Y0025600D03*
X0083480Y0038100D03*
X0054980Y0041850D03*
X0040230Y0025850D03*
X0013230Y0035100D03*
X0009230Y0099100D03*
D23*
X0003230Y0004350D02*
X0021980Y0004350D01*
X0021980Y0012984D01*
X0013230Y0029100D02*
X0003230Y0029100D01*
X0003230Y0004350D01*
X0013230Y0029100D02*
X0013230Y0035100D01*
X0040230Y0035100D01*
X0040230Y0025850D01*
X0089230Y0018100D02*
X0089230Y0009844D01*
X0107980Y0009850D02*
X0107980Y0005350D01*
X0191480Y0005350D01*
X0197480Y0009600D01*
X0198230Y0009600D01*
X0208230Y0009600D02*
X0213980Y0009600D01*
X0213480Y0009850D01*
X0213480Y0085100D01*
X0180730Y0084850D01*
X0151230Y0096100D02*
X0150730Y0062600D01*
X0150730Y0042850D01*
X0140480Y0035100D02*
X0192230Y0034850D01*
X0208230Y0034850D01*
X0208230Y0029600D01*
X0114480Y0158350D02*
X0114498Y0158368D01*
X0117480Y0161350D01*
X0117480Y0180850D01*
X0117230Y0180600D01*
X0101730Y0180600D01*
X0114498Y0158581D02*
X0114498Y0158368D01*
D24*
X0101730Y0180600D03*
X0122730Y0118100D03*
X0096480Y0112600D03*
X0151230Y0096100D03*
X0180730Y0084850D03*
X0150730Y0042850D03*
X0140480Y0035100D03*
X0127730Y0046600D03*
X0114730Y0050350D03*
X0107980Y0009850D03*
X0204230Y0130350D03*
X0177230Y0158350D03*
D25*
X0137980Y0158350D01*
X0138120Y0158490D01*
X0138120Y0158581D01*
X0128230Y0158100D02*
X0127730Y0158100D01*
X0107980Y0136100D01*
X0107980Y0107600D01*
X0077730Y0107600D01*
X0077980Y0050350D01*
X0114730Y0050350D01*
X0116730Y0055850D02*
X0116730Y0123600D01*
X0127980Y0134850D01*
X0126230Y0125850D02*
X0125730Y0125350D01*
X0125480Y0125350D01*
X0122730Y0122600D01*
X0122730Y0118100D01*
X0126230Y0125850D02*
X0171230Y0125850D01*
X0175730Y0130350D01*
X0204230Y0130350D01*
X0210480Y0125350D02*
X0213730Y0128600D01*
X0213730Y0158100D01*
X0208980Y0162850D01*
X0182730Y0162850D01*
X0180730Y0164850D01*
X0180730Y0171850D01*
X0180482Y0172098D01*
X0180482Y0171888D01*
X0180482Y0172098D02*
X0180480Y0172100D01*
X0178230Y0125350D02*
X0210480Y0125350D01*
X0178230Y0125350D02*
X0169980Y0117100D01*
X0147730Y0117100D01*
X0137230Y0117350D01*
X0137230Y0065100D01*
X0144230Y0066850D02*
X0134730Y0049100D01*
X0127980Y0037850D01*
X0083480Y0038100D01*
X0082980Y0025600D02*
X0130980Y0025350D01*
X0137730Y0039350D01*
X0144230Y0041100D01*
X0151480Y0038100D01*
X0155730Y0040100D01*
X0155730Y0051100D01*
X0159730Y0054850D01*
X0167230Y0054850D01*
X0167230Y0057850D01*
X0145980Y0061100D02*
X0127230Y0030850D01*
X0071230Y0030600D01*
X0071230Y0092100D01*
X0058890Y0092100D01*
X0058781Y0091992D01*
X0077730Y0107600D02*
X0077980Y0109100D01*
X0047526Y0130555D01*
X0047526Y0141581D01*
X0080876Y0135246D02*
X0080876Y0134959D01*
X0080876Y0135246D02*
X0080980Y0135350D01*
X0081730Y0134600D01*
X0081730Y0120350D01*
X0096480Y0112600D01*
X0116730Y0055850D02*
X0125980Y0046600D01*
X0127730Y0046600D01*
M02*
