G75*
%MOIN*%
%OFA0B0*%
%FSLAX25Y25*%
%IPPOS*%
%LPD*%
%AMOC8*
5,1,8,0,0,1.08239X$1,22.5*
%
%ADD10C,0.00500*%
D10*
X0008594Y0012986D02*
X0008594Y0017514D01*
X0008614Y0017238D02*
X0008612Y0017289D01*
X0008606Y0017341D01*
X0008597Y0017391D01*
X0008583Y0017441D01*
X0008566Y0017490D01*
X0008546Y0017537D01*
X0008522Y0017583D01*
X0008494Y0017626D01*
X0008464Y0017668D01*
X0008430Y0017707D01*
X0008394Y0017743D01*
X0008355Y0017777D01*
X0008313Y0017807D01*
X0008270Y0017835D01*
X0008224Y0017859D01*
X0008177Y0017879D01*
X0008128Y0017896D01*
X0008078Y0017910D01*
X0008028Y0017919D01*
X0007976Y0017925D01*
X0007925Y0017927D01*
X0007874Y0017925D01*
X0007822Y0017919D01*
X0007772Y0017910D01*
X0007722Y0017896D01*
X0007673Y0017879D01*
X0007626Y0017859D01*
X0007581Y0017835D01*
X0007537Y0017807D01*
X0007495Y0017777D01*
X0007456Y0017743D01*
X0007420Y0017707D01*
X0007386Y0017668D01*
X0007356Y0017626D01*
X0007328Y0017583D01*
X0007304Y0017537D01*
X0007284Y0017490D01*
X0007267Y0017441D01*
X0007253Y0017391D01*
X0007244Y0017341D01*
X0007238Y0017289D01*
X0007236Y0017238D01*
X0007236Y0013262D01*
X0007238Y0013211D01*
X0007244Y0013159D01*
X0007253Y0013109D01*
X0007267Y0013059D01*
X0007284Y0013010D01*
X0007304Y0012963D01*
X0007328Y0012918D01*
X0007356Y0012874D01*
X0007386Y0012832D01*
X0007420Y0012793D01*
X0007456Y0012757D01*
X0007495Y0012723D01*
X0007537Y0012693D01*
X0007580Y0012665D01*
X0007626Y0012641D01*
X0007673Y0012621D01*
X0007722Y0012604D01*
X0007772Y0012590D01*
X0007822Y0012581D01*
X0007874Y0012575D01*
X0007925Y0012573D01*
X0007976Y0012575D01*
X0008028Y0012581D01*
X0008078Y0012590D01*
X0008128Y0012604D01*
X0008177Y0012621D01*
X0008224Y0012641D01*
X0008270Y0012665D01*
X0008313Y0012693D01*
X0008355Y0012723D01*
X0008394Y0012757D01*
X0008430Y0012793D01*
X0008464Y0012832D01*
X0008494Y0012874D01*
X0008522Y0012918D01*
X0008546Y0012963D01*
X0008566Y0013010D01*
X0008583Y0013059D01*
X0008597Y0013109D01*
X0008606Y0013159D01*
X0008612Y0013211D01*
X0008614Y0013262D01*
X0035386Y0013262D02*
X0035386Y0017238D01*
X0035388Y0017289D01*
X0035394Y0017341D01*
X0035403Y0017391D01*
X0035417Y0017441D01*
X0035434Y0017490D01*
X0035454Y0017537D01*
X0035478Y0017583D01*
X0035506Y0017626D01*
X0035536Y0017668D01*
X0035570Y0017707D01*
X0035606Y0017743D01*
X0035645Y0017777D01*
X0035687Y0017807D01*
X0035731Y0017835D01*
X0035776Y0017859D01*
X0035823Y0017879D01*
X0035872Y0017896D01*
X0035922Y0017910D01*
X0035972Y0017919D01*
X0036024Y0017925D01*
X0036075Y0017927D01*
X0036126Y0017925D01*
X0036178Y0017919D01*
X0036228Y0017910D01*
X0036278Y0017896D01*
X0036327Y0017879D01*
X0036374Y0017859D01*
X0036420Y0017835D01*
X0036463Y0017807D01*
X0036505Y0017777D01*
X0036544Y0017743D01*
X0036580Y0017707D01*
X0036614Y0017668D01*
X0036644Y0017626D01*
X0036672Y0017583D01*
X0036696Y0017537D01*
X0036716Y0017490D01*
X0036733Y0017441D01*
X0036747Y0017391D01*
X0036756Y0017341D01*
X0036762Y0017289D01*
X0036764Y0017238D01*
X0036764Y0013262D01*
X0036762Y0013211D01*
X0036756Y0013159D01*
X0036747Y0013109D01*
X0036733Y0013059D01*
X0036716Y0013010D01*
X0036696Y0012963D01*
X0036672Y0012918D01*
X0036644Y0012874D01*
X0036614Y0012832D01*
X0036580Y0012793D01*
X0036544Y0012757D01*
X0036505Y0012723D01*
X0036463Y0012693D01*
X0036420Y0012665D01*
X0036374Y0012641D01*
X0036327Y0012621D01*
X0036278Y0012604D01*
X0036228Y0012590D01*
X0036178Y0012581D01*
X0036126Y0012575D01*
X0036075Y0012573D01*
X0036024Y0012575D01*
X0035972Y0012581D01*
X0035922Y0012590D01*
X0035872Y0012604D01*
X0035823Y0012621D01*
X0035776Y0012641D01*
X0035731Y0012665D01*
X0035687Y0012693D01*
X0035645Y0012723D01*
X0035606Y0012757D01*
X0035570Y0012793D01*
X0035536Y0012832D01*
X0035506Y0012874D01*
X0035478Y0012918D01*
X0035454Y0012963D01*
X0035434Y0013010D01*
X0035417Y0013059D01*
X0035403Y0013109D01*
X0035394Y0013159D01*
X0035388Y0013211D01*
X0035386Y0013262D01*
M02*
