G75*
%MOIN*%
%OFA0B0*%
%FSLAX25Y25*%
%IPPOS*%
%LPD*%
%AMOC8*
5,1,8,0,0,1.08239X$1,22.5*
%
%ADD10C,0.00000*%
%ADD11C,0.00600*%
%ADD12C,0.00300*%
%ADD13C,0.00200*%
%ADD14C,0.00500*%
%ADD15C,0.00400*%
%ADD16C,0.00100*%
D10*
X0001250Y0004150D02*
X0001000Y0220600D01*
X0217171Y0220600D01*
X0216921Y0004400D01*
X0001250Y0004150D01*
X0014616Y0102675D02*
X0014618Y0102833D01*
X0014624Y0102991D01*
X0014634Y0103149D01*
X0014648Y0103307D01*
X0014666Y0103464D01*
X0014687Y0103621D01*
X0014713Y0103777D01*
X0014743Y0103933D01*
X0014776Y0104088D01*
X0014814Y0104241D01*
X0014855Y0104394D01*
X0014900Y0104546D01*
X0014949Y0104697D01*
X0015002Y0104846D01*
X0015058Y0104994D01*
X0015118Y0105140D01*
X0015182Y0105285D01*
X0015250Y0105428D01*
X0015321Y0105570D01*
X0015395Y0105710D01*
X0015473Y0105847D01*
X0015555Y0105983D01*
X0015639Y0106117D01*
X0015728Y0106248D01*
X0015819Y0106377D01*
X0015914Y0106504D01*
X0016011Y0106629D01*
X0016112Y0106751D01*
X0016216Y0106870D01*
X0016323Y0106987D01*
X0016433Y0107101D01*
X0016546Y0107212D01*
X0016661Y0107321D01*
X0016779Y0107426D01*
X0016900Y0107528D01*
X0017023Y0107628D01*
X0017149Y0107724D01*
X0017277Y0107817D01*
X0017407Y0107907D01*
X0017540Y0107993D01*
X0017675Y0108077D01*
X0017811Y0108156D01*
X0017950Y0108233D01*
X0018091Y0108305D01*
X0018233Y0108375D01*
X0018377Y0108440D01*
X0018523Y0108502D01*
X0018670Y0108560D01*
X0018819Y0108615D01*
X0018969Y0108666D01*
X0019120Y0108713D01*
X0019272Y0108756D01*
X0019425Y0108795D01*
X0019580Y0108831D01*
X0019735Y0108862D01*
X0019891Y0108890D01*
X0020047Y0108914D01*
X0020204Y0108934D01*
X0020362Y0108950D01*
X0020519Y0108962D01*
X0020678Y0108970D01*
X0020836Y0108974D01*
X0020994Y0108974D01*
X0021152Y0108970D01*
X0021311Y0108962D01*
X0021468Y0108950D01*
X0021626Y0108934D01*
X0021783Y0108914D01*
X0021939Y0108890D01*
X0022095Y0108862D01*
X0022250Y0108831D01*
X0022405Y0108795D01*
X0022558Y0108756D01*
X0022710Y0108713D01*
X0022861Y0108666D01*
X0023011Y0108615D01*
X0023160Y0108560D01*
X0023307Y0108502D01*
X0023453Y0108440D01*
X0023597Y0108375D01*
X0023739Y0108305D01*
X0023880Y0108233D01*
X0024019Y0108156D01*
X0024155Y0108077D01*
X0024290Y0107993D01*
X0024423Y0107907D01*
X0024553Y0107817D01*
X0024681Y0107724D01*
X0024807Y0107628D01*
X0024930Y0107528D01*
X0025051Y0107426D01*
X0025169Y0107321D01*
X0025284Y0107212D01*
X0025397Y0107101D01*
X0025507Y0106987D01*
X0025614Y0106870D01*
X0025718Y0106751D01*
X0025819Y0106629D01*
X0025916Y0106504D01*
X0026011Y0106377D01*
X0026102Y0106248D01*
X0026191Y0106117D01*
X0026275Y0105983D01*
X0026357Y0105847D01*
X0026435Y0105710D01*
X0026509Y0105570D01*
X0026580Y0105428D01*
X0026648Y0105285D01*
X0026712Y0105140D01*
X0026772Y0104994D01*
X0026828Y0104846D01*
X0026881Y0104697D01*
X0026930Y0104546D01*
X0026975Y0104394D01*
X0027016Y0104241D01*
X0027054Y0104088D01*
X0027087Y0103933D01*
X0027117Y0103777D01*
X0027143Y0103621D01*
X0027164Y0103464D01*
X0027182Y0103307D01*
X0027196Y0103149D01*
X0027206Y0102991D01*
X0027212Y0102833D01*
X0027214Y0102675D01*
X0027212Y0102517D01*
X0027206Y0102359D01*
X0027196Y0102201D01*
X0027182Y0102043D01*
X0027164Y0101886D01*
X0027143Y0101729D01*
X0027117Y0101573D01*
X0027087Y0101417D01*
X0027054Y0101262D01*
X0027016Y0101109D01*
X0026975Y0100956D01*
X0026930Y0100804D01*
X0026881Y0100653D01*
X0026828Y0100504D01*
X0026772Y0100356D01*
X0026712Y0100210D01*
X0026648Y0100065D01*
X0026580Y0099922D01*
X0026509Y0099780D01*
X0026435Y0099640D01*
X0026357Y0099503D01*
X0026275Y0099367D01*
X0026191Y0099233D01*
X0026102Y0099102D01*
X0026011Y0098973D01*
X0025916Y0098846D01*
X0025819Y0098721D01*
X0025718Y0098599D01*
X0025614Y0098480D01*
X0025507Y0098363D01*
X0025397Y0098249D01*
X0025284Y0098138D01*
X0025169Y0098029D01*
X0025051Y0097924D01*
X0024930Y0097822D01*
X0024807Y0097722D01*
X0024681Y0097626D01*
X0024553Y0097533D01*
X0024423Y0097443D01*
X0024290Y0097357D01*
X0024155Y0097273D01*
X0024019Y0097194D01*
X0023880Y0097117D01*
X0023739Y0097045D01*
X0023597Y0096975D01*
X0023453Y0096910D01*
X0023307Y0096848D01*
X0023160Y0096790D01*
X0023011Y0096735D01*
X0022861Y0096684D01*
X0022710Y0096637D01*
X0022558Y0096594D01*
X0022405Y0096555D01*
X0022250Y0096519D01*
X0022095Y0096488D01*
X0021939Y0096460D01*
X0021783Y0096436D01*
X0021626Y0096416D01*
X0021468Y0096400D01*
X0021311Y0096388D01*
X0021152Y0096380D01*
X0020994Y0096376D01*
X0020836Y0096376D01*
X0020678Y0096380D01*
X0020519Y0096388D01*
X0020362Y0096400D01*
X0020204Y0096416D01*
X0020047Y0096436D01*
X0019891Y0096460D01*
X0019735Y0096488D01*
X0019580Y0096519D01*
X0019425Y0096555D01*
X0019272Y0096594D01*
X0019120Y0096637D01*
X0018969Y0096684D01*
X0018819Y0096735D01*
X0018670Y0096790D01*
X0018523Y0096848D01*
X0018377Y0096910D01*
X0018233Y0096975D01*
X0018091Y0097045D01*
X0017950Y0097117D01*
X0017811Y0097194D01*
X0017675Y0097273D01*
X0017540Y0097357D01*
X0017407Y0097443D01*
X0017277Y0097533D01*
X0017149Y0097626D01*
X0017023Y0097722D01*
X0016900Y0097822D01*
X0016779Y0097924D01*
X0016661Y0098029D01*
X0016546Y0098138D01*
X0016433Y0098249D01*
X0016323Y0098363D01*
X0016216Y0098480D01*
X0016112Y0098599D01*
X0016011Y0098721D01*
X0015914Y0098846D01*
X0015819Y0098973D01*
X0015728Y0099102D01*
X0015639Y0099233D01*
X0015555Y0099367D01*
X0015473Y0099503D01*
X0015395Y0099640D01*
X0015321Y0099780D01*
X0015250Y0099922D01*
X0015182Y0100065D01*
X0015118Y0100210D01*
X0015058Y0100356D01*
X0015002Y0100504D01*
X0014949Y0100653D01*
X0014900Y0100804D01*
X0014855Y0100956D01*
X0014814Y0101109D01*
X0014776Y0101262D01*
X0014743Y0101417D01*
X0014713Y0101573D01*
X0014687Y0101729D01*
X0014666Y0101886D01*
X0014648Y0102043D01*
X0014634Y0102201D01*
X0014624Y0102359D01*
X0014618Y0102517D01*
X0014616Y0102675D01*
X0053986Y0102675D02*
X0053988Y0102833D01*
X0053994Y0102991D01*
X0054004Y0103149D01*
X0054018Y0103307D01*
X0054036Y0103464D01*
X0054057Y0103621D01*
X0054083Y0103777D01*
X0054113Y0103933D01*
X0054146Y0104088D01*
X0054184Y0104241D01*
X0054225Y0104394D01*
X0054270Y0104546D01*
X0054319Y0104697D01*
X0054372Y0104846D01*
X0054428Y0104994D01*
X0054488Y0105140D01*
X0054552Y0105285D01*
X0054620Y0105428D01*
X0054691Y0105570D01*
X0054765Y0105710D01*
X0054843Y0105847D01*
X0054925Y0105983D01*
X0055009Y0106117D01*
X0055098Y0106248D01*
X0055189Y0106377D01*
X0055284Y0106504D01*
X0055381Y0106629D01*
X0055482Y0106751D01*
X0055586Y0106870D01*
X0055693Y0106987D01*
X0055803Y0107101D01*
X0055916Y0107212D01*
X0056031Y0107321D01*
X0056149Y0107426D01*
X0056270Y0107528D01*
X0056393Y0107628D01*
X0056519Y0107724D01*
X0056647Y0107817D01*
X0056777Y0107907D01*
X0056910Y0107993D01*
X0057045Y0108077D01*
X0057181Y0108156D01*
X0057320Y0108233D01*
X0057461Y0108305D01*
X0057603Y0108375D01*
X0057747Y0108440D01*
X0057893Y0108502D01*
X0058040Y0108560D01*
X0058189Y0108615D01*
X0058339Y0108666D01*
X0058490Y0108713D01*
X0058642Y0108756D01*
X0058795Y0108795D01*
X0058950Y0108831D01*
X0059105Y0108862D01*
X0059261Y0108890D01*
X0059417Y0108914D01*
X0059574Y0108934D01*
X0059732Y0108950D01*
X0059889Y0108962D01*
X0060048Y0108970D01*
X0060206Y0108974D01*
X0060364Y0108974D01*
X0060522Y0108970D01*
X0060681Y0108962D01*
X0060838Y0108950D01*
X0060996Y0108934D01*
X0061153Y0108914D01*
X0061309Y0108890D01*
X0061465Y0108862D01*
X0061620Y0108831D01*
X0061775Y0108795D01*
X0061928Y0108756D01*
X0062080Y0108713D01*
X0062231Y0108666D01*
X0062381Y0108615D01*
X0062530Y0108560D01*
X0062677Y0108502D01*
X0062823Y0108440D01*
X0062967Y0108375D01*
X0063109Y0108305D01*
X0063250Y0108233D01*
X0063389Y0108156D01*
X0063525Y0108077D01*
X0063660Y0107993D01*
X0063793Y0107907D01*
X0063923Y0107817D01*
X0064051Y0107724D01*
X0064177Y0107628D01*
X0064300Y0107528D01*
X0064421Y0107426D01*
X0064539Y0107321D01*
X0064654Y0107212D01*
X0064767Y0107101D01*
X0064877Y0106987D01*
X0064984Y0106870D01*
X0065088Y0106751D01*
X0065189Y0106629D01*
X0065286Y0106504D01*
X0065381Y0106377D01*
X0065472Y0106248D01*
X0065561Y0106117D01*
X0065645Y0105983D01*
X0065727Y0105847D01*
X0065805Y0105710D01*
X0065879Y0105570D01*
X0065950Y0105428D01*
X0066018Y0105285D01*
X0066082Y0105140D01*
X0066142Y0104994D01*
X0066198Y0104846D01*
X0066251Y0104697D01*
X0066300Y0104546D01*
X0066345Y0104394D01*
X0066386Y0104241D01*
X0066424Y0104088D01*
X0066457Y0103933D01*
X0066487Y0103777D01*
X0066513Y0103621D01*
X0066534Y0103464D01*
X0066552Y0103307D01*
X0066566Y0103149D01*
X0066576Y0102991D01*
X0066582Y0102833D01*
X0066584Y0102675D01*
X0066582Y0102517D01*
X0066576Y0102359D01*
X0066566Y0102201D01*
X0066552Y0102043D01*
X0066534Y0101886D01*
X0066513Y0101729D01*
X0066487Y0101573D01*
X0066457Y0101417D01*
X0066424Y0101262D01*
X0066386Y0101109D01*
X0066345Y0100956D01*
X0066300Y0100804D01*
X0066251Y0100653D01*
X0066198Y0100504D01*
X0066142Y0100356D01*
X0066082Y0100210D01*
X0066018Y0100065D01*
X0065950Y0099922D01*
X0065879Y0099780D01*
X0065805Y0099640D01*
X0065727Y0099503D01*
X0065645Y0099367D01*
X0065561Y0099233D01*
X0065472Y0099102D01*
X0065381Y0098973D01*
X0065286Y0098846D01*
X0065189Y0098721D01*
X0065088Y0098599D01*
X0064984Y0098480D01*
X0064877Y0098363D01*
X0064767Y0098249D01*
X0064654Y0098138D01*
X0064539Y0098029D01*
X0064421Y0097924D01*
X0064300Y0097822D01*
X0064177Y0097722D01*
X0064051Y0097626D01*
X0063923Y0097533D01*
X0063793Y0097443D01*
X0063660Y0097357D01*
X0063525Y0097273D01*
X0063389Y0097194D01*
X0063250Y0097117D01*
X0063109Y0097045D01*
X0062967Y0096975D01*
X0062823Y0096910D01*
X0062677Y0096848D01*
X0062530Y0096790D01*
X0062381Y0096735D01*
X0062231Y0096684D01*
X0062080Y0096637D01*
X0061928Y0096594D01*
X0061775Y0096555D01*
X0061620Y0096519D01*
X0061465Y0096488D01*
X0061309Y0096460D01*
X0061153Y0096436D01*
X0060996Y0096416D01*
X0060838Y0096400D01*
X0060681Y0096388D01*
X0060522Y0096380D01*
X0060364Y0096376D01*
X0060206Y0096376D01*
X0060048Y0096380D01*
X0059889Y0096388D01*
X0059732Y0096400D01*
X0059574Y0096416D01*
X0059417Y0096436D01*
X0059261Y0096460D01*
X0059105Y0096488D01*
X0058950Y0096519D01*
X0058795Y0096555D01*
X0058642Y0096594D01*
X0058490Y0096637D01*
X0058339Y0096684D01*
X0058189Y0096735D01*
X0058040Y0096790D01*
X0057893Y0096848D01*
X0057747Y0096910D01*
X0057603Y0096975D01*
X0057461Y0097045D01*
X0057320Y0097117D01*
X0057181Y0097194D01*
X0057045Y0097273D01*
X0056910Y0097357D01*
X0056777Y0097443D01*
X0056647Y0097533D01*
X0056519Y0097626D01*
X0056393Y0097722D01*
X0056270Y0097822D01*
X0056149Y0097924D01*
X0056031Y0098029D01*
X0055916Y0098138D01*
X0055803Y0098249D01*
X0055693Y0098363D01*
X0055586Y0098480D01*
X0055482Y0098599D01*
X0055381Y0098721D01*
X0055284Y0098846D01*
X0055189Y0098973D01*
X0055098Y0099102D01*
X0055009Y0099233D01*
X0054925Y0099367D01*
X0054843Y0099503D01*
X0054765Y0099640D01*
X0054691Y0099780D01*
X0054620Y0099922D01*
X0054552Y0100065D01*
X0054488Y0100210D01*
X0054428Y0100356D01*
X0054372Y0100504D01*
X0054319Y0100653D01*
X0054270Y0100804D01*
X0054225Y0100956D01*
X0054184Y0101109D01*
X0054146Y0101262D01*
X0054113Y0101417D01*
X0054083Y0101573D01*
X0054057Y0101729D01*
X0054036Y0101886D01*
X0054018Y0102043D01*
X0054004Y0102201D01*
X0053994Y0102359D01*
X0053988Y0102517D01*
X0053986Y0102675D01*
D11*
X0038830Y0056350D02*
X0038830Y0053150D01*
X0036630Y0053150D01*
X0029830Y0053150D02*
X0027630Y0053150D01*
X0027630Y0056350D01*
X0018830Y0056100D02*
X0018830Y0052900D01*
X0016630Y0052900D01*
X0009830Y0052900D02*
X0007630Y0052900D01*
X0007630Y0056100D01*
X0116980Y0034950D02*
X0116980Y0022550D01*
X0116982Y0022474D01*
X0116988Y0022398D01*
X0116997Y0022323D01*
X0117011Y0022248D01*
X0117028Y0022174D01*
X0117049Y0022101D01*
X0117073Y0022029D01*
X0117102Y0021958D01*
X0117133Y0021889D01*
X0117168Y0021822D01*
X0117207Y0021757D01*
X0117249Y0021693D01*
X0117294Y0021632D01*
X0117342Y0021573D01*
X0117393Y0021517D01*
X0117447Y0021463D01*
X0117503Y0021412D01*
X0117562Y0021364D01*
X0117623Y0021319D01*
X0117687Y0021277D01*
X0117752Y0021238D01*
X0117819Y0021203D01*
X0117888Y0021172D01*
X0117959Y0021143D01*
X0118031Y0021119D01*
X0118104Y0021098D01*
X0118178Y0021081D01*
X0118253Y0021067D01*
X0118328Y0021058D01*
X0118404Y0021052D01*
X0118480Y0021050D01*
X0135480Y0021050D01*
X0135556Y0021052D01*
X0135632Y0021058D01*
X0135707Y0021067D01*
X0135782Y0021081D01*
X0135856Y0021098D01*
X0135929Y0021119D01*
X0136001Y0021143D01*
X0136072Y0021172D01*
X0136141Y0021203D01*
X0136208Y0021238D01*
X0136273Y0021277D01*
X0136337Y0021319D01*
X0136398Y0021364D01*
X0136457Y0021412D01*
X0136513Y0021463D01*
X0136567Y0021517D01*
X0136618Y0021573D01*
X0136666Y0021632D01*
X0136711Y0021693D01*
X0136753Y0021757D01*
X0136792Y0021822D01*
X0136827Y0021889D01*
X0136858Y0021958D01*
X0136887Y0022029D01*
X0136911Y0022101D01*
X0136932Y0022174D01*
X0136949Y0022248D01*
X0136963Y0022323D01*
X0136972Y0022398D01*
X0136978Y0022474D01*
X0136980Y0022550D01*
X0136980Y0034950D01*
X0136978Y0035026D01*
X0136972Y0035102D01*
X0136963Y0035177D01*
X0136949Y0035252D01*
X0136932Y0035326D01*
X0136911Y0035399D01*
X0136887Y0035471D01*
X0136858Y0035542D01*
X0136827Y0035611D01*
X0136792Y0035678D01*
X0136753Y0035743D01*
X0136711Y0035807D01*
X0136666Y0035868D01*
X0136618Y0035927D01*
X0136567Y0035983D01*
X0136513Y0036037D01*
X0136457Y0036088D01*
X0136398Y0036136D01*
X0136337Y0036181D01*
X0136273Y0036223D01*
X0136208Y0036262D01*
X0136141Y0036297D01*
X0136072Y0036328D01*
X0136001Y0036357D01*
X0135929Y0036381D01*
X0135856Y0036402D01*
X0135782Y0036419D01*
X0135707Y0036433D01*
X0135632Y0036442D01*
X0135556Y0036448D01*
X0135480Y0036450D01*
X0118480Y0036450D01*
X0118404Y0036448D01*
X0118328Y0036442D01*
X0118253Y0036433D01*
X0118178Y0036419D01*
X0118104Y0036402D01*
X0118031Y0036381D01*
X0117959Y0036357D01*
X0117888Y0036328D01*
X0117819Y0036297D01*
X0117752Y0036262D01*
X0117687Y0036223D01*
X0117623Y0036181D01*
X0117562Y0036136D01*
X0117503Y0036088D01*
X0117447Y0036037D01*
X0117393Y0035983D01*
X0117342Y0035927D01*
X0117294Y0035868D01*
X0117249Y0035807D01*
X0117207Y0035743D01*
X0117168Y0035678D01*
X0117133Y0035611D01*
X0117102Y0035542D01*
X0117073Y0035471D01*
X0117049Y0035399D01*
X0117028Y0035326D01*
X0117011Y0035252D01*
X0116997Y0035177D01*
X0116988Y0035102D01*
X0116982Y0035026D01*
X0116980Y0034950D01*
X0116980Y0030750D02*
X0117068Y0030748D01*
X0117157Y0030742D01*
X0117245Y0030732D01*
X0117332Y0030719D01*
X0117419Y0030701D01*
X0117505Y0030680D01*
X0117590Y0030655D01*
X0117673Y0030626D01*
X0117756Y0030593D01*
X0117836Y0030557D01*
X0117915Y0030518D01*
X0117993Y0030475D01*
X0118068Y0030428D01*
X0118141Y0030378D01*
X0118212Y0030325D01*
X0118281Y0030269D01*
X0118347Y0030210D01*
X0118410Y0030148D01*
X0118470Y0030084D01*
X0118528Y0030017D01*
X0118582Y0029947D01*
X0118634Y0029875D01*
X0118682Y0029801D01*
X0118727Y0029724D01*
X0118768Y0029646D01*
X0118806Y0029566D01*
X0118840Y0029485D01*
X0118871Y0029402D01*
X0118898Y0029317D01*
X0118921Y0029232D01*
X0118940Y0029146D01*
X0118956Y0029058D01*
X0118968Y0028971D01*
X0118976Y0028883D01*
X0118980Y0028794D01*
X0118980Y0028706D01*
X0118976Y0028617D01*
X0118968Y0028529D01*
X0118956Y0028442D01*
X0118940Y0028354D01*
X0118921Y0028268D01*
X0118898Y0028183D01*
X0118871Y0028098D01*
X0118840Y0028015D01*
X0118806Y0027934D01*
X0118768Y0027854D01*
X0118727Y0027776D01*
X0118682Y0027699D01*
X0118634Y0027625D01*
X0118582Y0027553D01*
X0118528Y0027483D01*
X0118470Y0027416D01*
X0118410Y0027352D01*
X0118347Y0027290D01*
X0118281Y0027231D01*
X0118212Y0027175D01*
X0118141Y0027122D01*
X0118068Y0027072D01*
X0117993Y0027025D01*
X0117915Y0026982D01*
X0117836Y0026943D01*
X0117756Y0026907D01*
X0117673Y0026874D01*
X0117590Y0026845D01*
X0117505Y0026820D01*
X0117419Y0026799D01*
X0117332Y0026781D01*
X0117245Y0026768D01*
X0117157Y0026758D01*
X0117068Y0026752D01*
X0116980Y0026750D01*
X0130346Y0058183D02*
X0128949Y0059581D01*
X0128949Y0085781D01*
X0156547Y0085781D01*
X0156547Y0058183D01*
X0130346Y0058183D01*
X0130534Y0061182D02*
X0130536Y0061257D01*
X0130542Y0061331D01*
X0130552Y0061405D01*
X0130565Y0061478D01*
X0130583Y0061551D01*
X0130604Y0061622D01*
X0130629Y0061693D01*
X0130658Y0061762D01*
X0130691Y0061829D01*
X0130727Y0061894D01*
X0130766Y0061958D01*
X0130808Y0062019D01*
X0130854Y0062078D01*
X0130903Y0062135D01*
X0130955Y0062188D01*
X0131009Y0062239D01*
X0131066Y0062288D01*
X0131126Y0062332D01*
X0131188Y0062374D01*
X0131252Y0062413D01*
X0131318Y0062448D01*
X0131385Y0062479D01*
X0131455Y0062507D01*
X0131525Y0062531D01*
X0131597Y0062552D01*
X0131670Y0062568D01*
X0131743Y0062581D01*
X0131818Y0062590D01*
X0131892Y0062595D01*
X0131967Y0062596D01*
X0132041Y0062593D01*
X0132116Y0062586D01*
X0132189Y0062575D01*
X0132263Y0062561D01*
X0132335Y0062542D01*
X0132406Y0062520D01*
X0132476Y0062494D01*
X0132545Y0062464D01*
X0132611Y0062431D01*
X0132676Y0062394D01*
X0132739Y0062354D01*
X0132800Y0062310D01*
X0132858Y0062264D01*
X0132914Y0062214D01*
X0132967Y0062162D01*
X0133018Y0062107D01*
X0133065Y0062049D01*
X0133109Y0061989D01*
X0133150Y0061926D01*
X0133188Y0061862D01*
X0133222Y0061796D01*
X0133253Y0061727D01*
X0133280Y0061658D01*
X0133303Y0061587D01*
X0133322Y0061515D01*
X0133338Y0061442D01*
X0133350Y0061368D01*
X0133358Y0061294D01*
X0133362Y0061219D01*
X0133362Y0061145D01*
X0133358Y0061070D01*
X0133350Y0060996D01*
X0133338Y0060922D01*
X0133322Y0060849D01*
X0133303Y0060777D01*
X0133280Y0060706D01*
X0133253Y0060637D01*
X0133222Y0060568D01*
X0133188Y0060502D01*
X0133150Y0060438D01*
X0133109Y0060375D01*
X0133065Y0060315D01*
X0133018Y0060257D01*
X0132967Y0060202D01*
X0132914Y0060150D01*
X0132858Y0060100D01*
X0132800Y0060054D01*
X0132739Y0060010D01*
X0132676Y0059970D01*
X0132611Y0059933D01*
X0132545Y0059900D01*
X0132476Y0059870D01*
X0132406Y0059844D01*
X0132335Y0059822D01*
X0132263Y0059803D01*
X0132189Y0059789D01*
X0132116Y0059778D01*
X0132041Y0059771D01*
X0131967Y0059768D01*
X0131892Y0059769D01*
X0131818Y0059774D01*
X0131743Y0059783D01*
X0131670Y0059796D01*
X0131597Y0059812D01*
X0131525Y0059833D01*
X0131455Y0059857D01*
X0131385Y0059885D01*
X0131318Y0059916D01*
X0131252Y0059951D01*
X0131188Y0059990D01*
X0131126Y0060032D01*
X0131066Y0060076D01*
X0131009Y0060125D01*
X0130955Y0060176D01*
X0130903Y0060229D01*
X0130854Y0060286D01*
X0130808Y0060345D01*
X0130766Y0060406D01*
X0130727Y0060470D01*
X0130691Y0060535D01*
X0130658Y0060602D01*
X0130629Y0060671D01*
X0130604Y0060742D01*
X0130583Y0060813D01*
X0130565Y0060886D01*
X0130552Y0060959D01*
X0130542Y0061033D01*
X0130536Y0061107D01*
X0130534Y0061182D01*
D12*
X0133677Y0051835D02*
X0133677Y0048932D01*
X0132710Y0048932D02*
X0134645Y0048932D01*
X0135656Y0049416D02*
X0136140Y0048932D01*
X0137107Y0048932D01*
X0137591Y0049416D01*
X0137591Y0051351D01*
X0137107Y0051835D01*
X0136140Y0051835D01*
X0135656Y0051351D01*
X0134645Y0050867D02*
X0133677Y0051835D01*
X0138588Y0051835D02*
X0139555Y0051835D01*
X0139072Y0051835D02*
X0139072Y0048932D01*
X0139555Y0048932D02*
X0138588Y0048932D01*
D13*
X0136980Y0035050D02*
X0116980Y0035050D01*
D14*
X0127582Y0028753D02*
X0128332Y0029504D01*
X0129834Y0029504D01*
X0130584Y0028753D01*
X0132186Y0028753D02*
X0132936Y0029504D01*
X0134438Y0029504D01*
X0135188Y0028753D01*
X0135188Y0025751D01*
X0134438Y0025000D01*
X0132936Y0025000D01*
X0132186Y0025751D01*
X0130584Y0025000D02*
X0127582Y0028003D01*
X0127582Y0028753D01*
X0127582Y0025000D02*
X0130584Y0025000D01*
X0136756Y0025000D02*
X0138257Y0025000D01*
X0137507Y0025000D02*
X0137507Y0029504D01*
X0138257Y0029504D02*
X0136756Y0029504D01*
X0112230Y0067750D02*
X0102230Y0067750D01*
X0102230Y0097750D01*
X0112230Y0097750D01*
X0112230Y0067750D01*
D15*
X0113040Y0055554D02*
X0114575Y0055554D01*
X0115342Y0054787D01*
X0115342Y0051717D01*
X0114575Y0050950D01*
X0113040Y0050950D01*
X0112273Y0051717D01*
X0110738Y0050950D02*
X0107669Y0050950D01*
X0109204Y0050950D02*
X0109204Y0055554D01*
X0110738Y0054019D01*
X0112273Y0054787D02*
X0113040Y0055554D01*
X0106134Y0054787D02*
X0105367Y0055554D01*
X0103832Y0055554D01*
X0103065Y0054787D01*
X0103065Y0054019D01*
X0106134Y0050950D01*
X0103065Y0050950D01*
X0103832Y0040804D02*
X0105367Y0040804D01*
X0106134Y0040037D01*
X0106134Y0039269D01*
X0105367Y0038502D01*
X0103065Y0038502D01*
X0103065Y0036967D02*
X0103065Y0040037D01*
X0103832Y0040804D01*
X0103065Y0036967D02*
X0103832Y0036200D01*
X0105367Y0036200D01*
X0106134Y0036967D01*
X0107669Y0036967D02*
X0108436Y0036200D01*
X0109971Y0036200D01*
X0110738Y0036967D01*
X0110738Y0040037D01*
X0109971Y0040804D01*
X0108436Y0040804D01*
X0107669Y0040037D01*
X0062780Y0037554D02*
X0062780Y0032950D01*
X0062780Y0034485D02*
X0060478Y0034485D01*
X0059711Y0035252D01*
X0059711Y0036787D01*
X0060478Y0037554D01*
X0062780Y0037554D01*
X0061246Y0034485D02*
X0059711Y0032950D01*
X0058176Y0032950D02*
X0055107Y0036019D01*
X0055107Y0036787D01*
X0055874Y0037554D01*
X0057409Y0037554D01*
X0058176Y0036787D01*
X0058176Y0032950D02*
X0055107Y0032950D01*
X0055874Y0052950D02*
X0057409Y0052950D01*
X0058176Y0053717D01*
X0059711Y0052950D02*
X0061246Y0054485D01*
X0060478Y0054485D02*
X0062780Y0054485D01*
X0062780Y0052950D02*
X0062780Y0057554D01*
X0060478Y0057554D01*
X0059711Y0056787D01*
X0059711Y0055252D01*
X0060478Y0054485D01*
X0058176Y0056787D02*
X0057409Y0057554D01*
X0055874Y0057554D01*
X0055107Y0056787D01*
X0055107Y0056019D01*
X0055874Y0055252D01*
X0055107Y0054485D01*
X0055107Y0053717D01*
X0055874Y0052950D01*
X0055874Y0055252D02*
X0056642Y0055252D01*
X0056392Y0074700D02*
X0056392Y0079304D01*
X0057926Y0077769D01*
X0059461Y0077002D02*
X0059461Y0078537D01*
X0060228Y0079304D01*
X0062530Y0079304D01*
X0062530Y0074700D01*
X0062530Y0076235D02*
X0060228Y0076235D01*
X0059461Y0077002D01*
X0060996Y0076235D02*
X0059461Y0074700D01*
X0057926Y0074700D02*
X0054857Y0074700D01*
X0034738Y0048054D02*
X0032436Y0048054D01*
X0031669Y0047287D01*
X0031669Y0044217D01*
X0032436Y0043450D01*
X0034738Y0043450D01*
X0034738Y0048054D01*
X0030134Y0047287D02*
X0029367Y0048054D01*
X0027832Y0048054D01*
X0027065Y0047287D01*
X0027065Y0046519D01*
X0030134Y0043450D01*
X0027065Y0043450D01*
X0014738Y0043200D02*
X0012436Y0043200D01*
X0011669Y0043967D01*
X0011669Y0047037D01*
X0012436Y0047804D01*
X0014738Y0047804D01*
X0014738Y0043200D01*
X0010134Y0043200D02*
X0007065Y0043200D01*
X0008600Y0043200D02*
X0008600Y0047804D01*
X0010134Y0046269D01*
X0137430Y0113200D02*
X0142034Y0113200D01*
X0142034Y0115502D01*
X0141267Y0116269D01*
X0139732Y0116269D01*
X0138965Y0115502D01*
X0138965Y0113200D01*
X0138965Y0114735D02*
X0137430Y0116269D01*
X0137430Y0117804D02*
X0138198Y0117804D01*
X0141267Y0120873D01*
X0142034Y0120873D01*
X0142034Y0117804D01*
X0169180Y0117269D02*
X0170715Y0115735D01*
X0170715Y0116502D02*
X0170715Y0114200D01*
X0169180Y0114200D02*
X0173784Y0114200D01*
X0173784Y0116502D01*
X0173017Y0117269D01*
X0171482Y0117269D01*
X0170715Y0116502D01*
X0170715Y0118804D02*
X0171482Y0119571D01*
X0171482Y0121106D01*
X0170715Y0121873D01*
X0169948Y0121873D01*
X0169180Y0121106D01*
X0169180Y0119571D01*
X0169948Y0118804D01*
X0170715Y0118804D01*
X0171482Y0119571D02*
X0172250Y0118804D01*
X0173017Y0118804D01*
X0173784Y0119571D01*
X0173784Y0121106D01*
X0173017Y0121873D01*
X0172250Y0121873D01*
X0171482Y0121106D01*
X0189930Y0121106D02*
X0189930Y0119571D01*
X0190698Y0118804D01*
X0192232Y0119571D02*
X0192232Y0121873D01*
X0190698Y0121873D02*
X0193767Y0121873D01*
X0194534Y0121106D01*
X0194534Y0119571D01*
X0193767Y0118804D01*
X0193000Y0118804D01*
X0192232Y0119571D01*
X0192232Y0117269D02*
X0191465Y0116502D01*
X0191465Y0114200D01*
X0191465Y0115735D02*
X0189930Y0117269D01*
X0192232Y0117269D02*
X0193767Y0117269D01*
X0194534Y0116502D01*
X0194534Y0114200D01*
X0189930Y0114200D01*
X0189930Y0121106D02*
X0190698Y0121873D01*
X0208430Y0120873D02*
X0208430Y0117804D01*
X0208430Y0119339D02*
X0213034Y0119339D01*
X0211500Y0117804D01*
X0212267Y0116269D02*
X0210732Y0116269D01*
X0209965Y0115502D01*
X0209965Y0113200D01*
X0209965Y0114735D02*
X0208430Y0116269D01*
X0208430Y0113200D02*
X0213034Y0113200D01*
X0213034Y0115502D01*
X0212267Y0116269D01*
X0212267Y0122408D02*
X0209198Y0122408D01*
X0212267Y0125477D01*
X0209198Y0125477D01*
X0208430Y0124710D01*
X0208430Y0123175D01*
X0209198Y0122408D01*
X0212267Y0122408D02*
X0213034Y0123175D01*
X0213034Y0124710D01*
X0212267Y0125477D01*
X0183534Y0074623D02*
X0182767Y0074623D01*
X0179698Y0071554D01*
X0178930Y0071554D01*
X0179698Y0070019D02*
X0178930Y0069252D01*
X0178930Y0067717D01*
X0179698Y0066950D01*
X0182767Y0066950D01*
X0183534Y0067717D01*
X0183534Y0069252D01*
X0182767Y0070019D01*
X0183534Y0071554D02*
X0183534Y0074623D01*
X0199180Y0072977D02*
X0199180Y0069908D01*
X0199180Y0071442D02*
X0203784Y0071442D01*
X0202250Y0069908D01*
X0203784Y0066839D02*
X0199180Y0066839D01*
X0199180Y0068373D02*
X0199180Y0065304D01*
X0199180Y0063769D02*
X0200715Y0062235D01*
X0200715Y0063002D02*
X0200715Y0060700D01*
X0199180Y0060700D02*
X0203784Y0060700D01*
X0203784Y0063002D01*
X0203017Y0063769D01*
X0201482Y0063769D01*
X0200715Y0063002D01*
X0202250Y0065304D02*
X0203784Y0066839D01*
X0203686Y0042054D02*
X0205221Y0042054D01*
X0205988Y0041287D01*
X0205988Y0038217D01*
X0205221Y0037450D01*
X0203686Y0037450D01*
X0202919Y0038217D01*
X0201384Y0038217D02*
X0200617Y0037450D01*
X0199082Y0037450D01*
X0198315Y0038217D01*
X0198315Y0038985D01*
X0199082Y0039752D01*
X0200617Y0039752D01*
X0201384Y0040519D01*
X0201384Y0041287D01*
X0200617Y0042054D01*
X0199082Y0042054D01*
X0198315Y0041287D01*
X0198315Y0040519D01*
X0199082Y0039752D01*
X0200617Y0039752D02*
X0201384Y0038985D01*
X0201384Y0038217D01*
X0202919Y0041287D02*
X0203686Y0042054D01*
D16*
X0117532Y0070550D02*
X0117532Y0071051D01*
X0117281Y0071301D01*
X0116281Y0071301D01*
X0116030Y0071051D01*
X0116030Y0070550D01*
X0116281Y0070300D01*
X0117281Y0070300D01*
X0117532Y0070550D01*
X0116531Y0070800D02*
X0116030Y0071301D01*
X0116030Y0071773D02*
X0117031Y0072774D01*
X0117281Y0072774D01*
X0117532Y0072524D01*
X0117532Y0072023D01*
X0117281Y0071773D01*
X0116030Y0071773D02*
X0116030Y0072774D01*
M02*
