G75*
%MOIN*%
%OFA0B0*%
%FSLAX25Y25*%
%IPPOS*%
%LPD*%
%AMOC8*
5,1,8,0,0,1.08239X$1,22.5*
%
%ADD10R,0.05000X0.02200*%
%ADD11R,0.02200X0.05000*%
%ADD12R,0.02600X0.08000*%
%ADD13R,0.05118X0.06299*%
%ADD14OC8,0.05200*%
%ADD15R,0.06000X0.06000*%
%ADD16OC8,0.06000*%
%ADD17R,0.05906X0.05118*%
%ADD18R,0.06299X0.05118*%
%ADD19R,0.05118X0.05906*%
%ADD20OC8,0.10000*%
%ADD21C,0.05600*%
%ADD22C,0.03575*%
%ADD23C,0.03819*%
%ADD24R,0.05200X0.02200*%
%ADD25C,0.05200*%
%ADD26C,0.01600*%
%ADD27C,0.02400*%
%ADD28C,0.01200*%
%ADD29C,0.03200*%
%ADD30C,0.03562*%
%ADD31R,0.03562X0.03562*%
D10*
X0125848Y0059209D03*
X0125848Y0062358D03*
X0125848Y0065508D03*
X0125848Y0068657D03*
X0125848Y0071807D03*
X0125848Y0074957D03*
X0125848Y0078106D03*
X0125848Y0081256D03*
X0159648Y0081256D03*
X0159648Y0078106D03*
X0159648Y0074957D03*
X0159648Y0071807D03*
X0159648Y0068657D03*
X0159648Y0065508D03*
X0159648Y0062358D03*
X0159648Y0059209D03*
D11*
X0153772Y0053332D03*
X0150622Y0053332D03*
X0147472Y0053332D03*
X0144323Y0053332D03*
X0141173Y0053332D03*
X0138024Y0053332D03*
X0134874Y0053332D03*
X0131724Y0053332D03*
X0131724Y0087132D03*
X0134874Y0087132D03*
X0138024Y0087132D03*
X0141173Y0087132D03*
X0144323Y0087132D03*
X0147472Y0087132D03*
X0150622Y0087132D03*
X0153772Y0087132D03*
D12*
X0134480Y0039100D03*
X0129480Y0039100D03*
X0124480Y0039100D03*
X0119480Y0039100D03*
X0119480Y0014900D03*
X0124480Y0014900D03*
X0129480Y0014900D03*
X0134480Y0014900D03*
D13*
X0060470Y0026750D03*
X0052990Y0026750D03*
X0044970Y0043000D03*
X0037490Y0043000D03*
X0037490Y0057000D03*
X0044970Y0057000D03*
D14*
X0080876Y0136358D03*
X0090876Y0136358D03*
X0090876Y0159980D03*
X0080876Y0159980D03*
X0057526Y0142980D03*
X0047526Y0142980D03*
X0025285Y0152106D03*
X0015285Y0152106D03*
X0028474Y0173287D03*
X0038474Y0173287D03*
X0046467Y0190256D03*
X0056467Y0190256D03*
X0068159Y0202224D03*
X0078159Y0202224D03*
X0092096Y0208406D03*
X0102096Y0208406D03*
X0116900Y0208406D03*
X0126900Y0208406D03*
X0140837Y0202224D03*
X0150837Y0202224D03*
X0162490Y0190295D03*
X0172490Y0190295D03*
X0180482Y0173287D03*
X0190482Y0173287D03*
X0193120Y0152343D03*
X0203120Y0152343D03*
X0172230Y0142250D03*
X0162230Y0142250D03*
X0138120Y0136358D03*
X0128120Y0136358D03*
X0128120Y0159980D03*
X0138120Y0159980D03*
X0114498Y0159980D03*
X0104498Y0159980D03*
X0090876Y0183602D03*
X0080876Y0183602D03*
X0128120Y0183602D03*
X0138120Y0183602D03*
D15*
X0208230Y0011000D03*
D16*
X0198230Y0011000D03*
X0198230Y0021000D03*
X0208230Y0021000D03*
X0208230Y0031000D03*
X0198230Y0031000D03*
D17*
X0173730Y0066260D03*
X0173730Y0073740D03*
D18*
X0194980Y0066490D03*
X0194980Y0059010D03*
X0204230Y0111510D03*
X0204230Y0118990D03*
X0185730Y0119990D03*
X0185730Y0112510D03*
X0164980Y0112510D03*
X0164980Y0119990D03*
X0133230Y0118990D03*
X0133230Y0111510D03*
D19*
X0079470Y0090000D03*
X0071990Y0090000D03*
X0071990Y0070000D03*
X0079470Y0070000D03*
X0099490Y0041250D03*
X0106970Y0041250D03*
X0106970Y0028250D03*
X0099490Y0028250D03*
X0198240Y0045500D03*
X0205720Y0045500D03*
D20*
X0172730Y0017000D03*
X0152480Y0017000D03*
D21*
X0163480Y0045200D02*
X0163480Y0050800D01*
X0173480Y0050800D02*
X0173480Y0045200D01*
X0183480Y0045200D02*
X0183480Y0050800D01*
D22*
X0027098Y0014384D03*
X0024539Y0018321D03*
X0021980Y0014384D03*
X0019421Y0018321D03*
X0016862Y0014384D03*
D23*
X0007906Y0013341D02*
X0007906Y0017159D01*
X0036055Y0017159D02*
X0036055Y0013341D01*
D24*
X0021980Y0056800D03*
X0021980Y0060500D03*
X0021980Y0064200D03*
X0011980Y0064200D03*
X0011980Y0060500D03*
X0011980Y0056800D03*
D25*
X0096980Y0070250D03*
X0096980Y0090250D03*
D26*
X0096730Y0090250D01*
X0079470Y0090250D01*
X0079470Y0090000D01*
X0071990Y0090000D02*
X0071990Y0070000D01*
X0079470Y0070000D02*
X0079470Y0070250D01*
X0096980Y0070250D01*
X0112980Y0070250D01*
X0120230Y0078250D01*
X0125730Y0078250D01*
X0125874Y0078106D01*
X0125848Y0078106D01*
X0125874Y0078106D02*
X0125980Y0078000D01*
X0126230Y0075000D02*
X0143230Y0075000D01*
X0143230Y0078106D01*
X0159648Y0078106D01*
X0159480Y0081250D02*
X0213480Y0081250D01*
X0213480Y0021000D01*
X0208230Y0021000D01*
X0203230Y0025250D02*
X0203230Y0005250D01*
X0198230Y0021000D02*
X0192230Y0020750D01*
X0164980Y0037000D01*
X0150730Y0044250D01*
X0150622Y0048000D02*
X0163480Y0048000D01*
X0157230Y0053750D02*
X0153980Y0053750D01*
X0153980Y0053541D01*
X0153772Y0053332D01*
X0157230Y0053750D02*
X0159480Y0056000D01*
X0170480Y0056000D01*
X0173356Y0053125D01*
X0173356Y0053125D01*
X0173480Y0053250D01*
X0173480Y0048000D01*
X0173480Y0053000D02*
X0173356Y0053125D01*
X0173480Y0053000D02*
X0180980Y0060500D01*
X0189980Y0066500D01*
X0190980Y0066490D01*
X0194980Y0066490D01*
X0194980Y0059010D02*
X0189730Y0059250D01*
X0183480Y0054000D01*
X0183480Y0048000D01*
X0198240Y0045500D02*
X0198240Y0031000D01*
X0198230Y0031000D01*
X0203230Y0025250D01*
X0208230Y0031000D02*
X0208230Y0036250D01*
X0205720Y0036250D01*
X0205720Y0045500D01*
X0173980Y0065750D02*
X0173730Y0065750D01*
X0173730Y0066260D01*
X0173730Y0066000D01*
X0173480Y0065750D01*
X0171323Y0067907D01*
X0159648Y0068657D01*
X0159648Y0071807D02*
X0171537Y0072057D01*
X0173730Y0074000D01*
X0173730Y0073740D01*
X0180730Y0086250D02*
X0154230Y0086500D01*
X0153730Y0087000D01*
X0153772Y0087041D01*
X0153772Y0087132D01*
X0150730Y0087500D02*
X0150480Y0087250D01*
X0150598Y0087132D01*
X0150622Y0087132D01*
X0150730Y0087500D02*
X0151230Y0097500D01*
X0159480Y0081256D02*
X0159648Y0081256D01*
X0159480Y0081250D02*
X0159480Y0081256D01*
X0131980Y0071907D02*
X0131980Y0066000D01*
X0131480Y0065500D01*
X0131480Y0065508D01*
X0125848Y0065508D01*
X0123988Y0065508D01*
X0123980Y0065500D01*
X0125848Y0068657D02*
X0120638Y0068657D01*
X0120230Y0068250D01*
X0120230Y0068500D01*
X0106970Y0055240D01*
X0106970Y0041250D01*
X0106970Y0041510D01*
X0106980Y0043750D01*
X0106970Y0028490D01*
X0106970Y0028250D01*
X0106980Y0018750D01*
X0107980Y0018750D01*
X0107980Y0011250D01*
X0107980Y0018750D02*
X0109980Y0018750D01*
X0116230Y0012500D01*
X0118980Y0012500D01*
X0119480Y0013000D01*
X0119480Y0014900D01*
X0119230Y0014900D01*
X0124480Y0014900D02*
X0124480Y0026250D01*
X0172730Y0026250D01*
X0172730Y0017000D01*
X0172709Y0013272D02*
X0172730Y0013250D01*
X0152480Y0017000D02*
X0152480Y0023000D01*
X0129480Y0023000D01*
X0129480Y0014900D01*
X0129230Y0014900D01*
X0129480Y0029000D02*
X0144230Y0029000D01*
X0144230Y0053332D01*
X0144323Y0053332D01*
X0141173Y0053332D02*
X0141173Y0051807D01*
X0141230Y0051750D01*
X0140980Y0050500D01*
X0140480Y0036500D01*
X0134730Y0039100D02*
X0134730Y0053332D01*
X0134874Y0053332D01*
X0137980Y0053500D02*
X0138024Y0053457D01*
X0138024Y0053332D01*
X0150622Y0053332D02*
X0150622Y0048000D01*
X0134730Y0039100D02*
X0134480Y0039100D01*
X0129480Y0039100D02*
X0129480Y0029000D01*
X0120230Y0068500D02*
X0120230Y0074250D01*
X0120730Y0074750D01*
X0125480Y0074750D01*
X0125687Y0074957D01*
X0125848Y0074957D01*
X0126230Y0074957D01*
X0126230Y0075000D01*
X0126480Y0072000D02*
X0126480Y0071807D01*
X0126480Y0071750D01*
X0126480Y0071807D02*
X0125848Y0071807D01*
X0125848Y0081256D02*
X0119480Y0081250D01*
X0113230Y0090250D01*
X0096980Y0090250D01*
X0089230Y0041250D02*
X0089230Y0019500D01*
X0089230Y0041250D02*
X0047480Y0064500D01*
X0028730Y0070000D01*
X0028730Y0060500D01*
X0021980Y0060500D01*
X0021980Y0056800D02*
X0021980Y0056500D01*
X0024480Y0056500D01*
X0024480Y0057000D01*
X0037490Y0057000D01*
X0037490Y0043000D01*
X0024480Y0043000D02*
X0024480Y0056500D01*
X0024480Y0043000D02*
X0024539Y0018321D01*
X0040230Y0027250D02*
X0055240Y0027250D01*
X0052990Y0026750D01*
X0090876Y0159980D02*
X0091480Y0159980D01*
X0091480Y0173500D01*
X0097980Y0173500D01*
X0097980Y0174000D01*
X0101730Y0174000D01*
X0101730Y0182000D01*
D27*
X0009230Y0100500D02*
X0009230Y0083750D01*
X0009490Y0081000D01*
X0003730Y0081000D01*
X0003730Y0060500D01*
X0011980Y0060500D01*
X0036230Y0075500D02*
X0072196Y0055439D01*
X0072196Y0070000D01*
X0071990Y0070000D01*
X0072196Y0055439D02*
X0098980Y0040500D01*
X0099480Y0041500D01*
X0099490Y0041250D01*
X0099490Y0028250D01*
X0099490Y0005750D01*
X0119480Y0014900D02*
X0119480Y0016250D01*
X0134480Y0014900D02*
X0134480Y0005750D01*
X0203230Y0005250D01*
X0198480Y0031000D02*
X0198230Y0031000D01*
X0198240Y0045500D02*
X0198240Y0059010D01*
X0194980Y0059010D01*
X0194980Y0060000D01*
X0199230Y0060000D01*
X0203480Y0064250D01*
X0203480Y0077250D01*
X0180730Y0077250D01*
X0180730Y0065750D01*
X0173980Y0065750D01*
X0194980Y0059500D02*
X0194980Y0059010D01*
X0129730Y0039250D02*
X0129730Y0039100D01*
X0129480Y0039100D01*
X0124480Y0039100D01*
D28*
X0119480Y0039100D02*
X0119480Y0047000D01*
X0132230Y0059500D01*
X0137980Y0059500D01*
X0137980Y0053500D01*
X0131724Y0053332D02*
X0131724Y0052744D01*
X0127730Y0048000D01*
X0119980Y0056500D02*
X0119980Y0060250D01*
X0121980Y0062250D01*
X0124980Y0062250D01*
X0125230Y0062500D01*
X0125372Y0062358D01*
X0125848Y0062358D01*
X0125848Y0059209D02*
X0128689Y0059209D01*
X0131480Y0062000D01*
X0137230Y0066500D01*
X0132230Y0071750D02*
X0131980Y0071907D01*
X0150730Y0072000D01*
X0150730Y0069000D01*
X0159648Y0068657D01*
X0159648Y0062358D02*
X0155290Y0062500D01*
X0144230Y0068250D01*
X0145980Y0062500D02*
X0147230Y0057750D01*
X0147472Y0053332D01*
X0159648Y0059209D02*
X0159689Y0059250D01*
X0167230Y0059250D01*
X0173980Y0065750D02*
X0172730Y0067000D01*
X0172480Y0067000D01*
X0147480Y0087132D02*
X0147480Y0101500D01*
X0204230Y0101500D01*
X0204230Y0111510D01*
X0204230Y0118990D02*
X0204230Y0131750D01*
X0185730Y0119990D02*
X0185730Y0168250D01*
X0190482Y0173002D01*
X0190482Y0173287D01*
X0177230Y0159750D02*
X0177230Y0124750D01*
X0172470Y0119990D01*
X0164980Y0119990D01*
X0164980Y0112510D02*
X0164730Y0112510D01*
X0164730Y0108000D01*
X0141230Y0108000D01*
X0141230Y0087132D01*
X0141173Y0087132D01*
X0144323Y0087132D02*
X0144480Y0087132D01*
X0144480Y0104750D01*
X0185730Y0104750D01*
X0185730Y0112510D01*
X0147480Y0087132D02*
X0147472Y0087132D01*
X0138024Y0087132D02*
X0137980Y0087132D01*
X0137980Y0111510D01*
X0133230Y0111510D01*
X0133230Y0118990D02*
X0133230Y0127500D01*
X0122730Y0119500D02*
X0082730Y0119500D01*
X0078480Y0125750D01*
X0011480Y0125750D01*
X0007730Y0129000D01*
X0007730Y0154500D01*
X0016230Y0165250D01*
X0016980Y0165250D01*
X0023230Y0159000D01*
X0023230Y0154500D01*
X0025480Y0152250D01*
X0025337Y0152106D01*
X0025285Y0152106D01*
X0028480Y0173250D02*
X0028474Y0173256D01*
X0027980Y0173750D01*
X0004730Y0173750D01*
X0003980Y0173000D01*
X0003980Y0127750D01*
X0011730Y0120000D01*
X0074980Y0120000D01*
X0094480Y0106500D01*
X0109230Y0106500D01*
X0126480Y0093500D01*
X0128230Y0092250D01*
X0131348Y0089882D01*
X0131724Y0087132D01*
X0134874Y0087132D02*
X0134874Y0094606D01*
X0121730Y0102000D01*
X0121730Y0114000D01*
X0096480Y0114000D01*
X0137980Y0087132D02*
X0137980Y0087000D01*
X0132230Y0071750D02*
X0126730Y0071750D01*
X0128673Y0071557D01*
X0125848Y0071807D01*
X0119980Y0056500D02*
X0115230Y0051750D01*
X0114730Y0051750D01*
X0083480Y0039500D02*
X0057470Y0051260D01*
X0044970Y0057000D01*
X0060470Y0026750D02*
X0082980Y0027000D01*
X0013230Y0036250D02*
X0013230Y0036500D01*
X0013230Y0036250D02*
X0006980Y0036250D01*
X0006980Y0056800D01*
X0011980Y0056800D01*
X0028474Y0173256D02*
X0028474Y0173287D01*
D29*
X0028474Y0173006D01*
X0029480Y0172000D01*
X0038474Y0173287D02*
X0056480Y0173287D01*
X0056480Y0190256D01*
X0056467Y0190256D01*
X0078230Y0190256D01*
X0078230Y0197000D01*
X0102480Y0197000D01*
X0102480Y0208406D01*
X0102096Y0208406D01*
X0097230Y0215250D02*
X0202730Y0215250D01*
X0211230Y0210250D01*
X0211730Y0143000D01*
X0198730Y0142500D01*
X0192980Y0152250D01*
X0193073Y0152343D01*
X0193120Y0152343D01*
X0203120Y0152343D02*
X0203480Y0152343D01*
X0203480Y0173250D01*
X0203480Y0190295D01*
X0172490Y0190295D01*
X0172730Y0190295D01*
X0172730Y0202224D01*
X0150837Y0202224D01*
X0150980Y0202224D01*
X0150980Y0211000D01*
X0127230Y0211000D01*
X0127230Y0208406D01*
X0126900Y0208406D01*
X0116900Y0208406D02*
X0109730Y0208406D01*
X0109730Y0171000D01*
X0104230Y0171000D01*
X0104230Y0159980D01*
X0104498Y0159980D01*
X0099230Y0159980D01*
X0099230Y0147750D01*
X0080980Y0147750D01*
X0080980Y0136358D01*
X0080876Y0136358D01*
X0081230Y0136358D01*
X0081230Y0130250D01*
X0015230Y0130250D01*
X0015230Y0152106D01*
X0015285Y0152106D01*
X0025285Y0152106D02*
X0038480Y0152106D01*
X0038480Y0173287D01*
X0038474Y0173287D01*
X0078230Y0197000D02*
X0078230Y0202224D01*
X0078159Y0202224D01*
X0092096Y0208406D02*
X0092096Y0210116D01*
X0097230Y0215250D01*
X0123230Y0193500D02*
X0117230Y0187500D01*
X0117230Y0163250D01*
X0114230Y0160250D01*
X0114498Y0159982D01*
X0114498Y0159980D01*
X0114498Y0159482D01*
X0125980Y0148000D01*
X0137480Y0148000D01*
X0138230Y0148750D01*
X0137980Y0148750D01*
X0137980Y0159980D01*
X0138120Y0159980D01*
X0137980Y0148750D02*
X0137980Y0136358D01*
X0138120Y0136358D01*
X0137980Y0136358D02*
X0137980Y0135750D01*
X0133230Y0127500D02*
X0171480Y0127500D01*
X0171480Y0142250D01*
X0172230Y0142250D01*
X0162480Y0142250D02*
X0162480Y0173287D01*
X0127980Y0173287D01*
X0127980Y0183602D01*
X0128120Y0183602D01*
X0138120Y0183602D02*
X0138120Y0190360D01*
X0134980Y0193500D01*
X0123230Y0193500D01*
X0162480Y0173287D02*
X0180482Y0173287D01*
X0190230Y0173287D02*
X0190230Y0173250D01*
X0203480Y0173250D01*
X0190482Y0173287D02*
X0190230Y0173287D01*
X0190230Y0173500D01*
X0172730Y0190250D02*
X0172730Y0190295D01*
X0162480Y0142250D02*
X0162230Y0142250D01*
X0162480Y0142250D02*
X0162480Y0141500D01*
X0133230Y0127500D02*
X0090730Y0127500D01*
X0090730Y0131250D01*
X0091230Y0131250D01*
X0091230Y0136358D01*
X0090876Y0136358D01*
X0080980Y0136358D02*
X0080980Y0136000D01*
X0036230Y0075500D02*
X0029490Y0081000D01*
X0009490Y0081000D01*
X0044970Y0043000D02*
X0054980Y0043250D01*
X0016862Y0014384D02*
X0016862Y0005750D01*
X0099490Y0005750D01*
X0134480Y0005750D01*
D30*
X0089230Y0019500D03*
X0082980Y0027000D03*
X0083480Y0039500D03*
X0054980Y0043250D03*
X0040230Y0027250D03*
X0013230Y0036500D03*
X0009230Y0100500D03*
X0137230Y0066500D03*
X0144230Y0068250D03*
X0145980Y0062500D03*
X0167230Y0059250D03*
D31*
X0150730Y0044250D03*
X0140480Y0036500D03*
X0127730Y0048000D03*
X0114730Y0051750D03*
X0107980Y0011250D03*
X0180730Y0086250D03*
X0151230Y0097500D03*
X0122730Y0119500D03*
X0096480Y0114000D03*
X0101730Y0182000D03*
X0177230Y0159750D03*
X0204230Y0131750D03*
M02*
