G75*
%MOIN*%
%OFA0B0*%
%FSLAX25Y25*%
%IPPOS*%
%LPD*%
%AMOC8*
5,1,8,0,0,1.08239X$1,22.5*
%
%ADD10C,0.14798*%
%ADD11R,0.07200X0.04400*%
%ADD12R,0.04400X0.07200*%
%ADD13R,0.04800X0.10200*%
%ADD14R,0.07318X0.08499*%
%ADD15OC8,0.07800*%
%ADD16R,0.08600X0.08600*%
%ADD17OC8,0.08600*%
%ADD18R,0.08106X0.07318*%
%ADD19R,0.08499X0.07318*%
%ADD20R,0.07318X0.08106*%
%ADD21OC8,0.12200*%
%ADD22R,0.17161X0.07712*%
%ADD23R,0.17161X0.06924*%
%ADD24C,0.08200*%
%ADD25R,0.06137X0.07712*%
%ADD26C,0.06175*%
%ADD27C,0.06019*%
%ADD28R,0.05762X0.05762*%
%ADD29C,0.05762*%
D10*
X0020915Y0102675D03*
X0060285Y0102675D03*
D11*
X0125848Y0083006D03*
X0125848Y0079856D03*
X0125848Y0076707D03*
X0125848Y0073557D03*
X0125848Y0070407D03*
X0125848Y0067258D03*
X0125848Y0064108D03*
X0125848Y0060959D03*
X0159648Y0060959D03*
X0159648Y0064108D03*
X0159648Y0067258D03*
X0159648Y0070407D03*
X0159648Y0073557D03*
X0159648Y0076707D03*
X0159648Y0079856D03*
X0159648Y0083006D03*
D12*
X0153772Y0088882D03*
X0150622Y0088882D03*
X0147472Y0088882D03*
X0144323Y0088882D03*
X0141173Y0088882D03*
X0138024Y0088882D03*
X0134874Y0088882D03*
X0131724Y0088882D03*
X0131724Y0055082D03*
X0134874Y0055082D03*
X0138024Y0055082D03*
X0141173Y0055082D03*
X0144323Y0055082D03*
X0147472Y0055082D03*
X0150622Y0055082D03*
X0153772Y0055082D03*
D13*
X0134480Y0040850D03*
X0129480Y0040850D03*
X0124480Y0040850D03*
X0119480Y0040850D03*
X0119480Y0016650D03*
X0124480Y0016650D03*
X0129480Y0016650D03*
X0134480Y0016650D03*
D14*
X0062720Y0028750D03*
X0055240Y0028750D03*
X0055240Y0048750D03*
X0062720Y0048750D03*
X0062470Y0070500D03*
X0054990Y0070500D03*
D15*
X0080876Y0138108D03*
X0090876Y0138108D03*
X0090876Y0161730D03*
X0080876Y0161730D03*
X0104498Y0161730D03*
X0114498Y0161730D03*
X0128120Y0161730D03*
X0138120Y0161730D03*
X0138120Y0138108D03*
X0128120Y0138108D03*
X0162230Y0144000D03*
X0172230Y0144000D03*
X0193120Y0154093D03*
X0203120Y0154093D03*
X0190482Y0175037D03*
X0180482Y0175037D03*
X0172490Y0192045D03*
X0162490Y0192045D03*
X0150837Y0203974D03*
X0140837Y0203974D03*
X0126900Y0210156D03*
X0116900Y0210156D03*
X0102096Y0210156D03*
X0092096Y0210156D03*
X0078159Y0203974D03*
X0068159Y0203974D03*
X0056467Y0192006D03*
X0046467Y0192006D03*
X0038474Y0175037D03*
X0028474Y0175037D03*
X0025285Y0153856D03*
X0015285Y0153856D03*
X0047526Y0144730D03*
X0057526Y0144730D03*
X0080876Y0185352D03*
X0090876Y0185352D03*
X0128120Y0185352D03*
X0138120Y0185352D03*
D16*
X0208230Y0012750D03*
D17*
X0198230Y0012750D03*
X0198230Y0022750D03*
X0198230Y0032750D03*
X0208230Y0032750D03*
X0208230Y0022750D03*
D18*
X0173730Y0068010D03*
X0173730Y0075490D03*
D19*
X0194980Y0068240D03*
X0194980Y0060760D03*
X0204230Y0113260D03*
X0204230Y0120740D03*
X0185730Y0121740D03*
X0185730Y0114260D03*
X0164980Y0114260D03*
X0164980Y0121740D03*
X0133230Y0120740D03*
X0133230Y0113260D03*
D20*
X0110470Y0060750D03*
X0102990Y0060750D03*
X0102990Y0046000D03*
X0110470Y0046000D03*
X0198240Y0047250D03*
X0205720Y0047250D03*
D21*
X0172730Y0018750D03*
X0152480Y0018750D03*
D22*
X0107230Y0082750D03*
D23*
X0107230Y0092750D03*
X0107230Y0072750D03*
D24*
X0163480Y0052750D02*
X0163480Y0046750D01*
X0173480Y0046750D02*
X0173480Y0052750D01*
X0183480Y0052750D02*
X0183480Y0046750D01*
D25*
X0036970Y0060081D03*
X0029490Y0060081D03*
X0033230Y0051419D03*
X0016970Y0059831D03*
X0009490Y0059831D03*
X0013230Y0051169D03*
D26*
X0019421Y0020071D03*
X0016862Y0016134D03*
X0021980Y0016134D03*
X0024539Y0020071D03*
X0027098Y0016134D03*
D27*
X0007906Y0015091D02*
X0007906Y0018909D01*
X0036055Y0018909D02*
X0036055Y0015091D01*
D28*
X0107980Y0013000D03*
X0140980Y0038250D03*
X0150730Y0046250D03*
X0140230Y0066250D03*
X0127730Y0049750D03*
X0114730Y0053500D03*
X0150980Y0097000D03*
X0159480Y0088250D03*
X0122730Y0121250D03*
X0107230Y0112750D03*
X0177230Y0161500D03*
X0204230Y0133500D03*
X0101730Y0183750D03*
D29*
X0146480Y0064000D03*
X0164730Y0061000D03*
X0083480Y0041250D03*
X0073980Y0038750D03*
X0082980Y0028750D03*
X0040230Y0029000D03*
X0013230Y0038250D03*
M02*
