G75*
%MOIN*%
%OFA0B0*%
%FSLAX25Y25*%
%IPPOS*%
%LPD*%
%AMOC8*
5,1,8,0,0,1.08239X$1,22.5*
%
%ADD10C,0.14798*%
%ADD11OC8,0.07800*%
%ADD12R,0.08600X0.08600*%
%ADD13OC8,0.08600*%
%ADD14OC8,0.12200*%
%ADD15C,0.08200*%
%ADD16C,0.06175*%
%ADD17C,0.06019*%
%ADD18R,0.08499X0.09298*%
%ADD19R,0.05762X0.05762*%
%ADD20C,0.05762*%
D10*
X0020915Y0102675D03*
X0060285Y0102675D03*
D11*
X0080876Y0138108D03*
X0090876Y0138108D03*
X0090876Y0161730D03*
X0080876Y0161730D03*
X0104498Y0161730D03*
X0114498Y0161730D03*
X0128120Y0161730D03*
X0138120Y0161730D03*
X0138120Y0138108D03*
X0128120Y0138108D03*
X0162230Y0144000D03*
X0172230Y0144000D03*
X0193120Y0154093D03*
X0203120Y0154093D03*
X0190482Y0175037D03*
X0180482Y0175037D03*
X0172490Y0192045D03*
X0162490Y0192045D03*
X0150837Y0203974D03*
X0140837Y0203974D03*
X0126900Y0210156D03*
X0116900Y0210156D03*
X0102096Y0210156D03*
X0092096Y0210156D03*
X0078159Y0203974D03*
X0068159Y0203974D03*
X0056467Y0192006D03*
X0046467Y0192006D03*
X0038474Y0175037D03*
X0028474Y0175037D03*
X0025285Y0153856D03*
X0015285Y0153856D03*
X0047526Y0144730D03*
X0057526Y0144730D03*
X0080876Y0185352D03*
X0090876Y0185352D03*
X0128120Y0185352D03*
X0138120Y0185352D03*
D12*
X0208230Y0012750D03*
D13*
X0198230Y0012750D03*
X0198230Y0022750D03*
X0198230Y0032750D03*
X0208230Y0032750D03*
X0208230Y0022750D03*
D14*
X0172730Y0018750D03*
X0152480Y0018750D03*
D15*
X0163480Y0046750D02*
X0163480Y0052750D01*
X0173480Y0052750D02*
X0173480Y0046750D01*
X0183480Y0046750D02*
X0183480Y0052750D01*
D16*
X0027098Y0016134D03*
X0024539Y0020071D03*
X0021980Y0016134D03*
X0019421Y0020071D03*
X0016862Y0016134D03*
D17*
X0007906Y0015091D02*
X0007906Y0018909D01*
X0036055Y0018909D02*
X0036055Y0015091D01*
D18*
X0051632Y0013000D03*
X0062829Y0013000D03*
D19*
X0107980Y0013000D03*
X0140980Y0038250D03*
X0150730Y0046250D03*
X0140230Y0066250D03*
X0127730Y0049750D03*
X0114730Y0053500D03*
X0150980Y0097000D03*
X0159480Y0088250D03*
X0122730Y0121250D03*
X0107230Y0112750D03*
X0177230Y0161500D03*
X0204230Y0133500D03*
X0101730Y0183750D03*
D20*
X0146480Y0064000D03*
X0164730Y0061000D03*
X0083480Y0041250D03*
X0073980Y0038750D03*
X0082980Y0028750D03*
X0040230Y0029000D03*
X0013230Y0038250D03*
M02*
