G75*
G70*
%OFA0B0*%
%FSLAX24Y24*%
%IPPOS*%
%LPD*%
%AMOC8*
5,1,8,0,0,1.08239X$1,22.5*
%
%ADD10C,0.0000*%
%ADD11C,0.0060*%
%ADD12C,0.0030*%
%ADD13C,0.0020*%
%ADD14C,0.0050*%
%ADD15C,0.0040*%
%ADD16C,0.0010*%
D10*
X001020Y001653D02*
X000995Y023298D01*
X022612Y023298D01*
X022587Y001678D01*
X001020Y001653D01*
D11*
X005449Y007828D02*
X005449Y007865D01*
X005449Y007828D02*
X006087Y007828D01*
X006087Y007865D01*
X006087Y008182D02*
X006087Y008219D01*
X006087Y008556D02*
X006087Y008594D01*
X006087Y008911D02*
X006087Y008948D01*
X005449Y008948D01*
X005449Y008911D01*
X005449Y008594D02*
X005449Y008556D01*
X005449Y008219D02*
X005449Y008182D01*
X005552Y007994D02*
X005554Y008007D01*
X005560Y008018D01*
X005570Y008027D01*
X005581Y008032D01*
X005594Y008033D01*
X005607Y008030D01*
X005617Y008023D01*
X005625Y008013D01*
X005629Y008000D01*
X005629Y007988D01*
X005625Y007975D01*
X005617Y007965D01*
X005607Y007958D01*
X005594Y007955D01*
X005581Y007956D01*
X005570Y007961D01*
X005560Y007970D01*
X005554Y007981D01*
X005552Y007994D01*
X012593Y004733D02*
X012593Y003493D01*
X012595Y003470D01*
X012600Y003447D01*
X012609Y003425D01*
X012622Y003405D01*
X012637Y003387D01*
X012655Y003372D01*
X012675Y003359D01*
X012697Y003350D01*
X012720Y003345D01*
X012743Y003343D01*
X014443Y003343D01*
X014466Y003345D01*
X014489Y003350D01*
X014511Y003359D01*
X014531Y003372D01*
X014549Y003387D01*
X014564Y003405D01*
X014577Y003425D01*
X014586Y003447D01*
X014591Y003470D01*
X014593Y003493D01*
X014593Y004733D01*
X014591Y004756D01*
X014586Y004779D01*
X014577Y004801D01*
X014564Y004821D01*
X014549Y004839D01*
X014531Y004854D01*
X014511Y004867D01*
X014489Y004876D01*
X014466Y004881D01*
X014443Y004883D01*
X012743Y004883D01*
X012720Y004881D01*
X012697Y004876D01*
X012675Y004867D01*
X012655Y004854D01*
X012637Y004839D01*
X012622Y004821D01*
X012609Y004801D01*
X012600Y004779D01*
X012595Y004756D01*
X012593Y004733D01*
X012593Y004313D02*
X012620Y004311D01*
X012647Y004306D01*
X012673Y004296D01*
X012697Y004284D01*
X012719Y004268D01*
X012739Y004250D01*
X012756Y004228D01*
X012771Y004205D01*
X012781Y004180D01*
X012789Y004154D01*
X012793Y004127D01*
X012793Y004099D01*
X012789Y004072D01*
X012781Y004046D01*
X012771Y004021D01*
X012756Y003998D01*
X012739Y003976D01*
X012719Y003958D01*
X012697Y003942D01*
X012673Y003930D01*
X012647Y003920D01*
X012620Y003915D01*
X012593Y003913D01*
X013930Y007056D02*
X013790Y007196D01*
X013790Y009816D01*
X016550Y009816D01*
X016550Y007056D01*
X013930Y007056D01*
X013949Y007356D02*
X013951Y007380D01*
X013957Y007403D01*
X013967Y007425D01*
X013980Y007445D01*
X013997Y007462D01*
X014016Y007476D01*
X014037Y007487D01*
X014060Y007494D01*
X014084Y007497D01*
X014108Y007496D01*
X014131Y007491D01*
X014153Y007482D01*
X014174Y007469D01*
X014192Y007454D01*
X014207Y007435D01*
X014218Y007414D01*
X014226Y007392D01*
X014230Y007368D01*
X014230Y007344D01*
X014226Y007320D01*
X014218Y007298D01*
X014207Y007277D01*
X014192Y007258D01*
X014174Y007243D01*
X014153Y007230D01*
X014131Y007221D01*
X014108Y007216D01*
X014084Y007215D01*
X014060Y007218D01*
X014037Y007225D01*
X014016Y007236D01*
X013997Y007250D01*
X013980Y007267D01*
X013967Y007287D01*
X013957Y007309D01*
X013951Y007332D01*
X013949Y007356D01*
D12*
X014263Y006421D02*
X014263Y006131D01*
X014359Y006131D02*
X014166Y006131D01*
X014359Y006325D02*
X014263Y006421D01*
X014461Y006373D02*
X014509Y006421D01*
X014606Y006421D01*
X014654Y006373D01*
X014654Y006180D01*
X014606Y006131D01*
X014509Y006131D01*
X014461Y006180D01*
X014754Y006131D02*
X014850Y006131D01*
X014802Y006131D02*
X014802Y006421D01*
X014850Y006421D02*
X014754Y006421D01*
X005453Y004983D02*
X005083Y004983D01*
X005083Y004860D02*
X005083Y005107D01*
X005330Y004860D02*
X005453Y004983D01*
X005392Y004738D02*
X005453Y004677D01*
X005453Y004553D01*
X005392Y004491D01*
X005145Y004491D01*
X005083Y004553D01*
X005083Y004677D01*
X005145Y004738D01*
D13*
X012593Y004743D02*
X014593Y004743D01*
D14*
X014571Y004188D02*
X014721Y004188D01*
X014646Y004188D02*
X014646Y003738D01*
X014721Y003738D02*
X014571Y003738D01*
X014414Y003813D02*
X014414Y004113D01*
X014339Y004188D01*
X014189Y004188D01*
X014114Y004113D01*
X013953Y004113D02*
X013878Y004188D01*
X013728Y004188D01*
X013653Y004113D01*
X013653Y004038D01*
X013953Y003738D01*
X013653Y003738D01*
X014114Y003813D02*
X014189Y003738D01*
X014339Y003738D01*
X014414Y003813D01*
X012118Y008013D02*
X011118Y008013D01*
X011118Y011013D01*
X012118Y011013D01*
X012118Y008013D01*
X004193Y007138D02*
X001693Y007138D01*
X001693Y009638D01*
X004193Y009638D01*
X004193Y007138D01*
D15*
X004343Y006668D02*
X004496Y006668D01*
X004573Y006592D01*
X004573Y006285D01*
X004496Y006208D01*
X004343Y006208D01*
X004266Y006285D01*
X004113Y006438D02*
X003806Y006438D01*
X003882Y006208D02*
X003882Y006668D01*
X004113Y006438D01*
X004266Y006592D02*
X004343Y006668D01*
X005856Y007233D02*
X006163Y007233D01*
X005856Y007540D01*
X005856Y007617D01*
X005932Y007693D01*
X006086Y007693D01*
X006163Y007617D01*
X006316Y007617D02*
X006393Y007693D01*
X006546Y007693D01*
X006623Y007617D01*
X006623Y007310D01*
X006546Y007233D01*
X006393Y007233D01*
X006316Y007310D01*
X006538Y007658D02*
X006538Y007811D01*
X006538Y007735D02*
X006998Y007735D01*
X006998Y007811D02*
X006998Y007658D01*
X006922Y007965D02*
X006615Y007965D01*
X006538Y008042D01*
X006538Y008195D01*
X006615Y008272D01*
X006615Y008425D02*
X006538Y008502D01*
X006538Y008655D01*
X006615Y008732D01*
X006691Y008732D01*
X006768Y008655D01*
X006768Y008579D01*
X006768Y008655D02*
X006845Y008732D01*
X006922Y008732D01*
X006998Y008655D01*
X006998Y008502D01*
X006922Y008425D01*
X006922Y008272D02*
X006998Y008195D01*
X006998Y008042D01*
X006922Y007965D01*
X008413Y006849D02*
X008413Y006695D01*
X008490Y006618D01*
X008643Y006618D02*
X008720Y006772D01*
X008720Y006849D01*
X008643Y006925D01*
X008490Y006925D01*
X008413Y006849D01*
X008643Y006618D02*
X008873Y006618D01*
X008873Y006925D01*
X008797Y006465D02*
X008643Y006465D01*
X008566Y006388D01*
X008566Y006158D01*
X008413Y006158D02*
X008873Y006158D01*
X008873Y006388D01*
X008797Y006465D01*
X008566Y006311D02*
X008413Y006465D01*
X008470Y004879D02*
X008393Y004803D01*
X008316Y004879D01*
X008240Y004879D01*
X008163Y004803D01*
X008163Y004649D01*
X008240Y004573D01*
X008163Y004419D02*
X008316Y004266D01*
X008316Y004342D02*
X008316Y004112D01*
X008163Y004112D02*
X008623Y004112D01*
X008623Y004342D01*
X008547Y004419D01*
X008393Y004419D01*
X008316Y004342D01*
X008547Y004573D02*
X008623Y004649D01*
X008623Y004803D01*
X008547Y004879D01*
X008470Y004879D01*
X008393Y004803D02*
X008393Y004726D01*
X008357Y003493D02*
X008511Y003493D01*
X008588Y003417D01*
X008741Y003417D02*
X008741Y003263D01*
X008818Y003186D01*
X009048Y003186D01*
X009048Y003033D02*
X009048Y003493D01*
X008818Y003493D01*
X008741Y003417D01*
X008895Y003186D02*
X008741Y003033D01*
X008588Y003033D02*
X008281Y003340D01*
X008281Y003417D01*
X008357Y003493D01*
X008281Y003033D02*
X008588Y003033D01*
X010201Y003036D02*
X010201Y002960D01*
X010278Y002883D01*
X010432Y002883D01*
X010508Y002960D01*
X010508Y003113D01*
X010278Y003113D01*
X010201Y003036D01*
X010355Y003267D02*
X010201Y003343D01*
X010355Y003267D02*
X010508Y003113D01*
X010662Y002960D02*
X010739Y002883D01*
X010892Y002883D01*
X010969Y002960D01*
X010969Y003267D01*
X010892Y003343D01*
X010739Y003343D01*
X010662Y003267D01*
X011338Y002924D02*
X011415Y003000D01*
X011491Y003000D01*
X011568Y002924D01*
X011568Y002693D01*
X011415Y002693D01*
X011338Y002770D01*
X011338Y002924D01*
X011568Y002693D02*
X011722Y002847D01*
X011798Y003000D01*
X011722Y002540D02*
X011568Y002540D01*
X011491Y002463D01*
X011491Y002233D01*
X011338Y002233D02*
X011798Y002233D01*
X011798Y002463D01*
X011722Y002540D01*
X011491Y002386D02*
X011338Y002540D01*
X011278Y004858D02*
X011201Y004935D01*
X011201Y005242D01*
X011278Y005318D01*
X011432Y005318D01*
X011508Y005242D01*
X011508Y005165D01*
X011432Y005088D01*
X011201Y005088D01*
X011278Y004858D02*
X011432Y004858D01*
X011508Y004935D01*
X011662Y004935D02*
X011739Y004858D01*
X011892Y004858D01*
X011969Y004935D01*
X011969Y005242D01*
X011892Y005318D01*
X011739Y005318D01*
X011662Y005242D01*
X011662Y006333D02*
X011969Y006333D01*
X011815Y006333D02*
X011815Y006793D01*
X011969Y006640D01*
X012122Y006717D02*
X012199Y006793D01*
X012352Y006793D01*
X012429Y006717D01*
X012429Y006410D01*
X012352Y006333D01*
X012199Y006333D01*
X012122Y006410D01*
X011508Y006333D02*
X011201Y006640D01*
X011201Y006717D01*
X011278Y006793D01*
X011432Y006793D01*
X011508Y006717D01*
X011508Y006333D02*
X011201Y006333D01*
X006873Y010983D02*
X006413Y010983D01*
X006566Y010983D02*
X006566Y011213D01*
X006643Y011290D01*
X006797Y011290D01*
X006873Y011213D01*
X006873Y010983D01*
X006566Y011136D02*
X006413Y011290D01*
X006643Y011443D02*
X006643Y011750D01*
X006413Y011674D02*
X006873Y011674D01*
X006643Y011443D01*
X004648Y010699D02*
X004648Y010545D01*
X004572Y010468D01*
X004572Y010315D02*
X004648Y010238D01*
X004648Y010085D01*
X004572Y010008D01*
X004265Y010008D01*
X004188Y010085D01*
X004188Y010238D01*
X004265Y010315D01*
X004265Y010468D02*
X004188Y010545D01*
X004188Y010699D01*
X004265Y010775D01*
X004341Y010775D01*
X004418Y010699D01*
X004418Y010622D01*
X004418Y010699D02*
X004495Y010775D01*
X004572Y010775D01*
X004648Y010699D01*
X004471Y005118D02*
X004318Y005118D01*
X004241Y005042D01*
X004088Y005118D02*
X004088Y004888D01*
X003934Y004965D01*
X003857Y004965D01*
X003781Y004888D01*
X003781Y004735D01*
X003857Y004658D01*
X004011Y004658D01*
X004088Y004735D01*
X004241Y004735D02*
X004318Y004658D01*
X004471Y004658D01*
X004548Y004735D01*
X004548Y005042D01*
X004471Y005118D01*
X004088Y005118D02*
X003781Y005118D01*
X003918Y003493D02*
X003841Y003417D01*
X003841Y003263D01*
X003918Y003186D01*
X004148Y003186D01*
X004148Y003033D02*
X004148Y003493D01*
X003918Y003493D01*
X003688Y003340D02*
X003534Y003493D01*
X003534Y003033D01*
X003381Y003033D02*
X003688Y003033D01*
X003841Y003033D02*
X003995Y003186D01*
X014638Y012558D02*
X015098Y012558D01*
X015098Y012788D01*
X015022Y012865D01*
X014868Y012865D01*
X014791Y012788D01*
X014791Y012558D01*
X014791Y012711D02*
X014638Y012865D01*
X014638Y013018D02*
X014715Y013018D01*
X015022Y013325D01*
X015098Y013325D01*
X015098Y013018D01*
X017813Y012965D02*
X017966Y012811D01*
X017966Y012888D02*
X017966Y012658D01*
X017813Y012658D02*
X018273Y012658D01*
X018273Y012888D01*
X018197Y012965D01*
X018043Y012965D01*
X017966Y012888D01*
X017966Y013118D02*
X018043Y013195D01*
X018043Y013349D01*
X017966Y013425D01*
X017890Y013425D01*
X017813Y013349D01*
X017813Y013195D01*
X017890Y013118D01*
X017966Y013118D01*
X018043Y013195D02*
X018120Y013118D01*
X018197Y013118D01*
X018273Y013195D01*
X018273Y013349D01*
X018197Y013425D01*
X018120Y013425D01*
X018043Y013349D01*
X019888Y013349D02*
X019888Y013195D01*
X019965Y013118D01*
X019888Y012965D02*
X020041Y012811D01*
X020041Y012888D02*
X020041Y012658D01*
X019888Y012658D02*
X020348Y012658D01*
X020348Y012888D01*
X020272Y012965D01*
X020118Y012965D01*
X020041Y012888D01*
X020195Y013118D02*
X020118Y013195D01*
X020118Y013425D01*
X019965Y013425D02*
X020272Y013425D01*
X020348Y013349D01*
X020348Y013195D01*
X020272Y013118D01*
X020195Y013118D01*
X019965Y013425D02*
X019888Y013349D01*
X021988Y013400D02*
X021988Y013093D01*
X021988Y012940D02*
X022141Y012786D01*
X022141Y012863D02*
X022141Y012633D01*
X021988Y012633D02*
X022448Y012633D01*
X022448Y012863D01*
X022372Y012940D01*
X022218Y012940D01*
X022141Y012863D01*
X022295Y013093D02*
X022448Y013247D01*
X021988Y013247D01*
X022065Y013554D02*
X022372Y013861D01*
X022065Y013861D01*
X021988Y013784D01*
X021988Y013630D01*
X022065Y013554D01*
X022372Y013554D01*
X022448Y013630D01*
X022448Y013784D01*
X022372Y013861D01*
X019248Y008700D02*
X019172Y008700D01*
X018865Y008393D01*
X018788Y008393D01*
X018865Y008240D02*
X018788Y008163D01*
X018788Y008010D01*
X018865Y007933D01*
X019172Y007933D01*
X019248Y008010D01*
X019248Y008163D01*
X019172Y008240D01*
X019248Y008393D02*
X019248Y008700D01*
X020878Y005593D02*
X020801Y005517D01*
X020801Y005440D01*
X020878Y005363D01*
X021032Y005363D01*
X021108Y005440D01*
X021108Y005517D01*
X021032Y005593D01*
X020878Y005593D01*
X020878Y005363D02*
X020801Y005286D01*
X020801Y005210D01*
X020878Y005133D01*
X021032Y005133D01*
X021108Y005210D01*
X021108Y005286D01*
X021032Y005363D01*
X021262Y005210D02*
X021339Y005133D01*
X021492Y005133D01*
X021569Y005210D01*
X021569Y005517D01*
X021492Y005593D01*
X021339Y005593D01*
X021262Y005517D01*
D16*
X012648Y008293D02*
X012648Y008343D01*
X012623Y008368D01*
X012523Y008368D01*
X012498Y008343D01*
X012498Y008293D01*
X012523Y008268D01*
X012623Y008268D01*
X012648Y008293D01*
X012548Y008318D02*
X012498Y008368D01*
X012498Y008415D02*
X012598Y008515D01*
X012623Y008515D01*
X012648Y008490D01*
X012648Y008440D01*
X012623Y008415D01*
X012498Y008415D02*
X012498Y008515D01*
M02*
