G75*
G70*
%OFA0B0*%
%FSLAX24Y24*%
%IPPOS*%
%LPD*%
%AMOC8*
5,1,8,0,0,1.08239X$1,22.5*
%
%ADD10OC8,0.1220*%
%ADD11OC8,0.0780*%
%ADD12R,0.0860X0.0860*%
%ADD13OC8,0.0860*%
%ADD14R,0.0656X0.0656*%
%ADD15C,0.0656*%
D10*
X002143Y003788D03*
X002968Y012038D03*
X016143Y003113D03*
X018168Y003113D03*
D11*
X014707Y015049D03*
X013707Y015049D03*
X013707Y017411D03*
X014707Y017411D03*
X017118Y015638D03*
X018118Y015638D03*
X020207Y016647D03*
X021207Y016647D03*
X019943Y018742D03*
X018943Y018742D03*
X018144Y020443D03*
X017144Y020443D03*
X015979Y021635D03*
X014979Y021635D03*
X013585Y022254D03*
X012585Y022254D03*
X011105Y022254D03*
X010105Y022254D03*
X008711Y021635D03*
X007711Y021635D03*
X006542Y020439D03*
X005542Y020439D03*
X004742Y018742D03*
X003742Y018742D03*
X003423Y016624D03*
X002423Y016624D03*
X005647Y015711D03*
X006647Y015711D03*
X008983Y015049D03*
X009983Y015049D03*
X009983Y017411D03*
X008983Y017411D03*
X011345Y017411D03*
X012345Y017411D03*
X013707Y019773D03*
X014707Y019773D03*
X009983Y019773D03*
X008983Y019773D03*
D12*
X021718Y002513D03*
D13*
X021718Y003513D03*
X021718Y004513D03*
X020718Y004513D03*
X020718Y003513D03*
X020718Y002513D03*
D14*
X001893Y002188D03*
X006443Y004213D03*
X006568Y007513D03*
X004343Y010863D03*
X011193Y004938D03*
X012368Y006588D03*
X013668Y006213D03*
X014893Y005563D03*
X013168Y004088D03*
X015093Y007663D03*
X016843Y010063D03*
X016068Y010938D03*
X013168Y013363D03*
X011618Y012513D03*
X018618Y017388D03*
X021568Y014588D03*
X021543Y007188D03*
X018943Y006788D03*
D15*
X012393Y002088D03*
M02*
