G75*
%MOIN*%
%OFA0B0*%
%FSLAX25Y25*%
%IPPOS*%
%LPD*%
%AMOC8*
5,1,8,0,0,1.08239X$1,22.5*
%
%ADD10OC8,0.05400*%
%ADD11R,0.06200X0.06200*%
%ADD12OC8,0.06200*%
%ADD13OC8,0.10200*%
%ADD14C,0.05800*%
%ADD15C,0.03775*%
%ADD16C,0.04019*%
%ADD17R,0.06499X0.07298*%
%ADD18R,0.06106X0.05712*%
%ADD19C,0.05400*%
D10*
X0080876Y0136358D03*
X0090876Y0136358D03*
X0090876Y0159980D03*
X0080876Y0159980D03*
X0057526Y0142980D03*
X0047526Y0142980D03*
X0025285Y0152106D03*
X0015285Y0152106D03*
X0028474Y0173287D03*
X0038474Y0173287D03*
X0046467Y0190256D03*
X0056467Y0190256D03*
X0068159Y0202224D03*
X0078159Y0202224D03*
X0092096Y0208406D03*
X0102096Y0208406D03*
X0116900Y0208406D03*
X0126900Y0208406D03*
X0140837Y0202224D03*
X0150837Y0202224D03*
X0162490Y0190295D03*
X0172490Y0190295D03*
X0180482Y0173287D03*
X0190482Y0173287D03*
X0193120Y0152343D03*
X0203120Y0152343D03*
X0172230Y0142250D03*
X0162230Y0142250D03*
X0138120Y0136358D03*
X0128120Y0136358D03*
X0128120Y0159980D03*
X0138120Y0159980D03*
X0114498Y0159980D03*
X0104498Y0159980D03*
X0090876Y0183602D03*
X0080876Y0183602D03*
X0128120Y0183602D03*
X0138120Y0183602D03*
D11*
X0208230Y0011000D03*
D12*
X0198230Y0011000D03*
X0198230Y0021000D03*
X0208230Y0021000D03*
X0208230Y0031000D03*
X0198230Y0031000D03*
D13*
X0172730Y0017000D03*
X0152480Y0017000D03*
D14*
X0163480Y0045200D02*
X0163480Y0050800D01*
X0173480Y0050800D02*
X0173480Y0045200D01*
X0183480Y0045200D02*
X0183480Y0050800D01*
D15*
X0027098Y0014384D03*
X0024539Y0018321D03*
X0021980Y0014384D03*
X0019421Y0018321D03*
X0016862Y0014384D03*
D16*
X0007906Y0013341D02*
X0007906Y0017159D01*
X0036055Y0017159D02*
X0036055Y0013341D01*
D17*
X0051632Y0011250D03*
X0062829Y0011250D03*
D18*
X0058781Y0093392D03*
X0058781Y0111108D03*
X0027679Y0111108D03*
X0027679Y0093392D03*
D19*
X0096980Y0090250D03*
X0096980Y0070250D03*
M02*
