%
M48
M72
T01C0.0138
T02C0.0157
T03C0.0236
T04C0.0320
T05C0.0360
T06C0.0400
%
T01
X791Y1525
X3606Y1525
T02
X2710Y1438
X2454Y1832
X2198Y1438
X1942Y1832
X1686Y1438
T03
X1323Y3650
X4023Y2725
X5498Y4325
X8298Y2700
X8923Y1950
X10798Y1125
X8348Y3950
X11473Y5175
X12773Y4800
X14048Y3650
X15073Y4425
X14598Y6250
X14423Y6825
X13723Y6650
X16723Y5925
X18073Y8625
X15123Y9750
X12273Y11950
X9648Y11400
X10173Y18200
X17723Y15975
X20423Y13175
X923Y10050
T04
X4753Y14298
X5753Y14298
X8088Y13636
X9088Y13636
X9088Y15998
X8088Y15998
X10450Y15998
X11450Y15998
X12812Y15998
X13812Y15998
X13812Y13636
X12812Y13636
X16223Y14225
X17223Y14225
X19312Y15234
X20312Y15234
X19048Y17329
X18048Y17329
X17249Y19030
X16249Y19030
X15084Y20222
X14084Y20222
X12690Y20841
X11690Y20841
X10210Y20841
X9210Y20841
X7816Y20222
X6816Y20222
X5647Y19026
X4647Y19026
X3847Y17329
X2847Y17329
X2529Y15211
X1529Y15211
X8088Y18360
X9088Y18360
X12812Y18360
X13812Y18360
X9698Y9025
X9698Y7025
T05
X16348Y4800
X17348Y4800
X18348Y4800
T06
X19823Y3100
X20823Y3100
X20823Y2100
X19823Y2100
X19823Y1100
X20823Y1100
X17273Y1700
X15248Y1700
M30
