G75*
%MOIN*%
%OFA0B0*%
%FSLAX25Y25*%
%IPPOS*%
%LPD*%
%AMOC8*
5,1,8,0,0,1.08239X$1,22.5*
%
%ADD10OC8,0.05200*%
%ADD11R,0.06000X0.06000*%
%ADD12OC8,0.06000*%
%ADD13OC8,0.10000*%
%ADD14C,0.05600*%
%ADD15C,0.03575*%
%ADD16C,0.03819*%
%ADD17R,0.06299X0.07098*%
%ADD18R,0.05906X0.05512*%
%ADD19C,0.05200*%
%ADD20C,0.02400*%
%ADD21C,0.03200*%
%ADD22C,0.03562*%
%ADD23C,0.01600*%
%ADD24R,0.03562X0.03562*%
%ADD25C,0.01200*%
D10*
X0080876Y0136358D03*
X0090876Y0136358D03*
X0090876Y0159980D03*
X0080876Y0159980D03*
X0057526Y0142980D03*
X0047526Y0142980D03*
X0025285Y0152106D03*
X0015285Y0152106D03*
X0028474Y0173287D03*
X0038474Y0173287D03*
X0046467Y0190256D03*
X0056467Y0190256D03*
X0068159Y0202224D03*
X0078159Y0202224D03*
X0092096Y0208406D03*
X0102096Y0208406D03*
X0116900Y0208406D03*
X0126900Y0208406D03*
X0140837Y0202224D03*
X0150837Y0202224D03*
X0162490Y0190295D03*
X0172490Y0190295D03*
X0180482Y0173287D03*
X0190482Y0173287D03*
X0193120Y0152343D03*
X0203120Y0152343D03*
X0172230Y0142250D03*
X0162230Y0142250D03*
X0138120Y0136358D03*
X0128120Y0136358D03*
X0128120Y0159980D03*
X0138120Y0159980D03*
X0114498Y0159980D03*
X0104498Y0159980D03*
X0090876Y0183602D03*
X0080876Y0183602D03*
X0128120Y0183602D03*
X0138120Y0183602D03*
D11*
X0208230Y0011000D03*
D12*
X0198230Y0011000D03*
X0198230Y0021000D03*
X0208230Y0021000D03*
X0208230Y0031000D03*
X0198230Y0031000D03*
D13*
X0172730Y0017000D03*
X0152480Y0017000D03*
D14*
X0163480Y0045200D02*
X0163480Y0050800D01*
X0173480Y0050800D02*
X0173480Y0045200D01*
X0183480Y0045200D02*
X0183480Y0050800D01*
D15*
X0027098Y0014384D03*
X0024539Y0018321D03*
X0021980Y0014384D03*
X0019421Y0018321D03*
X0016862Y0014384D03*
D16*
X0007906Y0013341D02*
X0007906Y0017159D01*
X0036055Y0017159D02*
X0036055Y0013341D01*
D17*
X0051632Y0011250D03*
X0062829Y0011250D03*
D18*
X0058781Y0093392D03*
X0058781Y0111108D03*
X0027679Y0111108D03*
X0027679Y0093392D03*
D19*
X0096980Y0090250D03*
X0096980Y0070250D03*
D20*
X0058781Y0093392D02*
X0027679Y0093392D01*
X0027679Y0111108D02*
X0009230Y0111108D01*
X0009230Y0100500D01*
X0027679Y0111108D02*
X0058781Y0111108D01*
X0035980Y0015500D02*
X0036055Y0015250D01*
X0016862Y0014384D02*
X0007906Y0014634D01*
X0007906Y0015250D01*
D21*
X0007730Y0023750D01*
X0035980Y0023750D01*
X0035980Y0015500D01*
X0027230Y0014384D02*
X0027230Y0006000D01*
X0051632Y0006000D01*
X0051632Y0011250D01*
X0062829Y0011250D02*
X0073992Y0011250D01*
X0073992Y0011245D01*
X0073744Y0011239D01*
X0089230Y0011244D01*
X0107980Y0011250D01*
X0073980Y0012250D02*
X0073744Y0011239D01*
X0073980Y0012250D02*
X0054980Y0043250D01*
X0027230Y0014384D02*
X0027098Y0014384D01*
X0090480Y0136250D02*
X0090589Y0136358D01*
X0090980Y0136750D01*
X0090980Y0147000D01*
X0090230Y0147750D01*
X0089980Y0147750D01*
X0095730Y0147750D01*
X0096980Y0149000D01*
X0096980Y0176750D01*
X0093730Y0180000D01*
X0093730Y0181000D01*
X0091128Y0183602D01*
X0090876Y0183602D01*
X0086480Y0189000D02*
X0118480Y0189000D01*
X0123230Y0193750D01*
X0123230Y0194000D01*
X0131480Y0202250D01*
X0140980Y0202250D01*
X0141006Y0202224D01*
X0140837Y0202224D01*
X0141006Y0202224D02*
X0141230Y0202000D01*
X0159026Y0190295D02*
X0128230Y0159500D01*
X0128120Y0159610D01*
X0128120Y0159980D01*
X0144073Y0152343D02*
X0128089Y0136358D01*
X0128120Y0136358D01*
X0128089Y0136358D02*
X0127980Y0136250D01*
X0144073Y0152343D02*
X0193120Y0152343D01*
X0180480Y0173000D02*
X0180482Y0173002D01*
X0181230Y0173750D01*
X0181230Y0209000D01*
X0176230Y0214000D01*
X0113230Y0214000D01*
X0109980Y0210750D01*
X0109980Y0197000D01*
X0087230Y0197000D01*
X0084230Y0210000D01*
X0080730Y0213500D01*
X0068230Y0213500D01*
X0068159Y0213429D01*
X0068159Y0202224D01*
X0059333Y0183602D02*
X0056230Y0180250D01*
X0041480Y0180250D01*
X0038730Y0183000D01*
X0031230Y0183000D01*
X0027768Y0173287D01*
X0028474Y0173287D01*
X0027768Y0173287D02*
X0027480Y0173000D01*
X0016980Y0190250D02*
X0046230Y0190250D01*
X0046467Y0190014D01*
X0046467Y0190256D01*
X0046467Y0190014D02*
X0046480Y0190000D01*
X0059333Y0183602D02*
X0080876Y0183602D01*
X0081083Y0183602D01*
X0086480Y0189000D01*
X0080876Y0183602D02*
X0080876Y0160104D01*
X0080980Y0160000D01*
X0080961Y0159980D01*
X0080876Y0159980D01*
X0089980Y0147750D02*
X0062230Y0147750D01*
X0057480Y0143000D01*
X0057500Y0142980D01*
X0057526Y0142980D01*
X0047526Y0142980D02*
X0011000Y0142980D01*
X0006730Y0147250D01*
X0006730Y0180000D01*
X0016980Y0190250D01*
X0090589Y0136358D02*
X0090876Y0136358D01*
X0159026Y0190295D02*
X0162490Y0190295D01*
X0180482Y0173287D02*
X0180482Y0173002D01*
D22*
X0144230Y0068250D03*
X0145980Y0062500D03*
X0137230Y0066500D03*
X0167230Y0059250D03*
X0089230Y0019500D03*
X0082980Y0027000D03*
X0083480Y0039500D03*
X0054980Y0043250D03*
X0040230Y0027250D03*
X0013230Y0036500D03*
X0009230Y0100500D03*
D23*
X0003230Y0005750D02*
X0021980Y0005750D01*
X0021980Y0014384D01*
X0013230Y0030500D02*
X0003230Y0030500D01*
X0003230Y0005750D01*
X0013230Y0030500D02*
X0013230Y0036500D01*
X0040230Y0036500D01*
X0040230Y0027250D01*
X0089230Y0019500D02*
X0089230Y0011244D01*
X0107980Y0011250D02*
X0107980Y0006750D01*
X0191480Y0006750D01*
X0197480Y0011000D01*
X0198230Y0011000D01*
X0208230Y0011000D02*
X0213980Y0011000D01*
X0213480Y0011250D01*
X0213480Y0086500D01*
X0180730Y0086250D01*
X0151230Y0097500D02*
X0150730Y0064000D01*
X0150730Y0044250D01*
X0140480Y0036500D02*
X0192230Y0036250D01*
X0208230Y0036250D01*
X0208230Y0031000D01*
X0114480Y0159750D02*
X0114498Y0159768D01*
X0117480Y0162750D01*
X0117480Y0182250D01*
X0117230Y0182000D01*
X0101730Y0182000D01*
X0114498Y0159980D02*
X0114498Y0159768D01*
D24*
X0101730Y0182000D03*
X0122730Y0119500D03*
X0096480Y0114000D03*
X0151230Y0097500D03*
X0180730Y0086250D03*
X0150730Y0044250D03*
X0140480Y0036500D03*
X0127730Y0048000D03*
X0114730Y0051750D03*
X0107980Y0011250D03*
X0204230Y0131750D03*
X0177230Y0159750D03*
D25*
X0137980Y0159750D01*
X0138120Y0159890D01*
X0138120Y0159980D01*
X0128230Y0159500D02*
X0127730Y0159500D01*
X0107980Y0137500D01*
X0107980Y0109000D01*
X0077730Y0109000D01*
X0077980Y0051750D01*
X0114730Y0051750D01*
X0116730Y0057250D02*
X0116730Y0125000D01*
X0127980Y0136250D01*
X0126230Y0127250D02*
X0125730Y0126750D01*
X0125480Y0126750D01*
X0122730Y0124000D01*
X0122730Y0119500D01*
X0126230Y0127250D02*
X0171230Y0127250D01*
X0175730Y0131750D01*
X0204230Y0131750D01*
X0210480Y0126750D02*
X0213730Y0130000D01*
X0213730Y0159500D01*
X0208980Y0164250D01*
X0182730Y0164250D01*
X0180730Y0166250D01*
X0180730Y0173250D01*
X0180482Y0173498D01*
X0180482Y0173287D01*
X0180482Y0173498D02*
X0180480Y0173500D01*
X0178230Y0126750D02*
X0210480Y0126750D01*
X0178230Y0126750D02*
X0169980Y0118500D01*
X0147730Y0118500D01*
X0137230Y0118750D01*
X0137230Y0066500D01*
X0144230Y0068250D02*
X0134730Y0050500D01*
X0127980Y0039250D01*
X0083480Y0039500D01*
X0082980Y0027000D02*
X0130980Y0026750D01*
X0137730Y0040750D01*
X0144230Y0042500D01*
X0151480Y0039500D01*
X0155730Y0041500D01*
X0155730Y0052500D01*
X0159730Y0056250D01*
X0167230Y0056250D01*
X0167230Y0059250D01*
X0145980Y0062500D02*
X0127230Y0032250D01*
X0071230Y0032000D01*
X0071230Y0093500D01*
X0058890Y0093500D01*
X0058781Y0093392D01*
X0077730Y0109000D02*
X0077980Y0110500D01*
X0047526Y0131955D01*
X0047526Y0142980D01*
X0080876Y0136646D02*
X0080876Y0136358D01*
X0080876Y0136646D02*
X0080980Y0136750D01*
X0081730Y0136000D01*
X0081730Y0121750D01*
X0096480Y0114000D01*
X0116730Y0057250D02*
X0125980Y0048000D01*
X0127730Y0048000D01*
M02*
