G75*
%MOIN*%
%OFA0B0*%
%FSLAX25Y25*%
%IPPOS*%
%LPD*%
%AMOC8*
5,1,8,0,0,1.08239X$1,22.5*
%
%ADD10C,0.00600*%
%ADD11C,0.00300*%
%ADD12C,0.00200*%
%ADD13C,0.00500*%
%ADD14C,0.00400*%
%ADD15C,0.00100*%
D10*
X0007630Y0051400D02*
X0009830Y0051400D01*
X0007630Y0051400D02*
X0007630Y0054600D01*
X0016630Y0051400D02*
X0018830Y0051400D01*
X0018830Y0054600D01*
X0027630Y0054850D02*
X0027630Y0051650D01*
X0029830Y0051650D01*
X0036630Y0051650D02*
X0038830Y0051650D01*
X0038830Y0054850D01*
X0116980Y0033450D02*
X0116980Y0021050D01*
X0116982Y0020974D01*
X0116988Y0020898D01*
X0116997Y0020823D01*
X0117011Y0020748D01*
X0117028Y0020674D01*
X0117049Y0020601D01*
X0117073Y0020529D01*
X0117102Y0020458D01*
X0117133Y0020389D01*
X0117168Y0020322D01*
X0117207Y0020257D01*
X0117249Y0020193D01*
X0117294Y0020132D01*
X0117342Y0020073D01*
X0117393Y0020017D01*
X0117447Y0019963D01*
X0117503Y0019912D01*
X0117562Y0019864D01*
X0117623Y0019819D01*
X0117687Y0019777D01*
X0117752Y0019738D01*
X0117819Y0019703D01*
X0117888Y0019672D01*
X0117959Y0019643D01*
X0118031Y0019619D01*
X0118104Y0019598D01*
X0118178Y0019581D01*
X0118253Y0019567D01*
X0118328Y0019558D01*
X0118404Y0019552D01*
X0118480Y0019550D01*
X0135480Y0019550D01*
X0135556Y0019552D01*
X0135632Y0019558D01*
X0135707Y0019567D01*
X0135782Y0019581D01*
X0135856Y0019598D01*
X0135929Y0019619D01*
X0136001Y0019643D01*
X0136072Y0019672D01*
X0136141Y0019703D01*
X0136208Y0019738D01*
X0136273Y0019777D01*
X0136337Y0019819D01*
X0136398Y0019864D01*
X0136457Y0019912D01*
X0136513Y0019963D01*
X0136567Y0020017D01*
X0136618Y0020073D01*
X0136666Y0020132D01*
X0136711Y0020193D01*
X0136753Y0020257D01*
X0136792Y0020322D01*
X0136827Y0020389D01*
X0136858Y0020458D01*
X0136887Y0020529D01*
X0136911Y0020601D01*
X0136932Y0020674D01*
X0136949Y0020748D01*
X0136963Y0020823D01*
X0136972Y0020898D01*
X0136978Y0020974D01*
X0136980Y0021050D01*
X0136980Y0033450D01*
X0136978Y0033526D01*
X0136972Y0033602D01*
X0136963Y0033677D01*
X0136949Y0033752D01*
X0136932Y0033826D01*
X0136911Y0033899D01*
X0136887Y0033971D01*
X0136858Y0034042D01*
X0136827Y0034111D01*
X0136792Y0034178D01*
X0136753Y0034243D01*
X0136711Y0034307D01*
X0136666Y0034368D01*
X0136618Y0034427D01*
X0136567Y0034483D01*
X0136513Y0034537D01*
X0136457Y0034588D01*
X0136398Y0034636D01*
X0136337Y0034681D01*
X0136273Y0034723D01*
X0136208Y0034762D01*
X0136141Y0034797D01*
X0136072Y0034828D01*
X0136001Y0034857D01*
X0135929Y0034881D01*
X0135856Y0034902D01*
X0135782Y0034919D01*
X0135707Y0034933D01*
X0135632Y0034942D01*
X0135556Y0034948D01*
X0135480Y0034950D01*
X0118480Y0034950D01*
X0118404Y0034948D01*
X0118328Y0034942D01*
X0118253Y0034933D01*
X0118178Y0034919D01*
X0118104Y0034902D01*
X0118031Y0034881D01*
X0117959Y0034857D01*
X0117888Y0034828D01*
X0117819Y0034797D01*
X0117752Y0034762D01*
X0117687Y0034723D01*
X0117623Y0034681D01*
X0117562Y0034636D01*
X0117503Y0034588D01*
X0117447Y0034537D01*
X0117393Y0034483D01*
X0117342Y0034427D01*
X0117294Y0034368D01*
X0117249Y0034307D01*
X0117207Y0034243D01*
X0117168Y0034178D01*
X0117133Y0034111D01*
X0117102Y0034042D01*
X0117073Y0033971D01*
X0117049Y0033899D01*
X0117028Y0033826D01*
X0117011Y0033752D01*
X0116997Y0033677D01*
X0116988Y0033602D01*
X0116982Y0033526D01*
X0116980Y0033450D01*
X0116980Y0029250D02*
X0117068Y0029248D01*
X0117157Y0029242D01*
X0117245Y0029232D01*
X0117332Y0029219D01*
X0117419Y0029201D01*
X0117505Y0029180D01*
X0117590Y0029155D01*
X0117673Y0029126D01*
X0117756Y0029093D01*
X0117836Y0029057D01*
X0117915Y0029018D01*
X0117993Y0028975D01*
X0118068Y0028928D01*
X0118141Y0028878D01*
X0118212Y0028825D01*
X0118281Y0028769D01*
X0118347Y0028710D01*
X0118410Y0028648D01*
X0118470Y0028584D01*
X0118528Y0028517D01*
X0118582Y0028447D01*
X0118634Y0028375D01*
X0118682Y0028301D01*
X0118727Y0028224D01*
X0118768Y0028146D01*
X0118806Y0028066D01*
X0118840Y0027985D01*
X0118871Y0027902D01*
X0118898Y0027817D01*
X0118921Y0027732D01*
X0118940Y0027646D01*
X0118956Y0027558D01*
X0118968Y0027471D01*
X0118976Y0027383D01*
X0118980Y0027294D01*
X0118980Y0027206D01*
X0118976Y0027117D01*
X0118968Y0027029D01*
X0118956Y0026942D01*
X0118940Y0026854D01*
X0118921Y0026768D01*
X0118898Y0026683D01*
X0118871Y0026598D01*
X0118840Y0026515D01*
X0118806Y0026434D01*
X0118768Y0026354D01*
X0118727Y0026276D01*
X0118682Y0026199D01*
X0118634Y0026125D01*
X0118582Y0026053D01*
X0118528Y0025983D01*
X0118470Y0025916D01*
X0118410Y0025852D01*
X0118347Y0025790D01*
X0118281Y0025731D01*
X0118212Y0025675D01*
X0118141Y0025622D01*
X0118068Y0025572D01*
X0117993Y0025525D01*
X0117915Y0025482D01*
X0117836Y0025443D01*
X0117756Y0025407D01*
X0117673Y0025374D01*
X0117590Y0025345D01*
X0117505Y0025320D01*
X0117419Y0025299D01*
X0117332Y0025281D01*
X0117245Y0025268D01*
X0117157Y0025258D01*
X0117068Y0025252D01*
X0116980Y0025250D01*
X0130346Y0056683D02*
X0128949Y0058081D01*
X0128949Y0084281D01*
X0156547Y0084281D01*
X0156547Y0056683D01*
X0130346Y0056683D01*
X0130534Y0059682D02*
X0130536Y0059757D01*
X0130542Y0059831D01*
X0130552Y0059905D01*
X0130565Y0059978D01*
X0130583Y0060051D01*
X0130604Y0060122D01*
X0130629Y0060193D01*
X0130658Y0060262D01*
X0130691Y0060329D01*
X0130727Y0060394D01*
X0130766Y0060458D01*
X0130808Y0060519D01*
X0130854Y0060578D01*
X0130903Y0060635D01*
X0130955Y0060688D01*
X0131009Y0060739D01*
X0131066Y0060788D01*
X0131126Y0060832D01*
X0131188Y0060874D01*
X0131252Y0060913D01*
X0131318Y0060948D01*
X0131385Y0060979D01*
X0131455Y0061007D01*
X0131525Y0061031D01*
X0131597Y0061052D01*
X0131670Y0061068D01*
X0131743Y0061081D01*
X0131818Y0061090D01*
X0131892Y0061095D01*
X0131967Y0061096D01*
X0132041Y0061093D01*
X0132116Y0061086D01*
X0132189Y0061075D01*
X0132263Y0061061D01*
X0132335Y0061042D01*
X0132406Y0061020D01*
X0132476Y0060994D01*
X0132545Y0060964D01*
X0132611Y0060931D01*
X0132676Y0060894D01*
X0132739Y0060854D01*
X0132800Y0060810D01*
X0132858Y0060764D01*
X0132914Y0060714D01*
X0132967Y0060662D01*
X0133018Y0060607D01*
X0133065Y0060549D01*
X0133109Y0060489D01*
X0133150Y0060426D01*
X0133188Y0060362D01*
X0133222Y0060296D01*
X0133253Y0060227D01*
X0133280Y0060158D01*
X0133303Y0060087D01*
X0133322Y0060015D01*
X0133338Y0059942D01*
X0133350Y0059868D01*
X0133358Y0059794D01*
X0133362Y0059719D01*
X0133362Y0059645D01*
X0133358Y0059570D01*
X0133350Y0059496D01*
X0133338Y0059422D01*
X0133322Y0059349D01*
X0133303Y0059277D01*
X0133280Y0059206D01*
X0133253Y0059137D01*
X0133222Y0059068D01*
X0133188Y0059002D01*
X0133150Y0058938D01*
X0133109Y0058875D01*
X0133065Y0058815D01*
X0133018Y0058757D01*
X0132967Y0058702D01*
X0132914Y0058650D01*
X0132858Y0058600D01*
X0132800Y0058554D01*
X0132739Y0058510D01*
X0132676Y0058470D01*
X0132611Y0058433D01*
X0132545Y0058400D01*
X0132476Y0058370D01*
X0132406Y0058344D01*
X0132335Y0058322D01*
X0132263Y0058303D01*
X0132189Y0058289D01*
X0132116Y0058278D01*
X0132041Y0058271D01*
X0131967Y0058268D01*
X0131892Y0058269D01*
X0131818Y0058274D01*
X0131743Y0058283D01*
X0131670Y0058296D01*
X0131597Y0058312D01*
X0131525Y0058333D01*
X0131455Y0058357D01*
X0131385Y0058385D01*
X0131318Y0058416D01*
X0131252Y0058451D01*
X0131188Y0058490D01*
X0131126Y0058532D01*
X0131066Y0058576D01*
X0131009Y0058625D01*
X0130955Y0058676D01*
X0130903Y0058729D01*
X0130854Y0058786D01*
X0130808Y0058845D01*
X0130766Y0058906D01*
X0130727Y0058970D01*
X0130691Y0059035D01*
X0130658Y0059102D01*
X0130629Y0059171D01*
X0130604Y0059242D01*
X0130583Y0059313D01*
X0130565Y0059386D01*
X0130552Y0059459D01*
X0130542Y0059533D01*
X0130536Y0059607D01*
X0130534Y0059682D01*
D11*
X0133677Y0050335D02*
X0133677Y0047432D01*
X0132710Y0047432D02*
X0134645Y0047432D01*
X0135656Y0047916D02*
X0136140Y0047432D01*
X0137107Y0047432D01*
X0137591Y0047916D01*
X0137591Y0049851D01*
X0137107Y0050335D01*
X0136140Y0050335D01*
X0135656Y0049851D01*
X0134645Y0049367D02*
X0133677Y0050335D01*
X0138588Y0050335D02*
X0139555Y0050335D01*
X0139072Y0050335D02*
X0139072Y0047432D01*
X0139555Y0047432D02*
X0138588Y0047432D01*
D12*
X0136980Y0033550D02*
X0116980Y0033550D01*
D13*
X0127582Y0027253D02*
X0128332Y0028004D01*
X0129834Y0028004D01*
X0130584Y0027253D01*
X0132186Y0027253D02*
X0132936Y0028004D01*
X0134438Y0028004D01*
X0135188Y0027253D01*
X0135188Y0024251D01*
X0134438Y0023500D01*
X0132936Y0023500D01*
X0132186Y0024251D01*
X0130584Y0023500D02*
X0127582Y0026503D01*
X0127582Y0027253D01*
X0127582Y0023500D02*
X0130584Y0023500D01*
X0136756Y0023500D02*
X0138257Y0023500D01*
X0137507Y0023500D02*
X0137507Y0028004D01*
X0138257Y0028004D02*
X0136756Y0028004D01*
X0112230Y0066250D02*
X0102230Y0066250D01*
X0102230Y0096250D01*
X0112230Y0096250D01*
X0112230Y0066250D01*
D14*
X0010134Y0041700D02*
X0007065Y0041700D01*
X0008600Y0041700D02*
X0008600Y0046304D01*
X0010134Y0044769D01*
X0011669Y0045537D02*
X0011669Y0042467D01*
X0012436Y0041700D01*
X0014738Y0041700D01*
X0014738Y0046304D01*
X0012436Y0046304D01*
X0011669Y0045537D01*
X0027065Y0045787D02*
X0027832Y0046554D01*
X0029367Y0046554D01*
X0030134Y0045787D01*
X0031669Y0045787D02*
X0031669Y0042717D01*
X0032436Y0041950D01*
X0034738Y0041950D01*
X0034738Y0046554D01*
X0032436Y0046554D01*
X0031669Y0045787D01*
X0030134Y0041950D02*
X0027065Y0045019D01*
X0027065Y0045787D01*
X0027065Y0041950D02*
X0030134Y0041950D01*
X0055107Y0035287D02*
X0055107Y0034519D01*
X0058176Y0031450D01*
X0055107Y0031450D01*
X0055107Y0035287D02*
X0055874Y0036054D01*
X0057409Y0036054D01*
X0058176Y0035287D01*
X0059711Y0035287D02*
X0059711Y0033752D01*
X0060478Y0032985D01*
X0062780Y0032985D01*
X0061246Y0032985D02*
X0059711Y0031450D01*
X0062780Y0031450D02*
X0062780Y0036054D01*
X0060478Y0036054D01*
X0059711Y0035287D01*
X0059711Y0051450D02*
X0061246Y0052985D01*
X0060478Y0052985D02*
X0062780Y0052985D01*
X0062780Y0051450D02*
X0062780Y0056054D01*
X0060478Y0056054D01*
X0059711Y0055287D01*
X0059711Y0053752D01*
X0060478Y0052985D01*
X0058176Y0052217D02*
X0057409Y0051450D01*
X0055874Y0051450D01*
X0055107Y0052217D01*
X0055107Y0052985D01*
X0055874Y0053752D01*
X0056642Y0053752D01*
X0055874Y0053752D02*
X0055107Y0054519D01*
X0055107Y0055287D01*
X0055874Y0056054D01*
X0057409Y0056054D01*
X0058176Y0055287D01*
X0057926Y0073200D02*
X0054857Y0073200D01*
X0056392Y0073200D02*
X0056392Y0077804D01*
X0057926Y0076269D01*
X0059461Y0075502D02*
X0060228Y0074735D01*
X0062530Y0074735D01*
X0060996Y0074735D02*
X0059461Y0073200D01*
X0059461Y0075502D02*
X0059461Y0077037D01*
X0060228Y0077804D01*
X0062530Y0077804D01*
X0062530Y0073200D01*
X0103065Y0053287D02*
X0103065Y0052519D01*
X0106134Y0049450D01*
X0103065Y0049450D01*
X0103065Y0053287D02*
X0103832Y0054054D01*
X0105367Y0054054D01*
X0106134Y0053287D01*
X0109204Y0054054D02*
X0109204Y0049450D01*
X0110738Y0049450D02*
X0107669Y0049450D01*
X0110738Y0052519D02*
X0109204Y0054054D01*
X0112273Y0053287D02*
X0113040Y0054054D01*
X0114575Y0054054D01*
X0115342Y0053287D01*
X0115342Y0050217D01*
X0114575Y0049450D01*
X0113040Y0049450D01*
X0112273Y0050217D01*
X0109971Y0039304D02*
X0108436Y0039304D01*
X0107669Y0038537D01*
X0106134Y0038537D02*
X0106134Y0037769D01*
X0105367Y0037002D01*
X0103065Y0037002D01*
X0103065Y0035467D02*
X0103065Y0038537D01*
X0103832Y0039304D01*
X0105367Y0039304D01*
X0106134Y0038537D01*
X0106134Y0035467D02*
X0105367Y0034700D01*
X0103832Y0034700D01*
X0103065Y0035467D01*
X0107669Y0035467D02*
X0108436Y0034700D01*
X0109971Y0034700D01*
X0110738Y0035467D01*
X0110738Y0038537D01*
X0109971Y0039304D01*
X0178930Y0066217D02*
X0179698Y0065450D01*
X0182767Y0065450D01*
X0183534Y0066217D01*
X0183534Y0067752D01*
X0182767Y0068519D01*
X0183534Y0070054D02*
X0183534Y0073123D01*
X0182767Y0073123D01*
X0179698Y0070054D01*
X0178930Y0070054D01*
X0179698Y0068519D02*
X0178930Y0067752D01*
X0178930Y0066217D01*
X0199180Y0066873D02*
X0199180Y0063804D01*
X0199180Y0065339D02*
X0203784Y0065339D01*
X0202250Y0063804D01*
X0203017Y0062269D02*
X0201482Y0062269D01*
X0200715Y0061502D01*
X0200715Y0059200D01*
X0200715Y0060735D02*
X0199180Y0062269D01*
X0199180Y0059200D02*
X0203784Y0059200D01*
X0203784Y0061502D01*
X0203017Y0062269D01*
X0202250Y0068408D02*
X0203784Y0069942D01*
X0199180Y0069942D01*
X0199180Y0068408D02*
X0199180Y0071477D01*
X0199082Y0040554D02*
X0198315Y0039787D01*
X0198315Y0039019D01*
X0199082Y0038252D01*
X0200617Y0038252D01*
X0201384Y0039019D01*
X0201384Y0039787D01*
X0200617Y0040554D01*
X0199082Y0040554D01*
X0199082Y0038252D02*
X0198315Y0037485D01*
X0198315Y0036717D01*
X0199082Y0035950D01*
X0200617Y0035950D01*
X0201384Y0036717D01*
X0201384Y0037485D01*
X0200617Y0038252D01*
X0202919Y0039787D02*
X0203686Y0040554D01*
X0205221Y0040554D01*
X0205988Y0039787D01*
X0205988Y0036717D01*
X0205221Y0035950D01*
X0203686Y0035950D01*
X0202919Y0036717D01*
X0208430Y0111700D02*
X0213034Y0111700D01*
X0213034Y0114002D01*
X0212267Y0114769D01*
X0210732Y0114769D01*
X0209965Y0114002D01*
X0209965Y0111700D01*
X0209965Y0113235D02*
X0208430Y0114769D01*
X0208430Y0116304D02*
X0208430Y0119373D01*
X0208430Y0117839D02*
X0213034Y0117839D01*
X0211500Y0116304D01*
X0212267Y0120908D02*
X0209198Y0120908D01*
X0212267Y0123977D01*
X0209198Y0123977D01*
X0208430Y0123210D01*
X0208430Y0121675D01*
X0209198Y0120908D01*
X0212267Y0120908D02*
X0213034Y0121675D01*
X0213034Y0123210D01*
X0212267Y0123977D01*
X0194534Y0119606D02*
X0194534Y0118071D01*
X0193767Y0117304D01*
X0193000Y0117304D01*
X0192232Y0118071D01*
X0192232Y0120373D01*
X0190698Y0120373D02*
X0193767Y0120373D01*
X0194534Y0119606D01*
X0190698Y0120373D02*
X0189930Y0119606D01*
X0189930Y0118071D01*
X0190698Y0117304D01*
X0189930Y0115769D02*
X0191465Y0114235D01*
X0191465Y0115002D02*
X0191465Y0112700D01*
X0189930Y0112700D02*
X0194534Y0112700D01*
X0194534Y0115002D01*
X0193767Y0115769D01*
X0192232Y0115769D01*
X0191465Y0115002D01*
X0173784Y0115002D02*
X0173784Y0112700D01*
X0169180Y0112700D01*
X0170715Y0112700D02*
X0170715Y0115002D01*
X0171482Y0115769D01*
X0173017Y0115769D01*
X0173784Y0115002D01*
X0173017Y0117304D02*
X0172250Y0117304D01*
X0171482Y0118071D01*
X0171482Y0119606D01*
X0170715Y0120373D01*
X0169948Y0120373D01*
X0169180Y0119606D01*
X0169180Y0118071D01*
X0169948Y0117304D01*
X0170715Y0117304D01*
X0171482Y0118071D01*
X0171482Y0119606D02*
X0172250Y0120373D01*
X0173017Y0120373D01*
X0173784Y0119606D01*
X0173784Y0118071D01*
X0173017Y0117304D01*
X0170715Y0114235D02*
X0169180Y0115769D01*
X0142034Y0116304D02*
X0142034Y0119373D01*
X0141267Y0119373D01*
X0138198Y0116304D01*
X0137430Y0116304D01*
X0137430Y0114769D02*
X0138965Y0113235D01*
X0138965Y0114002D02*
X0138965Y0111700D01*
X0137430Y0111700D02*
X0142034Y0111700D01*
X0142034Y0114002D01*
X0141267Y0114769D01*
X0139732Y0114769D01*
X0138965Y0114002D01*
D15*
X0117281Y0071274D02*
X0117532Y0071024D01*
X0117532Y0070523D01*
X0117281Y0070273D01*
X0117281Y0069801D02*
X0116281Y0069801D01*
X0116030Y0069551D01*
X0116030Y0069050D01*
X0116281Y0068800D01*
X0117281Y0068800D01*
X0117532Y0069050D01*
X0117532Y0069551D01*
X0117281Y0069801D01*
X0116531Y0069300D02*
X0116030Y0069801D01*
X0116030Y0070273D02*
X0117031Y0071274D01*
X0117281Y0071274D01*
X0116030Y0071274D02*
X0116030Y0070273D01*
M02*
