G75*
%MOIN*%
%OFA0B0*%
%FSLAX25Y25*%
%IPPOS*%
%LPD*%
%AMOC8*
5,1,8,0,0,1.08239X$1,22.5*
%
%ADD10R,0.07200X0.04400*%
%ADD11R,0.04400X0.07200*%
%ADD12R,0.04800X0.10200*%
%ADD13R,0.07318X0.08499*%
%ADD14OC8,0.07800*%
%ADD15R,0.08600X0.08600*%
%ADD16OC8,0.08600*%
%ADD17R,0.08106X0.07318*%
%ADD18R,0.08499X0.07318*%
%ADD19R,0.07318X0.08106*%
%ADD20OC8,0.12200*%
%ADD21R,0.17161X0.07712*%
%ADD22R,0.17161X0.06924*%
%ADD23C,0.08200*%
%ADD24R,0.06137X0.07712*%
%ADD25C,0.06175*%
%ADD26C,0.06019*%
%ADD27R,0.05762X0.05762*%
%ADD28C,0.05762*%
D10*
X0125848Y0058875D03*
X0125848Y0062025D03*
X0125848Y0065175D03*
X0125848Y0068324D03*
X0125848Y0071474D03*
X0125848Y0074623D03*
X0125848Y0077773D03*
X0125848Y0080923D03*
X0159648Y0080923D03*
X0159648Y0077773D03*
X0159648Y0074623D03*
X0159648Y0071474D03*
X0159648Y0068324D03*
X0159648Y0065175D03*
X0159648Y0062025D03*
X0159648Y0058875D03*
D11*
X0153772Y0052999D03*
X0150622Y0052999D03*
X0147472Y0052999D03*
X0144323Y0052999D03*
X0141173Y0052999D03*
X0138024Y0052999D03*
X0134874Y0052999D03*
X0131724Y0052999D03*
X0131724Y0086799D03*
X0134874Y0086799D03*
X0138024Y0086799D03*
X0141173Y0086799D03*
X0144323Y0086799D03*
X0147472Y0086799D03*
X0150622Y0086799D03*
X0153772Y0086799D03*
D12*
X0134480Y0038767D03*
X0129480Y0038767D03*
X0124480Y0038767D03*
X0119480Y0038767D03*
X0119480Y0014567D03*
X0124480Y0014567D03*
X0129480Y0014567D03*
X0134480Y0014567D03*
D13*
X0062720Y0026667D03*
X0055240Y0026667D03*
X0055240Y0046667D03*
X0062720Y0046667D03*
X0062470Y0068417D03*
X0054990Y0068417D03*
D14*
X0080876Y0136025D03*
X0090876Y0136025D03*
X0090876Y0159647D03*
X0080876Y0159647D03*
X0104498Y0159647D03*
X0114498Y0159647D03*
X0128120Y0159647D03*
X0138120Y0159647D03*
X0162230Y0141917D03*
X0172230Y0141917D03*
X0193120Y0152009D03*
X0203120Y0152009D03*
X0190482Y0172954D03*
X0180482Y0172954D03*
X0172490Y0189962D03*
X0162490Y0189962D03*
X0150837Y0201891D03*
X0140837Y0201891D03*
X0126900Y0208072D03*
X0116900Y0208072D03*
X0102096Y0208072D03*
X0092096Y0208072D03*
X0078159Y0201891D03*
X0068159Y0201891D03*
X0056467Y0189923D03*
X0046467Y0189923D03*
X0038474Y0172954D03*
X0028474Y0172954D03*
X0025285Y0151773D03*
X0015285Y0151773D03*
X0047526Y0142647D03*
X0057526Y0142647D03*
X0080876Y0183269D03*
X0090876Y0183269D03*
X0128120Y0183269D03*
X0138120Y0183269D03*
X0138120Y0136025D03*
X0128120Y0136025D03*
D15*
X0208230Y0010667D03*
D16*
X0198230Y0010667D03*
X0198230Y0020667D03*
X0198230Y0030667D03*
X0208230Y0030667D03*
X0208230Y0020667D03*
D17*
X0173730Y0065927D03*
X0173730Y0073407D03*
D18*
X0194980Y0066157D03*
X0194980Y0058677D03*
X0206730Y0111927D03*
X0206730Y0119407D03*
X0185730Y0119657D03*
X0185730Y0112177D03*
X0164980Y0112177D03*
X0164980Y0119657D03*
X0133230Y0118657D03*
X0133230Y0111177D03*
D19*
X0110470Y0058667D03*
X0102990Y0058667D03*
X0102990Y0043917D03*
X0110470Y0043917D03*
X0198240Y0045167D03*
X0205720Y0045167D03*
D20*
X0172730Y0016667D03*
X0152480Y0016667D03*
D21*
X0107230Y0080667D03*
D22*
X0107230Y0070667D03*
X0107230Y0090667D03*
D23*
X0163480Y0050667D02*
X0163480Y0044667D01*
X0173480Y0044667D02*
X0173480Y0050667D01*
X0183480Y0050667D02*
X0183480Y0044667D01*
D24*
X0036970Y0057997D03*
X0029490Y0057997D03*
X0033230Y0049336D03*
X0016970Y0057747D03*
X0009490Y0057747D03*
X0013230Y0049086D03*
D25*
X0019421Y0017988D03*
X0016862Y0014051D03*
X0021980Y0014051D03*
X0024539Y0017988D03*
X0027098Y0014051D03*
D26*
X0007906Y0013007D02*
X0007906Y0016826D01*
X0036055Y0016826D02*
X0036055Y0013007D01*
D27*
X0107980Y0011417D03*
X0140980Y0036167D03*
X0150730Y0044167D03*
X0140230Y0064167D03*
X0127730Y0047667D03*
X0114730Y0051417D03*
X0150980Y0094917D03*
X0159480Y0086167D03*
X0122730Y0119167D03*
X0107230Y0110667D03*
X0177230Y0159417D03*
X0206730Y0131417D03*
X0101730Y0181667D03*
D28*
X0146480Y0061917D03*
X0164730Y0058917D03*
X0083480Y0039167D03*
X0073980Y0036667D03*
X0082980Y0026667D03*
X0040230Y0026917D03*
X0013230Y0036167D03*
M02*
