G75*
%MOIN*%
%OFA0B0*%
%FSLAX25Y25*%
%IPPOS*%
%LPD*%
%AMOC8*
5,1,8,0,0,1.08239X$1,22.5*
%
%ADD10C,0.00500*%
D10*
X0007236Y0013512D02*
X0007236Y0017488D01*
X0007238Y0017539D01*
X0007244Y0017591D01*
X0007253Y0017641D01*
X0007267Y0017691D01*
X0007284Y0017740D01*
X0007304Y0017787D01*
X0007328Y0017833D01*
X0007356Y0017876D01*
X0007386Y0017918D01*
X0007420Y0017957D01*
X0007456Y0017993D01*
X0007495Y0018027D01*
X0007537Y0018057D01*
X0007581Y0018085D01*
X0007626Y0018109D01*
X0007673Y0018129D01*
X0007722Y0018146D01*
X0007772Y0018160D01*
X0007822Y0018169D01*
X0007874Y0018175D01*
X0007925Y0018177D01*
X0007976Y0018175D01*
X0008028Y0018169D01*
X0008078Y0018160D01*
X0008128Y0018146D01*
X0008177Y0018129D01*
X0008224Y0018109D01*
X0008270Y0018085D01*
X0008313Y0018057D01*
X0008355Y0018027D01*
X0008394Y0017993D01*
X0008430Y0017957D01*
X0008464Y0017918D01*
X0008494Y0017876D01*
X0008522Y0017833D01*
X0008546Y0017787D01*
X0008566Y0017740D01*
X0008583Y0017691D01*
X0008597Y0017641D01*
X0008606Y0017591D01*
X0008612Y0017539D01*
X0008614Y0017488D01*
X0008594Y0017764D02*
X0008594Y0013236D01*
X0008614Y0013512D02*
X0008612Y0013461D01*
X0008606Y0013409D01*
X0008597Y0013359D01*
X0008583Y0013309D01*
X0008566Y0013260D01*
X0008546Y0013213D01*
X0008522Y0013168D01*
X0008494Y0013124D01*
X0008464Y0013082D01*
X0008430Y0013043D01*
X0008394Y0013007D01*
X0008355Y0012973D01*
X0008313Y0012943D01*
X0008270Y0012915D01*
X0008224Y0012891D01*
X0008177Y0012871D01*
X0008128Y0012854D01*
X0008078Y0012840D01*
X0008028Y0012831D01*
X0007976Y0012825D01*
X0007925Y0012823D01*
X0007874Y0012825D01*
X0007822Y0012831D01*
X0007772Y0012840D01*
X0007722Y0012854D01*
X0007673Y0012871D01*
X0007626Y0012891D01*
X0007580Y0012915D01*
X0007537Y0012943D01*
X0007495Y0012973D01*
X0007456Y0013007D01*
X0007420Y0013043D01*
X0007386Y0013082D01*
X0007356Y0013124D01*
X0007328Y0013168D01*
X0007304Y0013213D01*
X0007284Y0013260D01*
X0007267Y0013309D01*
X0007253Y0013359D01*
X0007244Y0013409D01*
X0007238Y0013461D01*
X0007236Y0013512D01*
X0035386Y0013512D02*
X0035386Y0017488D01*
X0035388Y0017539D01*
X0035394Y0017591D01*
X0035403Y0017641D01*
X0035417Y0017691D01*
X0035434Y0017740D01*
X0035454Y0017787D01*
X0035478Y0017833D01*
X0035506Y0017876D01*
X0035536Y0017918D01*
X0035570Y0017957D01*
X0035606Y0017993D01*
X0035645Y0018027D01*
X0035687Y0018057D01*
X0035731Y0018085D01*
X0035776Y0018109D01*
X0035823Y0018129D01*
X0035872Y0018146D01*
X0035922Y0018160D01*
X0035972Y0018169D01*
X0036024Y0018175D01*
X0036075Y0018177D01*
X0036126Y0018175D01*
X0036178Y0018169D01*
X0036228Y0018160D01*
X0036278Y0018146D01*
X0036327Y0018129D01*
X0036374Y0018109D01*
X0036420Y0018085D01*
X0036463Y0018057D01*
X0036505Y0018027D01*
X0036544Y0017993D01*
X0036580Y0017957D01*
X0036614Y0017918D01*
X0036644Y0017876D01*
X0036672Y0017833D01*
X0036696Y0017787D01*
X0036716Y0017740D01*
X0036733Y0017691D01*
X0036747Y0017641D01*
X0036756Y0017591D01*
X0036762Y0017539D01*
X0036764Y0017488D01*
X0036764Y0013512D01*
X0036762Y0013461D01*
X0036756Y0013409D01*
X0036747Y0013359D01*
X0036733Y0013309D01*
X0036716Y0013260D01*
X0036696Y0013213D01*
X0036672Y0013168D01*
X0036644Y0013124D01*
X0036614Y0013082D01*
X0036580Y0013043D01*
X0036544Y0013007D01*
X0036505Y0012973D01*
X0036463Y0012943D01*
X0036420Y0012915D01*
X0036374Y0012891D01*
X0036327Y0012871D01*
X0036278Y0012854D01*
X0036228Y0012840D01*
X0036178Y0012831D01*
X0036126Y0012825D01*
X0036075Y0012823D01*
X0036024Y0012825D01*
X0035972Y0012831D01*
X0035922Y0012840D01*
X0035872Y0012854D01*
X0035823Y0012871D01*
X0035776Y0012891D01*
X0035731Y0012915D01*
X0035687Y0012943D01*
X0035645Y0012973D01*
X0035606Y0013007D01*
X0035570Y0013043D01*
X0035536Y0013082D01*
X0035506Y0013124D01*
X0035478Y0013168D01*
X0035454Y0013213D01*
X0035434Y0013260D01*
X0035417Y0013309D01*
X0035403Y0013359D01*
X0035394Y0013409D01*
X0035388Y0013461D01*
X0035386Y0013512D01*
M02*
