G75*
G70*
%OFA0B0*%
%FSLAX24Y24*%
%IPPOS*%
%LPD*%
%AMOC8*
5,1,8,0,0,1.08239X$1,22.5*
%
%ADD10R,0.0500X0.0220*%
%ADD11R,0.0220X0.0500*%
%ADD12R,0.0260X0.0800*%
%ADD13R,0.0472X0.0217*%
%ADD14R,0.1000X0.2000*%
%ADD15R,0.1102X0.0945*%
%ADD16R,0.0512X0.0591*%
%ADD17R,0.0630X0.0512*%
%ADD18R,0.0591X0.0512*%
%ADD19R,0.0512X0.0630*%
%ADD20OC8,0.1000*%
%ADD21OC8,0.0560*%
%ADD22R,0.0640X0.0640*%
%ADD23OC8,0.0640*%
%ADD24R,0.1496X0.0551*%
%ADD25R,0.1496X0.0472*%
%ADD26C,0.0240*%
%ADD27C,0.0400*%
%ADD28C,0.0320*%
%ADD29C,0.0160*%
%ADD30R,0.0436X0.0436*%
%ADD31C,0.0120*%
%ADD32C,0.0436*%
D10*
X013480Y007334D03*
X013480Y007649D03*
X013480Y007964D03*
X013480Y008279D03*
X013480Y008594D03*
X013480Y008909D03*
X013480Y009224D03*
X013480Y009539D03*
X016860Y009539D03*
X016860Y009224D03*
X016860Y008909D03*
X016860Y008594D03*
X016860Y008279D03*
X016860Y007964D03*
X016860Y007649D03*
X016860Y007334D03*
D11*
X016272Y006746D03*
X015957Y006746D03*
X015642Y006746D03*
X015327Y006746D03*
X015012Y006746D03*
X014697Y006746D03*
X014382Y006746D03*
X014067Y006746D03*
X014067Y010126D03*
X014382Y010126D03*
X014697Y010126D03*
X015012Y010126D03*
X015327Y010126D03*
X015642Y010126D03*
X015957Y010126D03*
X016272Y010126D03*
D12*
X014343Y005323D03*
X013843Y005323D03*
X013343Y005323D03*
X012843Y005323D03*
X012843Y002903D03*
X013343Y002903D03*
X013843Y002903D03*
X014343Y002903D03*
D13*
X006280Y008014D03*
X006280Y008388D03*
X006280Y008762D03*
X005256Y008762D03*
X005256Y008388D03*
X005256Y008014D03*
D14*
X003693Y008388D03*
X002193Y008388D03*
D15*
X006468Y005453D03*
X006468Y002973D03*
D16*
X004442Y004138D03*
X003694Y004138D03*
X003719Y005688D03*
X004467Y005688D03*
X005769Y006713D03*
X006517Y006713D03*
X010194Y003863D03*
X010942Y003863D03*
X011194Y005838D03*
X011942Y005838D03*
X011942Y007313D03*
X011194Y007313D03*
X020794Y006113D03*
X021542Y006113D03*
D17*
X021568Y012639D03*
X021568Y013387D03*
X019468Y013412D03*
X019468Y012664D03*
X017393Y012664D03*
X017393Y013412D03*
X014218Y013312D03*
X014218Y012564D03*
X007993Y006912D03*
X007993Y006164D03*
X009043Y004987D03*
X009043Y004239D03*
X010918Y002987D03*
X010918Y002239D03*
X005993Y010989D03*
X005993Y011737D03*
D18*
X003668Y010862D03*
X003668Y010114D03*
X018268Y008787D03*
X018268Y008039D03*
D19*
X009042Y002613D03*
X008294Y002613D03*
X004142Y002613D03*
X003394Y002613D03*
D20*
X002143Y003788D03*
X002968Y012038D03*
X016143Y003113D03*
X018168Y003113D03*
D21*
X014707Y015049D03*
X013707Y015049D03*
X013707Y017411D03*
X014707Y017411D03*
X017118Y015638D03*
X018118Y015638D03*
X020207Y016647D03*
X021207Y016647D03*
X019943Y018742D03*
X018943Y018742D03*
X018144Y020443D03*
X017144Y020443D03*
X015979Y021635D03*
X014979Y021635D03*
X013585Y022254D03*
X012585Y022254D03*
X011105Y022254D03*
X010105Y022254D03*
X008711Y021635D03*
X007711Y021635D03*
X006542Y020439D03*
X005542Y020439D03*
X004742Y018742D03*
X003742Y018742D03*
X003423Y016624D03*
X002423Y016624D03*
X005647Y015711D03*
X006647Y015711D03*
X008983Y015049D03*
X009983Y015049D03*
X009983Y017411D03*
X008983Y017411D03*
X011345Y017411D03*
X012345Y017411D03*
X013707Y019773D03*
X014707Y019773D03*
X009983Y019773D03*
X008983Y019773D03*
D22*
X021718Y002513D03*
D23*
X021718Y003513D03*
X021718Y004513D03*
X020718Y004513D03*
X020718Y003513D03*
X020718Y002513D03*
D24*
X011618Y009513D03*
D25*
X011618Y008513D03*
X011618Y010513D03*
D26*
X011618Y009513D02*
X010118Y009513D01*
X010118Y007313D01*
X011193Y007313D01*
X011193Y007288D01*
X011193Y007313D02*
X011194Y007313D01*
X011918Y005838D02*
X011943Y002763D01*
X012393Y002763D01*
X012843Y002763D01*
X012843Y002903D01*
X013343Y005323D02*
X013843Y005323D01*
X013868Y005323D01*
X013868Y005338D01*
X011942Y005838D02*
X011918Y005838D01*
X007993Y005763D02*
X007993Y005588D01*
X007743Y005338D01*
X007743Y003713D01*
X007593Y003563D01*
X007043Y003563D01*
X006468Y002988D01*
X006468Y002973D01*
X005068Y002973D01*
X005068Y002988D01*
X005068Y003438D01*
X005068Y004163D01*
X005068Y006688D01*
X005118Y006688D01*
X005118Y006713D01*
X005769Y006713D01*
X005068Y006688D02*
X005068Y008014D01*
X005256Y008014D01*
X005068Y008014D02*
X005068Y008038D01*
X005256Y008388D02*
X003693Y008388D01*
X003718Y008388D01*
X003718Y010114D01*
X003668Y010114D01*
X003668Y010862D02*
X004392Y010862D01*
X004343Y010863D01*
X004818Y012013D02*
X004843Y012013D01*
X005992Y012013D01*
X005993Y011737D01*
X004843Y012013D02*
X004843Y012038D01*
X002968Y012038D01*
X004843Y012013D02*
X004843Y008763D01*
X005218Y008763D01*
X005218Y008762D01*
X005256Y008762D01*
X006280Y008388D02*
X007218Y008388D01*
X007993Y007588D01*
X007993Y006912D01*
X007993Y006164D02*
X007993Y005763D01*
X006493Y005453D02*
X006493Y006713D01*
X006517Y006713D01*
X006468Y005453D02*
X006493Y005453D01*
X005068Y002988D02*
X005068Y002963D01*
X003719Y005688D02*
X002193Y005688D01*
X002193Y008388D01*
X003693Y008388D02*
X003693Y008413D01*
X003718Y008388D02*
X003718Y008363D01*
X016143Y003113D02*
X016147Y002892D01*
X016168Y002738D01*
X020718Y004513D02*
X020743Y004513D01*
X020743Y006113D01*
X020794Y006113D01*
X020743Y006113D02*
X020743Y006138D01*
X021542Y006113D02*
X021693Y006113D01*
X021693Y004513D01*
X021718Y004513D01*
X021693Y006113D02*
X021693Y006188D01*
D27*
X005068Y004163D02*
X004868Y004163D01*
X004868Y004113D01*
X004443Y004113D01*
X004443Y004138D01*
X004443Y005713D01*
X004843Y005713D01*
X004843Y005688D01*
X004467Y005688D01*
X003719Y005688D02*
X003693Y005688D01*
X003693Y004813D01*
X003693Y004138D01*
X003694Y004138D01*
X004442Y004138D02*
X004443Y004138D01*
D28*
X004893Y003438D02*
X004868Y003413D01*
X002843Y003413D01*
X002643Y003788D01*
X002143Y003788D01*
X004893Y003438D02*
X005068Y003438D01*
X007993Y005763D02*
X008043Y005763D01*
X009043Y004987D01*
X009968Y014163D02*
X009968Y014538D01*
X010018Y014538D01*
X010018Y015049D01*
X009983Y015049D01*
X009968Y014163D02*
X014218Y014163D01*
X018043Y014163D01*
X018043Y015638D01*
X018118Y015638D01*
X017143Y015638D02*
X017143Y018742D01*
X013693Y018742D01*
X013693Y019773D01*
X013707Y019773D01*
X013218Y020763D02*
X012618Y020163D01*
X012618Y017738D01*
X012318Y017438D01*
X012345Y017411D01*
X012345Y017411D01*
X012345Y017361D01*
X013493Y016213D01*
X014643Y016213D01*
X014718Y016288D01*
X014693Y016288D01*
X014693Y017411D01*
X014707Y017411D01*
X014693Y016288D02*
X014693Y015049D01*
X014707Y015049D01*
X014693Y015049D02*
X014693Y014988D01*
X017118Y015638D02*
X017143Y015638D01*
X017143Y015563D01*
X017143Y018742D02*
X018943Y018742D01*
X019918Y018742D02*
X019918Y018738D01*
X021243Y018738D01*
X021243Y020443D01*
X018144Y020443D01*
X018168Y020443D01*
X018168Y021635D01*
X015979Y021635D01*
X015993Y021635D01*
X015993Y022513D01*
X013618Y022513D01*
X013618Y022254D01*
X013585Y022254D01*
X012585Y022254D02*
X011868Y022254D01*
X011868Y018513D01*
X011318Y018513D01*
X011318Y017411D01*
X011345Y017411D01*
X010818Y017411D01*
X010818Y016188D01*
X008993Y016188D01*
X008993Y015049D01*
X008983Y015049D01*
X009018Y015049D01*
X009018Y014438D01*
X002418Y014438D01*
X002418Y016624D01*
X002423Y016624D01*
X003423Y016624D02*
X004743Y016624D01*
X004743Y018742D01*
X004742Y018742D01*
X006543Y018742D01*
X006543Y020439D01*
X006542Y020439D01*
X008718Y020439D01*
X008718Y021013D01*
X008718Y021113D01*
X011143Y021113D01*
X011143Y022254D01*
X011105Y022254D01*
X010618Y022938D02*
X021168Y022938D01*
X022018Y022438D01*
X022068Y015713D01*
X020768Y015663D01*
X020193Y016638D01*
X020202Y016647D01*
X020207Y016647D01*
X021207Y016647D02*
X021243Y016647D01*
X021243Y018738D01*
X019943Y018742D02*
X019918Y018742D01*
X019918Y018763D01*
X018168Y020438D02*
X018168Y020443D01*
X014707Y020449D02*
X014707Y019773D01*
X014707Y020449D02*
X014393Y020763D01*
X013218Y020763D01*
X010618Y022938D02*
X010105Y022425D01*
X010105Y022254D01*
X008718Y021635D02*
X008718Y021013D01*
X008718Y021635D02*
X008711Y021635D01*
X003843Y018613D02*
X003742Y018714D01*
X003742Y018742D01*
X008993Y015049D02*
X008993Y015013D01*
D29*
X011618Y010513D02*
X012343Y010513D01*
X013318Y009538D01*
X013319Y009539D01*
X013480Y009539D01*
X013468Y009238D02*
X013482Y009224D01*
X013480Y009224D01*
X013482Y009224D02*
X013493Y009213D01*
X013468Y009238D02*
X012918Y009238D01*
X012193Y008513D01*
X011618Y008513D01*
X011942Y007512D02*
X012918Y008488D01*
X012918Y008838D01*
X012968Y008888D01*
X013443Y008888D01*
X013464Y008909D01*
X013480Y008909D01*
X013518Y008909D01*
X013518Y008913D01*
X015218Y008913D01*
X015218Y009224D01*
X016860Y009224D01*
X016843Y009538D02*
X022243Y009538D01*
X022243Y003513D01*
X021718Y003513D01*
X020718Y003513D02*
X019318Y003513D01*
X019318Y006413D01*
X018943Y006788D01*
X018293Y007988D02*
X020743Y007988D01*
X020743Y007938D01*
X020743Y006138D01*
X021542Y006113D02*
X021542Y007187D01*
X021543Y007188D01*
X018293Y007988D02*
X018268Y007988D01*
X018268Y008039D01*
X018268Y008013D01*
X018243Y007988D01*
X017952Y008279D01*
X016860Y008279D01*
X014418Y008279D01*
X014418Y008288D01*
X014393Y008288D01*
X014393Y008538D01*
X013543Y008588D01*
X013543Y008594D01*
X013480Y008594D01*
X013543Y008594D02*
X013543Y008613D01*
X013480Y008279D02*
X012959Y008279D01*
X012918Y008238D01*
X012918Y008488D01*
X013294Y007964D02*
X013480Y007964D01*
X014343Y008014D01*
X014343Y008013D01*
X014393Y008013D01*
X014393Y008288D01*
X013294Y007964D02*
X013293Y007963D01*
X014368Y006746D02*
X014368Y005323D01*
X014343Y005323D01*
X013843Y005323D02*
X013843Y004313D01*
X015318Y004313D01*
X015318Y006746D01*
X015327Y006746D01*
X015012Y006746D02*
X015012Y006594D01*
X015018Y006588D01*
X014993Y006463D01*
X014893Y005563D01*
X014697Y006746D02*
X014697Y006759D01*
X014693Y006763D01*
X014382Y006746D02*
X014368Y006746D01*
X011943Y007288D02*
X011942Y007287D01*
X011942Y005838D01*
X011194Y005838D02*
X011193Y005838D01*
X011193Y007288D01*
X011193Y007313D02*
X011193Y007338D01*
X011942Y007313D02*
X011942Y007289D01*
X011943Y007288D01*
X011942Y007313D02*
X011942Y007512D01*
X011193Y005838D02*
X011193Y004938D01*
X010942Y003863D02*
X010943Y002988D01*
X010918Y002987D01*
X010918Y002239D02*
X009843Y001988D01*
X008693Y001988D01*
X008293Y002613D01*
X008294Y002613D01*
X009042Y002613D02*
X010193Y003863D01*
X010194Y003863D01*
X009618Y004638D02*
X009618Y005588D01*
X009443Y005763D01*
X009118Y005763D01*
X008793Y006088D01*
X008793Y007288D01*
X007318Y008763D01*
X006268Y008763D01*
X006269Y008762D01*
X006280Y008762D01*
X005643Y008762D02*
X005668Y008363D01*
X005718Y007488D01*
X006493Y006938D01*
X006493Y006713D01*
X006568Y007513D02*
X006293Y007988D01*
X006268Y008013D01*
X006269Y008014D01*
X006280Y008014D01*
X005643Y008762D02*
X005256Y008762D01*
X006443Y004213D02*
X006468Y004213D01*
X006468Y002973D01*
X006468Y002963D01*
X009043Y004239D02*
X009219Y004239D01*
X009618Y004638D01*
X012393Y002763D02*
X012393Y002088D01*
X013343Y001988D02*
X013343Y002903D01*
X013818Y002903D02*
X013818Y002288D01*
X016168Y002288D01*
X016168Y002738D01*
X014343Y002903D02*
X014343Y003838D01*
X013168Y003838D01*
X013168Y004088D01*
X013818Y002903D02*
X013843Y002903D01*
X013343Y001988D02*
X018168Y001988D01*
X018168Y002738D01*
X018166Y002740D01*
X018168Y003113D01*
X018049Y008594D02*
X016860Y008594D01*
X016843Y009538D02*
X016843Y009539D01*
X016860Y009539D01*
X016843Y010063D02*
X016318Y010063D01*
X016268Y010113D01*
X016272Y010117D01*
X016272Y010126D01*
X015968Y010163D02*
X015943Y010138D01*
X015955Y010126D01*
X015957Y010126D01*
X015968Y010163D02*
X016068Y010938D01*
X018268Y008813D02*
X018049Y008594D01*
X018268Y008787D02*
X018268Y008813D01*
X003693Y004138D02*
X003519Y003964D01*
X001893Y002638D02*
X001893Y002613D01*
X001893Y002188D01*
D30*
X001893Y002188D03*
X006443Y004213D03*
X006568Y007513D03*
X004343Y010863D03*
X011193Y004938D03*
X012368Y006588D03*
X013668Y006213D03*
X014893Y005563D03*
X013168Y004088D03*
X015093Y007663D03*
X016843Y010063D03*
X016068Y010938D03*
X013168Y013363D03*
X011618Y012513D03*
X018618Y017388D03*
X021568Y014588D03*
X021543Y007188D03*
X018943Y006788D03*
D31*
X018293Y007988D02*
X020693Y007988D01*
X020743Y007938D01*
X018293Y007988D02*
X018168Y008113D01*
X018143Y008113D01*
X017993Y008263D01*
X014418Y008263D01*
X014368Y008313D01*
X014368Y008513D01*
X014287Y008594D01*
X013480Y008594D01*
X013418Y007663D02*
X013393Y007638D01*
X013093Y007638D01*
X012893Y007438D01*
X012893Y007063D01*
X012418Y006588D01*
X012368Y006588D01*
X012843Y006113D02*
X014118Y007363D01*
X014693Y007363D01*
X014693Y006763D01*
X014067Y006746D02*
X014067Y006687D01*
X013668Y006213D01*
X012843Y006113D02*
X012843Y005323D01*
X013480Y007334D02*
X013764Y007334D01*
X014043Y007613D01*
X015043Y007613D01*
X015093Y007663D01*
X013480Y007649D02*
X013432Y007649D01*
X013418Y007663D01*
X014693Y010113D02*
X014693Y010126D01*
X014693Y012564D01*
X014218Y012564D01*
X014218Y013312D02*
X014218Y014163D01*
X013168Y013363D02*
X009168Y013363D01*
X008743Y013988D01*
X002043Y013988D01*
X001668Y014313D01*
X001668Y016863D01*
X002518Y017938D01*
X002593Y017938D01*
X003218Y017313D01*
X003218Y016863D01*
X003443Y016638D01*
X003429Y016624D01*
X003423Y016624D01*
X003742Y018739D02*
X003743Y018738D01*
X003742Y018739D02*
X003693Y018788D01*
X001368Y018788D01*
X001293Y018713D01*
X001293Y014188D01*
X002068Y013413D01*
X008593Y013413D01*
X010093Y011913D01*
X011693Y011913D01*
X013168Y010438D01*
X013168Y010413D01*
X013455Y010126D01*
X014067Y010126D01*
X014382Y010126D02*
X014382Y010874D01*
X014093Y011163D01*
X012968Y011163D01*
X011618Y012513D01*
X014693Y010126D02*
X014697Y010126D01*
X015012Y010126D02*
X015018Y010126D01*
X015018Y012213D01*
X017368Y012213D01*
X017368Y012664D01*
X017393Y012664D01*
X017393Y013412D02*
X018142Y013412D01*
X018618Y013888D01*
X018618Y017388D01*
X019468Y018238D02*
X019943Y018713D01*
X019943Y018742D01*
X019468Y018238D02*
X019468Y013412D01*
X019468Y012664D02*
X019468Y011213D01*
X016818Y011213D01*
X016818Y011163D01*
X016793Y011163D01*
X016793Y011888D01*
X015343Y011888D01*
X015343Y010126D01*
X015327Y010126D01*
X015642Y010126D02*
X015643Y010126D01*
X015643Y011563D01*
X016468Y011563D01*
X016468Y010888D01*
X021568Y010888D01*
X021568Y012639D01*
X021568Y013387D02*
X021568Y014588D01*
X009043Y004263D02*
X009043Y004239D01*
X009042Y002613D01*
X008293Y002613D02*
X007493Y002138D01*
X007468Y002113D01*
X004968Y002113D01*
X004468Y002613D01*
X004142Y002613D01*
X003394Y002613D02*
X001893Y002613D01*
X001693Y002613D01*
X001293Y003013D01*
X001293Y004588D01*
X001468Y004763D01*
X003643Y004763D01*
X003693Y004813D01*
X005968Y008388D02*
X005893Y008438D01*
X005893Y010888D01*
X005993Y010963D01*
X005993Y010989D01*
X005918Y010914D01*
X005968Y008388D02*
X006280Y008388D01*
X003742Y018739D02*
X003742Y018742D01*
D32*
X012393Y002088D03*
M02*
