G04 #@! TF.GenerationSoftware,KiCad,Pcbnew,5.0.2*
G04 #@! TF.CreationDate,2019-11-03T11:13:19+01:00*
G04 #@! TF.ProjectId,Tiny13-Nachtlicht,54696e79-3133-42d4-9e61-6368746c6963,rev?*
G04 #@! TF.SameCoordinates,Original*
G04 #@! TF.FileFunction,Legend,Top*
G04 #@! TF.FilePolarity,Positive*
%FSLAX46Y46*%
G04 Gerber Fmt 4.6, Leading zero omitted, Abs format (unit mm)*
G04 Created by KiCad (PCBNEW 5.0.2) date Sun Nov  3 11:13:19 2019*
%MOMM*%
%LPD*%
G01*
G04 APERTURE LIST*
%ADD10C,0.500000*%
%ADD11C,0.300000*%
%ADD12C,0.150000*%
G04 APERTURE END LIST*
D10*
X138214285Y-112142857D02*
X138214285Y-109857142D01*
X136857142Y-95214285D02*
X139142857Y-95214285D01*
X138000000Y-96357142D02*
X138000000Y-94071428D01*
D11*
X149678571Y-113535714D02*
X148178571Y-113535714D01*
X149678571Y-112892857D02*
X148892857Y-112892857D01*
X148750000Y-112964285D01*
X148678571Y-113107142D01*
X148678571Y-113321428D01*
X148750000Y-113464285D01*
X148821428Y-113535714D01*
X148678571Y-112392857D02*
X148678571Y-111821428D01*
X148178571Y-112178571D02*
X149464285Y-112178571D01*
X149607142Y-112107142D01*
X149678571Y-111964285D01*
X149678571Y-111821428D01*
X148678571Y-111535714D02*
X148678571Y-110964285D01*
X148178571Y-111321428D02*
X149464285Y-111321428D01*
X149607142Y-111250000D01*
X149678571Y-111107142D01*
X149678571Y-110964285D01*
X148678571Y-110464285D02*
X150178571Y-110464285D01*
X148750000Y-110464285D02*
X148678571Y-110321428D01*
X148678571Y-110035714D01*
X148750000Y-109892857D01*
X148821428Y-109821428D01*
X148964285Y-109750000D01*
X149392857Y-109750000D01*
X149535714Y-109821428D01*
X149607142Y-109892857D01*
X149678571Y-110035714D01*
X149678571Y-110321428D01*
X149607142Y-110464285D01*
X149535714Y-109107142D02*
X149607142Y-109035714D01*
X149678571Y-109107142D01*
X149607142Y-109178571D01*
X149535714Y-109107142D01*
X149678571Y-109107142D01*
X148750000Y-109107142D02*
X148821428Y-109035714D01*
X148892857Y-109107142D01*
X148821428Y-109178571D01*
X148750000Y-109107142D01*
X148892857Y-109107142D01*
X148107142Y-107321428D02*
X150035714Y-108607142D01*
X148107142Y-105750000D02*
X150035714Y-107035714D01*
X149607142Y-105321428D02*
X149678571Y-105178571D01*
X149678571Y-104892857D01*
X149607142Y-104750000D01*
X149464285Y-104678571D01*
X149392857Y-104678571D01*
X149250000Y-104750000D01*
X149178571Y-104892857D01*
X149178571Y-105107142D01*
X149107142Y-105250000D01*
X148964285Y-105321428D01*
X148892857Y-105321428D01*
X148750000Y-105250000D01*
X148678571Y-105107142D01*
X148678571Y-104892857D01*
X148750000Y-104750000D01*
X148178571Y-103750000D02*
X148178571Y-103607142D01*
X148250000Y-103464285D01*
X148321428Y-103392857D01*
X148464285Y-103321428D01*
X148750000Y-103250000D01*
X149107142Y-103250000D01*
X149392857Y-103321428D01*
X149535714Y-103392857D01*
X149607142Y-103464285D01*
X149678571Y-103607142D01*
X149678571Y-103750000D01*
X149607142Y-103892857D01*
X149535714Y-103964285D01*
X149392857Y-104035714D01*
X149107142Y-104107142D01*
X148750000Y-104107142D01*
X148464285Y-104035714D01*
X148321428Y-103964285D01*
X148250000Y-103892857D01*
X148178571Y-103750000D01*
X149678571Y-102535714D02*
X149678571Y-102250000D01*
X149607142Y-102107142D01*
X149535714Y-102035714D01*
X149321428Y-101892857D01*
X149035714Y-101821428D01*
X148464285Y-101821428D01*
X148321428Y-101892857D01*
X148250000Y-101964285D01*
X148178571Y-102107142D01*
X148178571Y-102392857D01*
X148250000Y-102535714D01*
X148321428Y-102607142D01*
X148464285Y-102678571D01*
X148821428Y-102678571D01*
X148964285Y-102607142D01*
X149035714Y-102535714D01*
X149107142Y-102392857D01*
X149107142Y-102107142D01*
X149035714Y-101964285D01*
X148964285Y-101892857D01*
X148821428Y-101821428D01*
X149535714Y-101178571D02*
X149607142Y-101107142D01*
X149678571Y-101178571D01*
X149607142Y-101250000D01*
X149535714Y-101178571D01*
X149678571Y-101178571D01*
X149607142Y-100535714D02*
X149678571Y-100392857D01*
X149678571Y-100107142D01*
X149607142Y-99964285D01*
X149464285Y-99892857D01*
X149392857Y-99892857D01*
X149250000Y-99964285D01*
X149178571Y-100107142D01*
X149178571Y-100321428D01*
X149107142Y-100464285D01*
X148964285Y-100535714D01*
X148892857Y-100535714D01*
X148750000Y-100464285D01*
X148678571Y-100321428D01*
X148678571Y-100107142D01*
X148750000Y-99964285D01*
X149678571Y-98607142D02*
X148892857Y-98607142D01*
X148750000Y-98678571D01*
X148678571Y-98821428D01*
X148678571Y-99107142D01*
X148750000Y-99250000D01*
X149607142Y-98607142D02*
X149678571Y-98750000D01*
X149678571Y-99107142D01*
X149607142Y-99250000D01*
X149464285Y-99321428D01*
X149321428Y-99321428D01*
X149178571Y-99250000D01*
X149107142Y-99107142D01*
X149107142Y-98750000D01*
X149035714Y-98607142D01*
X149678571Y-98035714D02*
X148678571Y-97250000D01*
X148678571Y-98035714D02*
X149678571Y-97250000D01*
X149535714Y-96678571D02*
X149607142Y-96607142D01*
X149678571Y-96678571D01*
X149607142Y-96750000D01*
X149535714Y-96678571D01*
X149678571Y-96678571D01*
X149678571Y-95321428D02*
X148178571Y-95321428D01*
X149607142Y-95321428D02*
X149678571Y-95464285D01*
X149678571Y-95750000D01*
X149607142Y-95892857D01*
X149535714Y-95964285D01*
X149392857Y-96035714D01*
X148964285Y-96035714D01*
X148821428Y-95964285D01*
X148750000Y-95892857D01*
X148678571Y-95750000D01*
X148678571Y-95464285D01*
X148750000Y-95321428D01*
X149607142Y-94035714D02*
X149678571Y-94178571D01*
X149678571Y-94464285D01*
X149607142Y-94607142D01*
X149464285Y-94678571D01*
X148892857Y-94678571D01*
X148750000Y-94607142D01*
X148678571Y-94464285D01*
X148678571Y-94178571D01*
X148750000Y-94035714D01*
X148892857Y-93964285D01*
X149035714Y-93964285D01*
X149178571Y-94678571D01*
X148107142Y-92250000D02*
X150035714Y-93535714D01*
D12*
G04 #@! TO.C,D1*
X146214888Y-112475096D02*
G75*
G03X146230000Y-115500000I-2484888J-1524904D01*
G01*
X146230000Y-112500000D02*
X146230000Y-115500000D01*
X146247936Y-114000000D02*
G75*
G03X146247936Y-114000000I-2517936J0D01*
G01*
G04 #@! TO.C,D2*
X145787936Y-92000000D02*
G75*
G03X145787936Y-92000000I-2517936J0D01*
G01*
X140770000Y-93500000D02*
X140770000Y-90500000D01*
X140785112Y-93524904D02*
G75*
G03X140770000Y-90500000I2484888J1524904D01*
G01*
G04 #@! TO.C,D1*
X139261904Y-117452380D02*
X139261904Y-116452380D01*
X139500000Y-116452380D01*
X139642857Y-116500000D01*
X139738095Y-116595238D01*
X139785714Y-116690476D01*
X139833333Y-116880952D01*
X139833333Y-117023809D01*
X139785714Y-117214285D01*
X139738095Y-117309523D01*
X139642857Y-117404761D01*
X139500000Y-117452380D01*
X139261904Y-117452380D01*
X140785714Y-117452380D02*
X140214285Y-117452380D01*
X140500000Y-117452380D02*
X140500000Y-116452380D01*
X140404761Y-116595238D01*
X140309523Y-116690476D01*
X140214285Y-116738095D01*
X147738095Y-117452380D02*
X147738095Y-116452380D01*
X148309523Y-117452380D02*
X147880952Y-116880952D01*
X148309523Y-116452380D02*
X147738095Y-117023809D01*
G04 #@! TO.C,D2*
X147261904Y-90452380D02*
X147261904Y-89452380D01*
X147500000Y-89452380D01*
X147642857Y-89500000D01*
X147738095Y-89595238D01*
X147785714Y-89690476D01*
X147833333Y-89880952D01*
X147833333Y-90023809D01*
X147785714Y-90214285D01*
X147738095Y-90309523D01*
X147642857Y-90404761D01*
X147500000Y-90452380D01*
X147261904Y-90452380D01*
X148214285Y-89547619D02*
X148261904Y-89500000D01*
X148357142Y-89452380D01*
X148595238Y-89452380D01*
X148690476Y-89500000D01*
X148738095Y-89547619D01*
X148785714Y-89642857D01*
X148785714Y-89738095D01*
X148738095Y-89880952D01*
X148166666Y-90452380D01*
X148785714Y-90452380D01*
X138738095Y-90452380D02*
X138738095Y-89452380D01*
X139309523Y-90452380D02*
X138880952Y-89880952D01*
X139309523Y-89452380D02*
X138738095Y-90023809D01*
G04 #@! TD*
M02*
