G04 #@! TF.GenerationSoftware,KiCad,Pcbnew,5.0.2*
G04 #@! TF.CreationDate,2019-11-03T11:13:19+01:00*
G04 #@! TF.ProjectId,Tiny13-Nachtlicht,54696e79-3133-42d4-9e61-6368746c6963,rev?*
G04 #@! TF.SameCoordinates,Original*
G04 #@! TF.FileFunction,Copper,L2,Bot*
G04 #@! TF.FilePolarity,Positive*
%FSLAX46Y46*%
G04 Gerber Fmt 4.6, Leading zero omitted, Abs format (unit mm)*
G04 Created by KiCad (PCBNEW 5.0.2) date Sun Nov  3 11:13:19 2019*
%MOMM*%
%LPD*%
G01*
G04 APERTURE LIST*
G04 #@! TA.AperFunction,SMDPad,CuDef*
%ADD10R,1.500000X1.250000*%
G04 #@! TD*
G04 #@! TA.AperFunction,ComponentPad*
%ADD11R,1.900000X2.000000*%
G04 #@! TD*
G04 #@! TA.AperFunction,ComponentPad*
%ADD12C,1.900000*%
G04 #@! TD*
G04 #@! TA.AperFunction,SMDPad,CuDef*
%ADD13R,1.300000X1.500000*%
G04 #@! TD*
G04 #@! TA.AperFunction,SMDPad,CuDef*
%ADD14R,1.550000X0.600000*%
G04 #@! TD*
G04 #@! TA.AperFunction,ComponentPad*
%ADD15O,3.800000X7.000000*%
G04 #@! TD*
G04 #@! TA.AperFunction,Conductor*
%ADD16C,0.500000*%
G04 #@! TD*
G04 #@! TA.AperFunction,Conductor*
%ADD17C,1.000000*%
G04 #@! TD*
G04 APERTURE END LIST*
D10*
G04 #@! TO.P,C1,1*
G04 #@! TO.N,/Vcc*
X143250000Y-98000000D03*
G04 #@! TO.P,C1,2*
G04 #@! TO.N,GND*
X140750000Y-98000000D03*
G04 #@! TD*
G04 #@! TO.P,C2,2*
G04 #@! TO.N,GND*
X142750000Y-109000000D03*
G04 #@! TO.P,C2,1*
G04 #@! TO.N,Net-(C2-Pad1)*
X145250000Y-109000000D03*
G04 #@! TD*
D11*
G04 #@! TO.P,D1,1*
G04 #@! TO.N,Net-(C2-Pad1)*
X145000000Y-114000000D03*
D12*
G04 #@! TO.P,D1,2*
G04 #@! TO.N,GND*
X142460000Y-114000000D03*
G04 #@! TD*
G04 #@! TO.P,D2,2*
G04 #@! TO.N,Net-(D2-Pad2)*
X144540000Y-92000000D03*
D11*
G04 #@! TO.P,D2,1*
G04 #@! TO.N,GND*
X142000000Y-92000000D03*
G04 #@! TD*
D13*
G04 #@! TO.P,R1,1*
G04 #@! TO.N,Net-(D2-Pad2)*
X148000000Y-94650000D03*
G04 #@! TO.P,R1,2*
G04 #@! TO.N,Net-(R1-Pad2)*
X148000000Y-97350000D03*
G04 #@! TD*
D14*
G04 #@! TO.P,U3,1*
G04 #@! TO.N,Net-(U3-Pad1)*
X141300000Y-105905000D03*
G04 #@! TO.P,U3,2*
G04 #@! TO.N,Net-(U3-Pad2)*
X141300000Y-104635000D03*
G04 #@! TO.P,U3,3*
G04 #@! TO.N,Net-(U3-Pad3)*
X141300000Y-103365000D03*
G04 #@! TO.P,U3,4*
G04 #@! TO.N,GND*
X141300000Y-102095000D03*
G04 #@! TO.P,U3,5*
G04 #@! TO.N,Net-(R1-Pad2)*
X146700000Y-102095000D03*
G04 #@! TO.P,U3,6*
G04 #@! TO.N,Net-(C2-Pad1)*
X146700000Y-103365000D03*
G04 #@! TO.P,U3,7*
G04 #@! TO.N,Net-(U3-Pad7)*
X146700000Y-104635000D03*
G04 #@! TO.P,U3,8*
G04 #@! TO.N,/Vcc*
X146700000Y-105905000D03*
G04 #@! TD*
D15*
G04 #@! TO.P,B1,-*
G04 #@! TO.N,GND*
X133000000Y-110500000D03*
G04 #@! TO.P,B1,+*
G04 #@! TO.N,/Vcc*
X133000000Y-95500000D03*
G04 #@! TD*
D16*
G04 #@! TO.N,GND*
X142000000Y-92000000D02*
X142000000Y-93500000D01*
X142000000Y-93500000D02*
X140750000Y-94750000D01*
X140750000Y-101545000D02*
X141300000Y-102095000D01*
X142460000Y-111290000D02*
X142750000Y-111000000D01*
X142750000Y-111000000D02*
X142750000Y-109000000D01*
X142460000Y-111290000D02*
X142460000Y-114000000D01*
X142750000Y-109000000D02*
X142750000Y-107250000D01*
X142750000Y-107250000D02*
X143000000Y-107000000D01*
X142575000Y-102095000D02*
X141300000Y-102095000D01*
X143000000Y-102520000D02*
X142575000Y-102095000D01*
X143000000Y-107000000D02*
X143000000Y-102520000D01*
X140750000Y-101000000D02*
X140750000Y-101545000D01*
X140750000Y-99000000D02*
X140750000Y-101000000D01*
X140750000Y-98000000D02*
X140750000Y-99000000D01*
D17*
X140750000Y-98000000D02*
X140750000Y-101000000D01*
D16*
X140750000Y-94750000D02*
X140750000Y-98000000D01*
G04 #@! TO.N,Net-(C2-Pad1)*
X145250000Y-113750000D02*
X145000000Y-114000000D01*
X145250000Y-109000000D02*
X145250000Y-113750000D01*
X148949989Y-104339989D02*
X148949989Y-106550011D01*
X146700000Y-103365000D02*
X147975000Y-103365000D01*
X147975000Y-103365000D02*
X148949989Y-104339989D01*
X148949989Y-106550011D02*
X146500000Y-109000000D01*
X146500000Y-109000000D02*
X145250000Y-109000000D01*
G04 #@! TO.N,Net-(D2-Pad2)*
X145350000Y-92000000D02*
X148000000Y-94650000D01*
X144540000Y-92000000D02*
X145350000Y-92000000D01*
G04 #@! TO.N,Net-(R1-Pad2)*
X148000000Y-99995000D02*
X148000000Y-97350000D01*
X146700000Y-101295000D02*
X148000000Y-99995000D01*
X146700000Y-102095000D02*
X146700000Y-101295000D01*
G04 #@! TO.N,/Vcc*
X144000000Y-96000000D02*
X143250000Y-96750000D01*
X149040002Y-96000000D02*
X144000000Y-96000000D01*
X143250000Y-96750000D02*
X143250000Y-98000000D01*
X145000000Y-105000000D02*
X145905000Y-105905000D01*
X145000000Y-102000000D02*
X145000000Y-105000000D01*
X143250000Y-100250000D02*
X145000000Y-102000000D01*
X145905000Y-105905000D02*
X146700000Y-105905000D01*
X143250000Y-98000000D02*
X143250000Y-100250000D01*
D17*
G04 #@! TO.N,GND*
X133000000Y-110500000D02*
X133000000Y-112000000D01*
X135000000Y-102000000D02*
X136750000Y-102000000D01*
X136750000Y-102000000D02*
X140750000Y-98000000D01*
X133000000Y-104000000D02*
X135000000Y-102000000D01*
X133000000Y-110500000D02*
X133000000Y-104000000D01*
G04 #@! TO.N,/Vcc*
X133000000Y-93900000D02*
X138900000Y-88000000D01*
X133000000Y-95500000D02*
X133000000Y-93900000D01*
X138900000Y-88000000D02*
X146000000Y-88000000D01*
X146000000Y-88000000D02*
X150000000Y-92000000D01*
X150000000Y-92000000D02*
X150000000Y-95000000D01*
D16*
X149040002Y-95959998D02*
X150000000Y-95000000D01*
G04 #@! TD*
M02*
