G04 #@! TF.GenerationSoftware,KiCad,Pcbnew,5.0.2*
G04 #@! TF.CreationDate,2019-11-03T11:13:19+01:00*
G04 #@! TF.ProjectId,Tiny13-Nachtlicht,54696e79-3133-42d4-9e61-6368746c6963,rev?*
G04 #@! TF.SameCoordinates,Original*
G04 #@! TF.FileFunction,Soldermask,Bot*
G04 #@! TF.FilePolarity,Negative*
%FSLAX46Y46*%
G04 Gerber Fmt 4.6, Leading zero omitted, Abs format (unit mm)*
G04 Created by KiCad (PCBNEW 5.0.2) date Sun Nov  3 11:13:19 2019*
%MOMM*%
%LPD*%
G01*
G04 APERTURE LIST*
%ADD10C,0.100000*%
G04 APERTURE END LIST*
D10*
G36*
X146001000Y-115051000D02*
X143999000Y-115051000D01*
X143999000Y-112949000D01*
X146001000Y-112949000D01*
X146001000Y-115051000D01*
X146001000Y-115051000D01*
G37*
G36*
X142751981Y-113037468D02*
X142934150Y-113112925D01*
X143098103Y-113222475D01*
X143237525Y-113361897D01*
X143347075Y-113525850D01*
X143422532Y-113708019D01*
X143461000Y-113901410D01*
X143461000Y-114098590D01*
X143422532Y-114291981D01*
X143347075Y-114474150D01*
X143237525Y-114638103D01*
X143098103Y-114777525D01*
X142934150Y-114887075D01*
X142751981Y-114962532D01*
X142558590Y-115001000D01*
X142361410Y-115001000D01*
X142168019Y-114962532D01*
X141985850Y-114887075D01*
X141821897Y-114777525D01*
X141682475Y-114638103D01*
X141572925Y-114474150D01*
X141497468Y-114291981D01*
X141459000Y-114098590D01*
X141459000Y-113901410D01*
X141497468Y-113708019D01*
X141572925Y-113525850D01*
X141682475Y-113361897D01*
X141821897Y-113222475D01*
X141985850Y-113112925D01*
X142168019Y-113037468D01*
X142361410Y-112999000D01*
X142558590Y-112999000D01*
X142751981Y-113037468D01*
X142751981Y-113037468D01*
G37*
G36*
X133382462Y-106977229D02*
X133750227Y-107088790D01*
X134089162Y-107269954D01*
X134386240Y-107513760D01*
X134630046Y-107810838D01*
X134811210Y-108149772D01*
X134922771Y-108517537D01*
X134951000Y-108804153D01*
X134951000Y-112195847D01*
X134922771Y-112482463D01*
X134811210Y-112850228D01*
X134630046Y-113189162D01*
X134386240Y-113486240D01*
X134089162Y-113730046D01*
X133750228Y-113911210D01*
X133382463Y-114022771D01*
X133000000Y-114060440D01*
X132617538Y-114022771D01*
X132249773Y-113911210D01*
X131910839Y-113730046D01*
X131613761Y-113486240D01*
X131369955Y-113189162D01*
X131188791Y-112850228D01*
X131077230Y-112482463D01*
X131049001Y-112195847D01*
X131049000Y-108804154D01*
X131077229Y-108517538D01*
X131188790Y-108149773D01*
X131369954Y-107810838D01*
X131613760Y-107513760D01*
X131910838Y-107269954D01*
X132249772Y-107088790D01*
X132617537Y-106977229D01*
X133000000Y-106939560D01*
X133382462Y-106977229D01*
X133382462Y-106977229D01*
G37*
G36*
X146051000Y-109676000D02*
X144449000Y-109676000D01*
X144449000Y-108324000D01*
X146051000Y-108324000D01*
X146051000Y-109676000D01*
X146051000Y-109676000D01*
G37*
G36*
X143551000Y-109676000D02*
X141949000Y-109676000D01*
X141949000Y-108324000D01*
X143551000Y-108324000D01*
X143551000Y-109676000D01*
X143551000Y-109676000D01*
G37*
G36*
X147526000Y-106256000D02*
X145874000Y-106256000D01*
X145874000Y-105554000D01*
X147526000Y-105554000D01*
X147526000Y-106256000D01*
X147526000Y-106256000D01*
G37*
G36*
X142126000Y-106256000D02*
X140474000Y-106256000D01*
X140474000Y-105554000D01*
X142126000Y-105554000D01*
X142126000Y-106256000D01*
X142126000Y-106256000D01*
G37*
G36*
X147526000Y-104986000D02*
X145874000Y-104986000D01*
X145874000Y-104284000D01*
X147526000Y-104284000D01*
X147526000Y-104986000D01*
X147526000Y-104986000D01*
G37*
G36*
X142126000Y-104986000D02*
X140474000Y-104986000D01*
X140474000Y-104284000D01*
X142126000Y-104284000D01*
X142126000Y-104986000D01*
X142126000Y-104986000D01*
G37*
G36*
X147526000Y-103716000D02*
X145874000Y-103716000D01*
X145874000Y-103014000D01*
X147526000Y-103014000D01*
X147526000Y-103716000D01*
X147526000Y-103716000D01*
G37*
G36*
X142126000Y-103716000D02*
X140474000Y-103716000D01*
X140474000Y-103014000D01*
X142126000Y-103014000D01*
X142126000Y-103716000D01*
X142126000Y-103716000D01*
G37*
G36*
X147526000Y-102446000D02*
X145874000Y-102446000D01*
X145874000Y-101744000D01*
X147526000Y-101744000D01*
X147526000Y-102446000D01*
X147526000Y-102446000D01*
G37*
G36*
X142126000Y-102446000D02*
X140474000Y-102446000D01*
X140474000Y-101744000D01*
X142126000Y-101744000D01*
X142126000Y-102446000D01*
X142126000Y-102446000D01*
G37*
G36*
X133382462Y-91977229D02*
X133750227Y-92088790D01*
X134089162Y-92269954D01*
X134386240Y-92513760D01*
X134630046Y-92810838D01*
X134811210Y-93149772D01*
X134922771Y-93517537D01*
X134951000Y-93804153D01*
X134951000Y-97195847D01*
X134922771Y-97482463D01*
X134811210Y-97850228D01*
X134630046Y-98189162D01*
X134386240Y-98486240D01*
X134089162Y-98730046D01*
X133750228Y-98911210D01*
X133382463Y-99022771D01*
X133000000Y-99060440D01*
X132617538Y-99022771D01*
X132249773Y-98911210D01*
X131910839Y-98730046D01*
X131613761Y-98486240D01*
X131369955Y-98189162D01*
X131188791Y-97850228D01*
X131077230Y-97482463D01*
X131049001Y-97195847D01*
X131049000Y-93804154D01*
X131077229Y-93517538D01*
X131188790Y-93149773D01*
X131369954Y-92810838D01*
X131613760Y-92513760D01*
X131910838Y-92269954D01*
X132249772Y-92088790D01*
X132617537Y-91977229D01*
X133000000Y-91939560D01*
X133382462Y-91977229D01*
X133382462Y-91977229D01*
G37*
G36*
X141551000Y-98676000D02*
X139949000Y-98676000D01*
X139949000Y-97324000D01*
X141551000Y-97324000D01*
X141551000Y-98676000D01*
X141551000Y-98676000D01*
G37*
G36*
X144051000Y-98676000D02*
X142449000Y-98676000D01*
X142449000Y-97324000D01*
X144051000Y-97324000D01*
X144051000Y-98676000D01*
X144051000Y-98676000D01*
G37*
G36*
X148701000Y-98151000D02*
X147299000Y-98151000D01*
X147299000Y-96549000D01*
X148701000Y-96549000D01*
X148701000Y-98151000D01*
X148701000Y-98151000D01*
G37*
G36*
X148701000Y-95451000D02*
X147299000Y-95451000D01*
X147299000Y-93849000D01*
X148701000Y-93849000D01*
X148701000Y-95451000D01*
X148701000Y-95451000D01*
G37*
G36*
X143001000Y-93051000D02*
X140999000Y-93051000D01*
X140999000Y-90949000D01*
X143001000Y-90949000D01*
X143001000Y-93051000D01*
X143001000Y-93051000D01*
G37*
G36*
X144831981Y-91037468D02*
X145014150Y-91112925D01*
X145178103Y-91222475D01*
X145317525Y-91361897D01*
X145427075Y-91525850D01*
X145502532Y-91708019D01*
X145541000Y-91901410D01*
X145541000Y-92098590D01*
X145502532Y-92291981D01*
X145427075Y-92474150D01*
X145317525Y-92638103D01*
X145178103Y-92777525D01*
X145014150Y-92887075D01*
X144831981Y-92962532D01*
X144638590Y-93001000D01*
X144441410Y-93001000D01*
X144248019Y-92962532D01*
X144065850Y-92887075D01*
X143901897Y-92777525D01*
X143762475Y-92638103D01*
X143652925Y-92474150D01*
X143577468Y-92291981D01*
X143539000Y-92098590D01*
X143539000Y-91901410D01*
X143577468Y-91708019D01*
X143652925Y-91525850D01*
X143762475Y-91361897D01*
X143901897Y-91222475D01*
X144065850Y-91112925D01*
X144248019Y-91037468D01*
X144441410Y-90999000D01*
X144638590Y-90999000D01*
X144831981Y-91037468D01*
X144831981Y-91037468D01*
G37*
M02*
